<svg width="852" height="855" viewBox="0 0 852 855" fill="none" xmlns="http://www.w3.org/2000/svg">
<path d="M734.548 216.094C732.798 230.937 731.38 232.359 716.589 234.116C716.622 234.12 716.651 234.124 716.681 234.128H716.685C731.384 235.88 732.802 237.328 734.548 252.138C736.298 237.295 737.72 235.872 752.507 234.116C737.72 232.359 736.298 230.937 734.548 216.094Z" fill="#8961CB"/>
<path d="M405.629 140C405.633 140 405.638 140 405.642 140C406.089 140.002 406.494 140.186 406.788 140.481C407.083 140.777 407.266 141.187 407.267 141.639H407.268V147.372H412.981C413.431 147.372 413.839 147.557 414.135 147.854C414.429 148.149 414.613 148.557 414.614 149.005C414.614 149.01 414.614 149.014 414.614 149.019C414.612 149.467 414.429 149.873 414.135 150.169C413.84 150.465 413.431 150.648 412.981 150.648V150.65H407.268V156.384C407.268 156.834 407.084 157.244 406.788 157.541C406.494 157.836 406.088 158.021 405.641 158.022C405.636 158.022 405.631 158.022 405.627 158.022C405.181 158.02 404.775 157.836 404.481 157.541C404.186 157.245 404.003 156.835 404.003 156.384H404.002V150.65H398.288C397.839 150.65 397.43 150.465 397.135 150.169C396.84 149.873 396.657 149.466 396.655 149.017C396.655 149.012 396.655 149.008 396.655 149.003C396.657 148.555 396.841 148.149 397.135 147.854C397.43 147.558 397.838 147.374 398.288 147.374V147.372H404.002V141.639C404.002 141.188 404.186 140.778 404.481 140.481C404.776 140.186 405.182 140.002 405.629 140Z" fill="url(#paint0_linear_618_738)"/>
<path d="M372.695 160.692C372.706 160.692 372.717 160.692 372.727 160.693C373.752 160.697 374.683 161.119 375.358 161.797C376.035 162.477 376.456 163.418 376.456 164.455H376.459V177.621H389.579C390.611 177.621 391.549 178.045 392.228 178.726C392.904 179.405 393.325 180.34 393.329 181.37C393.329 181.381 393.329 181.392 393.329 181.402C393.324 182.43 392.903 183.364 392.228 184.042C391.55 184.722 390.613 185.144 389.579 185.144V185.147H376.459V198.314C376.459 199.349 376.037 200.29 375.358 200.972C374.682 201.65 373.749 202.073 372.723 202.076C372.712 202.076 372.702 202.076 372.691 202.076C371.667 202.071 370.736 201.649 370.061 200.972C369.383 200.292 368.963 199.351 368.963 198.314H368.96V185.147H355.839C354.808 185.147 353.87 184.723 353.191 184.042C352.515 183.363 352.093 182.428 352.09 181.398C352.09 181.387 352.09 181.377 352.09 181.366C352.095 180.338 352.516 179.404 353.191 178.726C353.868 178.046 354.806 177.624 355.839 177.624V177.621H368.96V164.455C368.96 163.42 369.382 162.478 370.061 161.797C370.737 161.118 371.669 160.696 372.695 160.692Z" fill="url(#paint1_linear_618_738)"/>
<mask id="mask0_618_738" style="mask-type:luminance" maskUnits="userSpaceOnUse" x="84" y="414" width="623" height="302">
<path d="M111.113 414.337L706.705 482.871L680.294 716L84.7019 647.466L111.113 414.337Z" fill="white"/>
</mask>
<g mask="url(#mask0_618_738)">
<g filter="url(#filter0_i_618_738)">
<path d="M701.555 503.157C693.26 493.434 671.255 482.493 614.179 506.265C589.3 518.122 575.654 526.012 568.714 530.443C564.254 533.277 559.031 534.665 553.755 534.427C525.573 533.157 436.295 531.546 406.101 527.465C401.701 526.866 400.888 520.714 404.111 518.72C406.532 517.232 410.041 516.769 415.071 515.804C432.846 512.397 528.209 523.824 530.18 487.753C532.068 453.162 462.228 457.957 441.43 459.972C433.371 460.749 424.446 461.058 416.239 461.112C416.239 461.112 386.656 459.021 372.563 453.875C343.275 442.48 281.227 422.325 237.412 450.34C202.116 472.901 185.816 488.579 178.49 497.304C173.545 503.2 167.164 507.711 160 510.465L98.9463 543.914C95.7353 545.672 94.8794 549.912 97.1663 552.793L153.017 623.322L179.387 656.618C181.633 659.449 185.852 659.62 188.305 656.977C203.03 641.125 254.42 595.637 349.234 609.672C463.442 626.577 464.437 624.426 491.098 613.956C512.023 605.744 560.87 594.272 580.938 589.701C586.845 588.369 592.464 585.99 597.543 582.689L699.413 516.587C704.111 513.741 705.128 507.339 701.555 503.157Z" fill="url(#paint2_linear_618_738)"/>
</g>
</g>
<path d="M717.094 344.918C717.107 344.918 717.118 344.918 717.129 344.919C718.257 344.923 719.282 345.387 720.025 346.13C720.771 346.875 721.233 347.907 721.234 349.045H721.237V363.486H735.678C736.813 363.486 737.845 363.95 738.593 364.697C739.336 365.442 739.8 366.468 739.805 367.597C739.805 367.609 739.805 367.621 739.805 367.632C739.799 368.76 739.336 369.784 738.593 370.528C737.847 371.273 736.815 371.736 735.678 371.736V371.74H721.237V386.18C721.237 387.316 720.772 388.348 720.025 389.096C719.281 389.839 718.255 390.303 717.125 390.307C717.113 390.307 717.102 390.307 717.09 390.307C715.962 390.302 714.938 389.839 714.195 389.096C713.449 388.35 712.986 387.318 712.986 386.18H712.983V371.74H698.542C697.407 371.74 696.375 371.275 695.627 370.528C694.883 369.783 694.419 368.757 694.416 367.628C694.415 367.616 694.415 367.605 694.416 367.593C694.421 366.465 694.884 365.44 695.627 364.697C696.373 363.952 697.405 363.489 698.542 363.489V363.486H712.983V349.045C712.983 347.909 713.448 346.877 714.195 346.13C714.939 345.385 715.965 344.922 717.094 344.918Z" fill="url(#paint3_linear_618_738)"/>
<mask id="mask1_618_738" style="mask-type:luminance" maskUnits="userSpaceOnUse" x="380" y="202" width="370" height="199">
<path d="M380.267 216.202L742.725 202.741L749.43 386.816L386.973 400.278L380.267 216.202Z" fill="white"/>
</mask>
<g mask="url(#mask1_618_738)">
<mask id="mask2_618_738" style="mask-type:luminance" maskUnits="userSpaceOnUse" x="358" y="168" width="414" height="267">
<path d="M358.638 283.675L712.19 168.403L771.125 319.177L417.572 434.45L358.638 283.675Z" fill="white"/>
</mask>
<g mask="url(#mask2_618_738)">
<mask id="mask3_618_738" style="mask-type:luminance" maskUnits="userSpaceOnUse" x="358" y="168" width="414" height="267">
<path d="M358.631 283.712L712.613 168.29L771.527 319.014L417.545 434.436L358.631 283.712Z" fill="white"/>
</mask>
<g mask="url(#mask3_618_738)">
<mask id="mask4_618_738" style="mask-type:luminance" maskUnits="userSpaceOnUse" x="385" y="206" width="360" height="191">
<path d="M535.433 226.102C437.788 257.94 371.816 317.471 388.076 359.072C404.342 400.673 496.682 408.588 594.327 376.75C691.972 344.911 757.948 285.38 741.683 243.779C725.422 202.178 633.078 194.263 535.433 226.102Z" fill="white"/>
</mask>
<g mask="url(#mask4_618_738)">
<path d="M535.442 226.062C437.825 257.918 371.871 317.481 388.127 359.104C404.388 400.727 496.701 408.646 594.319 376.79C691.936 344.934 757.894 285.371 741.634 243.747C725.378 202.124 633.06 194.206 535.442 226.062Z" stroke="#8961CB" stroke-width="14.6932"/>
</g>
</g>
</g>
</g>
<path d="M409.292 352.928C407.023 370.245 405.186 371.905 386.012 373.954C386.055 373.959 386.093 373.964 386.131 373.968H386.136C405.191 376.013 407.029 377.701 409.292 394.98C411.561 377.667 413.404 376.003 432.572 373.954C413.404 371.905 411.561 370.245 409.292 352.928Z" fill="#8961CB"/>
<g filter="url(#filter1_ii_618_738)">
<path d="M709.522 229.731C691.418 136.237 577.949 134.673 549.971 222.075C521.99 134.677 408.521 136.237 390.421 229.731C373.994 314.555 549.971 448.38 549.971 448.38C549.971 448.38 725.945 314.555 709.522 229.731Z" fill="url(#paint4_linear_618_738)"/>
</g>
<g filter="url(#filter2_ii_618_738)">
<path d="M709.522 229.731C691.418 136.237 577.949 134.673 549.971 222.075C521.99 134.677 408.521 136.237 390.421 229.731C373.994 314.555 549.971 448.38 549.971 448.38C549.971 448.38 725.945 314.555 709.522 229.731Z" fill="url(#paint5_linear_618_738)"/>
<path d="M709.522 229.731C691.418 136.237 577.949 134.673 549.971 222.075C521.99 134.677 408.521 136.237 390.421 229.731C373.994 314.555 549.971 448.38 549.971 448.38C549.971 448.38 725.945 314.555 709.522 229.731Z" fill="url(#paint6_linear_618_738)"/>
</g>
<path d="M565.106 227.843L567.205 234.392L569.304 227.843C582.702 186.035 616.441 165.719 648.816 166.811C681.139 167.902 712.496 190.346 721.166 235.073C725.03 255.007 717.606 278.143 703.809 301.917C690.049 325.626 670.162 349.606 649.698 371.079C629.247 392.539 608.285 411.427 592.429 424.954C584.503 431.716 577.858 437.134 573.196 440.86C570.866 442.723 569.032 444.162 567.781 445.135C567.573 445.297 567.381 445.447 567.205 445.583C567.029 445.447 566.837 445.297 566.628 445.135C565.378 444.162 563.544 442.723 561.213 440.86C556.552 437.134 549.906 431.715 541.98 424.954C526.124 411.427 505.162 392.539 484.71 371.079C464.246 349.606 444.359 325.626 430.599 301.917C416.802 278.143 409.379 255.007 413.244 235.073L413.244 235.073C421.912 190.346 453.268 167.903 485.59 166.813C517.966 165.721 551.706 186.037 565.106 227.843Z" stroke="#C4ABEC" stroke-width="4.40797"/>
<mask id="mask5_618_738" style="mask-type:alpha" maskUnits="userSpaceOnUse" x="442" y="326" width="253" height="83">
<rect x="442.773" y="326.229" width="251.643" height="82.1009" fill="#D9D9D9"/>
</mask>
<g mask="url(#mask5_618_738)">
<mask id="mask6_618_738" style="mask-type:luminance" maskUnits="userSpaceOnUse" x="380" y="202" width="370" height="199">
<path d="M380.267 216.201L742.724 202.74L749.43 386.816L386.973 400.277L380.267 216.201Z" fill="white"/>
</mask>
<g mask="url(#mask6_618_738)">
<mask id="mask7_618_738" style="mask-type:luminance" maskUnits="userSpaceOnUse" x="358" y="168" width="414" height="267">
<path d="M358.638 283.675L712.19 168.403L771.124 319.177L417.572 434.45L358.638 283.675Z" fill="white"/>
</mask>
<g mask="url(#mask7_618_738)">
<mask id="mask8_618_738" style="mask-type:luminance" maskUnits="userSpaceOnUse" x="358" y="168" width="414" height="267">
<path d="M358.631 283.712L712.613 168.29L771.527 319.014L417.545 434.436L358.631 283.712Z" fill="white"/>
</mask>
<g mask="url(#mask8_618_738)">
<mask id="mask9_618_738" style="mask-type:luminance" maskUnits="userSpaceOnUse" x="385" y="206" width="360" height="191">
<path d="M535.433 226.102C437.788 257.94 371.816 317.471 388.076 359.072C404.342 400.673 496.682 408.589 594.327 376.75C691.972 344.911 757.948 285.38 741.683 243.779C725.422 202.178 633.078 194.263 535.433 226.102Z" fill="white"/>
</mask>
<g mask="url(#mask9_618_738)">
<path d="M535.442 226.062C437.825 257.918 371.871 317.481 388.127 359.104C404.388 400.727 496.701 408.646 594.319 376.79C691.936 344.934 757.894 285.371 741.634 243.748C725.378 202.124 633.06 194.206 535.442 226.062Z" stroke="#8961CB" stroke-width="14.6932"/>
</g>
</g>
</g>
</g>
</g>
<path d="M283.256 720.5V719.5H282.256V720.5H283.256ZM292.166 720.5H293.166V719.5H292.166V720.5ZM292.166 759V760H293.166V759H292.166ZM283.256 759H282.256V760H283.256V759ZM265.766 759V760H266.766V759H265.766ZM256.856 759H255.856V760H256.856V759ZM256.856 720.5V719.5H255.856V720.5H256.856ZM265.766 720.5H266.766V719.5H265.766V720.5ZM283.916 743.215V744.215H284.916V743.215H283.916ZM265.106 743.215H264.106V744.215H265.106V743.215ZM265.106 735.68V734.68H264.106V735.68H265.106ZM283.916 735.68H284.916V734.68H283.916V735.68ZM283.256 721.5H292.166V719.5H283.256V721.5ZM291.166 720.5V759H293.166V720.5H291.166ZM292.166 758H283.256V760H292.166V758ZM284.256 759V720.5H282.256V759H284.256ZM265.766 758H256.856V760H265.766V758ZM257.856 759V720.5H255.856V759H257.856ZM256.856 721.5H265.766V719.5H256.856V721.5ZM264.766 720.5V759H266.766V720.5H264.766ZM283.916 742.215H265.106V744.215H283.916V742.215ZM266.106 743.215V735.68H264.106V743.215H266.106ZM265.106 736.68H283.916V734.68H265.106V736.68ZM282.916 735.68V743.215H284.916V735.68H282.916ZM301.275 759H300.275V760H301.275V759ZM301.275 720.5V719.5H300.275V720.5H301.275ZM310.185 720.5H311.185V719.5H310.185V720.5ZM310.185 759V760H311.185V759H310.185ZM302.275 759V720.5H300.275V759H302.275ZM301.275 721.5H310.185V719.5H301.275V721.5ZM309.185 720.5V759H311.185V720.5H309.185ZM310.185 758H301.275V760H310.185V758ZM319.322 759H318.322V760H319.322V759ZM319.322 720.5V719.5H318.322V720.5H319.322ZM326.692 720.5L327.548 719.983L327.256 719.5H326.692V720.5ZM343.082 747.67V748.67H344.853L343.938 747.153L343.082 747.67ZM339.177 747.67L338.317 747.16L337.421 748.67H339.177V747.67ZM355.292 720.5V719.5H354.722L354.432 719.99L355.292 720.5ZM362.607 720.5L363.607 720.497L363.604 719.5H362.607V720.5ZM362.717 759V760H363.72L363.717 758.997L362.717 759ZM354.357 759L353.357 759.002L353.359 760H354.357V759ZM354.302 733.315V732.315H353.3L353.302 733.317L354.302 733.315ZM355.842 733.315L356.701 733.827L357.601 732.315H355.842V733.315ZM342.972 754.93V755.93H343.54L343.831 755.442L342.972 754.93ZM338.957 754.93L338.102 755.45L338.395 755.93H338.957V754.93ZM325.812 733.315V732.315H324.033L324.957 733.835L325.812 733.315ZM327.682 733.315H328.682V732.315H327.682V733.315ZM327.682 759V760H328.682V759H327.682ZM320.322 759V720.5H318.322V759H320.322ZM319.322 721.5H326.692V719.5H319.322V721.5ZM325.836 721.017L342.226 748.187L343.938 747.153L327.548 719.983L325.836 721.017ZM343.082 746.67H339.177V748.67H343.082V746.67ZM340.037 748.18L356.152 721.01L354.432 719.99L338.317 747.16L340.037 748.18ZM355.292 721.5H362.607V719.5H355.292V721.5ZM361.607 720.503L361.717 759.003L363.717 758.997L363.607 720.497L361.607 720.503ZM362.717 758H354.357V760H362.717V758ZM355.357 758.998L355.302 733.313L353.302 733.317L353.357 759.002L355.357 758.998ZM354.302 734.315H355.842V732.315H354.302V734.315ZM354.983 732.803L342.113 754.418L343.831 755.442L356.701 733.827L354.983 732.803ZM342.972 753.93H338.957V755.93H342.972V753.93ZM339.811 754.41L326.666 732.795L324.957 733.835L338.102 755.45L339.811 754.41ZM325.812 734.315H327.682V732.315H325.812V734.315ZM326.682 733.315V759H328.682V733.315H326.682ZM327.682 758H319.322V760H327.682V758ZM379.826 759H378.826V760H379.826V759ZM379.826 727.76H380.826V726.76H379.826V727.76ZM367.506 727.76H366.506V728.76H367.506V727.76ZM367.506 720.5V719.5H366.506V720.5H367.506ZM401.056 720.5H402.056V719.5H401.056V720.5ZM401.056 727.76V728.76H402.056V727.76H401.056ZM388.736 727.76V726.76H387.736V727.76H388.736ZM388.736 759V760H389.736V759H388.736ZM380.826 759V727.76H378.826V759H380.826ZM379.826 726.76H367.506V728.76H379.826V726.76ZM368.506 727.76V720.5H366.506V727.76H368.506ZM367.506 721.5H401.056V719.5H367.506V721.5ZM400.056 720.5V727.76H402.056V720.5H400.056ZM401.056 726.76H388.736V728.76H401.056V726.76ZM387.736 727.76V759H389.736V727.76H387.736ZM388.736 758H379.826V760H388.736V758ZM405.85 759H404.85V760H405.85V759ZM405.85 720.5V719.5H404.85V720.5H405.85ZM414.76 720.5H415.76V719.5H414.76V720.5ZM414.76 759V760H415.76V759H414.76ZM406.85 759V720.5H404.85V759H406.85ZM405.85 721.5H414.76V719.5H405.85V721.5ZM413.76 720.5V759H415.76V720.5H413.76ZM414.76 758H405.85V760H414.76V758ZM449.593 758.23L449.229 759.161L449.237 759.164L449.245 759.167L449.593 758.23ZM442.993 754.05L442.3 754.771L442.993 754.05ZM438.593 747.725L437.673 748.116L437.678 748.127L438.593 747.725ZM438.593 731.775L437.678 731.373L437.673 731.384L438.593 731.775ZM442.993 725.45L442.307 724.722L442.3 724.729L442.993 725.45ZM449.648 721.325L450.001 722.261L450.013 722.256L449.648 721.325ZM466.973 721.6L466.572 722.516L466.579 722.519L466.587 722.522L466.973 721.6ZM473.793 726.66L474.471 727.395L475.164 726.755L474.567 726.026L473.793 726.66ZM468.073 731.94L467.322 732.6L467.998 733.37L468.751 732.675L468.073 731.94ZM463.673 728.585L463.242 729.487L463.251 729.492L463.259 729.495L463.673 728.585ZM449.538 730.84L450.245 731.547L449.538 730.84ZM446.953 734.745L446.029 734.362L446.025 734.372L446.022 734.381L446.953 734.745ZM446.953 744.755L446.022 745.119L446.025 745.128L446.029 745.138L446.953 744.755ZM449.538 748.66L448.831 749.367L449.538 748.66ZM463.673 750.97L464.087 751.88L464.096 751.877L464.104 751.872L463.673 750.97ZM468.073 747.505L468.751 746.77L467.989 746.066L467.314 746.854L468.073 747.505ZM473.793 752.785L474.567 753.419L475.164 752.69L474.471 752.05L473.793 752.785ZM466.973 757.9L466.576 756.982L466.572 756.984L466.973 757.9ZM457.898 758.66C455.037 758.66 452.388 758.201 449.941 757.293L449.245 759.167C451.932 760.166 454.819 760.66 457.898 760.66V758.66ZM449.958 757.299C447.544 756.354 445.457 755.03 443.686 753.329L442.3 754.771C444.269 756.663 446.583 758.126 449.229 759.161L449.958 757.299ZM443.686 753.329C441.912 751.625 440.52 749.625 439.509 747.323L437.678 748.127C438.793 750.665 440.334 752.882 442.3 754.771L443.686 753.329ZM439.514 747.334C438.545 745.05 438.053 742.526 438.053 739.75H436.053C436.053 742.767 436.588 745.56 437.673 748.116L439.514 747.334ZM438.053 739.75C438.053 736.974 438.545 734.45 439.514 732.166L437.673 731.384C436.588 733.94 436.053 736.733 436.053 739.75H438.053ZM439.509 732.177C440.52 729.875 441.912 727.875 443.686 726.171L442.3 724.729C440.334 726.618 438.793 728.835 437.678 731.373L439.509 732.177ZM443.679 726.178C445.486 724.475 447.59 723.169 450.001 722.261L449.296 720.389C446.646 721.388 444.313 722.832 442.307 724.722L443.679 726.178ZM450.013 722.256C452.415 721.316 455.058 720.84 457.953 720.84V718.84C454.835 718.84 451.942 719.354 449.284 720.394L450.013 722.256ZM457.953 720.84C461.171 720.84 464.038 721.405 466.572 722.516L467.375 720.684C464.555 719.448 461.409 718.84 457.953 718.84V720.84ZM466.587 722.522C469.152 723.597 471.292 725.186 473.02 727.294L474.567 726.026C472.628 723.661 470.221 721.876 467.36 720.678L466.587 722.522ZM473.115 725.925L467.395 731.205L468.751 732.675L474.471 727.395L473.115 725.925ZM468.825 731.28C467.423 729.684 465.845 728.474 464.087 727.675L463.259 729.495C464.728 730.163 466.083 731.189 467.322 732.6L468.825 731.28ZM464.104 727.683C462.347 726.844 460.439 726.43 458.393 726.43V728.43C460.161 728.43 461.773 728.786 463.242 729.487L464.104 727.683ZM458.393 726.43C456.486 726.43 454.711 726.742 453.08 727.378L453.807 729.242C455.182 728.705 456.707 728.43 458.393 728.43V726.43ZM453.08 727.378C451.452 728.013 450.033 728.931 448.831 730.133L450.245 731.547C451.244 730.549 452.427 729.78 453.807 729.242L453.08 727.378ZM448.831 730.133C447.634 731.33 446.701 732.743 446.029 734.362L447.877 735.128C448.452 733.74 449.242 732.55 450.245 731.547L448.831 730.133ZM446.022 734.381C445.384 736.015 445.073 737.809 445.073 739.75H447.073C447.073 738.024 447.349 736.481 447.885 735.109L446.022 734.381ZM445.073 739.75C445.073 741.691 445.384 743.485 446.022 745.119L447.885 744.391C447.349 743.019 447.073 741.476 447.073 739.75H445.073ZM446.029 745.138C446.701 746.757 447.634 748.17 448.831 749.367L450.245 747.953C449.242 746.95 448.452 745.76 447.877 744.372L446.029 745.138ZM448.831 749.367C450.033 750.569 451.452 751.487 453.08 752.122L453.807 750.258C452.427 749.72 451.244 748.951 450.245 747.953L448.831 749.367ZM453.08 752.122C454.711 752.758 456.486 753.07 458.393 753.07V751.07C456.707 751.07 455.182 750.795 453.807 750.258L453.08 752.122ZM458.393 753.07C460.432 753.07 462.334 752.677 464.087 751.88L463.259 750.06C461.786 750.73 460.168 751.07 458.393 751.07V753.07ZM464.104 751.872C465.859 751.035 467.434 749.787 468.832 748.156L467.314 746.854C466.073 748.303 464.714 749.365 463.242 750.068L464.104 751.872ZM467.395 748.24L473.115 753.52L474.471 752.05L468.751 746.77L467.395 748.24ZM473.02 752.151C471.29 754.262 469.147 755.871 466.576 756.982L467.37 758.818C470.226 757.583 472.63 755.782 474.567 753.419L473.02 752.151ZM466.572 756.984C464.04 758.094 461.155 758.66 457.898 758.66V760.66C461.389 760.66 464.553 760.053 467.375 758.816L466.572 756.984ZM474.052 759L473.138 758.593L472.511 760H474.052V759ZM491.212 720.5V719.5H490.563L490.298 720.093L491.212 720.5ZM500.012 720.5L500.925 720.092L500.66 719.5H500.012V720.5ZM517.227 759V760H518.769L518.14 758.592L517.227 759ZM507.877 759L506.953 759.383L507.209 760H507.877V759ZM493.797 725.01V724.01H492.3L492.873 725.393L493.797 725.01ZM497.317 725.01L498.24 725.394L498.816 724.01H497.317V725.01ZM483.182 759V760H483.849L484.105 759.384L483.182 759ZM482.632 750.75L481.688 750.42L481.223 751.75H482.632V750.75ZM484.997 743.985V742.985H484.287L484.053 743.655L484.997 743.985ZM504.797 743.985L505.738 743.648L505.501 742.985H504.797V743.985ZM507.217 750.75V751.75H508.637L508.158 750.413L507.217 750.75ZM474.965 759.407L492.125 720.907L490.298 720.093L473.138 758.593L474.965 759.407ZM491.212 721.5H500.012V719.5H491.212V721.5ZM499.099 720.908L516.314 759.408L518.14 758.592L500.925 720.092L499.099 720.908ZM517.227 758H507.877V760H517.227V758ZM508.801 758.617L494.721 724.627L492.873 725.393L506.953 759.383L508.801 758.617ZM493.797 726.01H497.317V724.01H493.797V726.01ZM496.394 724.626L482.259 758.616L484.105 759.384L498.24 725.394L496.394 724.626ZM483.182 758H474.052V760H483.182V758ZM483.576 751.08L485.941 744.315L484.053 743.655L481.688 750.42L483.576 751.08ZM484.997 744.985H504.797V742.985H484.997V744.985ZM503.855 744.322L506.275 751.087L508.158 750.413L505.738 743.648L503.855 744.322ZM507.217 749.75H482.632V751.75H507.217V749.75ZM521.221 759H520.221V760H521.221V759ZM521.221 720.5V719.5H520.221V720.5H521.221ZM546.796 722.205L546.381 723.115L546.393 723.12L546.796 722.205ZM552.571 726.99L551.732 727.534L552.571 726.99ZM552.571 741.895L553.406 742.446L553.41 742.439L552.571 741.895ZM546.796 746.625L547.2 747.54L546.796 746.625ZM526.171 748.275L525.469 747.563L523.733 749.275H526.171V748.275ZM530.131 744.37H531.131V741.979L529.429 743.658L530.131 744.37ZM530.131 759V760H531.131V759H530.131ZM545.696 759L544.873 759.567L545.171 760H545.696V759ZM536.071 745.03V744.03H534.168L535.248 745.597L536.071 745.03ZM545.586 745.03L546.407 744.458L546.108 744.03H545.586V745.03ZM555.321 759V760H557.237L556.142 758.428L555.321 759ZM530.131 745.36L529.405 746.048L531.131 747.87V745.36H530.131ZM526.171 741.18V740.18H523.846L525.445 741.868L526.171 741.18ZM543.551 739.42L544.205 740.176L544.211 740.171L544.217 740.166L543.551 739.42ZM526.171 727.76L525.441 727.077L523.867 728.76H526.171V727.76ZM530.131 723.525H531.131V720.991L529.401 722.842L530.131 723.525ZM522.221 759V720.5H520.221V759H522.221ZM521.221 721.5H537.886V719.5H521.221V721.5ZM537.886 721.5C541.226 721.5 544.047 722.051 546.381 723.115L547.211 721.295C544.558 720.086 541.44 719.5 537.886 719.5V721.5ZM546.393 723.12C548.725 724.149 550.492 725.623 551.732 727.534L553.41 726.446C551.938 724.177 549.854 722.461 547.2 721.29L546.393 723.12ZM551.732 727.534C552.968 729.437 553.606 731.734 553.606 734.47H555.606C555.606 731.412 554.888 728.723 553.41 726.446L551.732 727.534ZM553.606 734.47C553.606 737.166 552.969 739.446 551.732 741.351L553.41 742.439C554.887 740.164 555.606 737.494 555.606 734.47H553.606ZM551.737 741.344C550.497 743.22 548.73 744.679 546.393 745.71L547.2 747.54C549.849 746.371 551.932 744.677 553.406 742.446L551.737 741.344ZM546.393 745.71C544.055 746.741 541.229 747.275 537.886 747.275V749.275C541.436 749.275 544.55 748.709 547.2 747.54L546.393 745.71ZM537.886 747.275H526.171V749.275H537.886V747.275ZM526.873 748.987L530.833 745.082L529.429 743.658L525.469 747.563L526.873 748.987ZM529.131 744.37V759H531.131V744.37H529.131ZM530.131 758H521.221V760H530.131V758ZM546.52 758.433L536.895 744.463L535.248 745.597L544.873 759.567L546.52 758.433ZM536.071 746.03H545.586V744.03H536.071V746.03ZM544.766 745.602L554.501 759.572L556.142 758.428L546.407 744.458L544.766 745.602ZM555.321 758H545.696V760H555.321V758ZM530.857 744.672L526.897 740.492L525.445 741.868L529.405 746.048L530.857 744.672ZM526.171 742.18H537.391V740.18H526.171V742.18ZM537.391 742.18C540.259 742.18 542.592 741.572 544.205 740.176L542.897 738.664C541.797 739.615 540.024 740.18 537.391 740.18V742.18ZM544.217 740.166C545.819 738.737 546.586 736.798 546.586 734.47H544.586C544.586 736.322 543.997 737.683 542.886 738.674L544.217 740.166ZM546.586 734.47C546.586 732.112 545.823 730.163 544.205 728.764L542.897 730.276C543.993 731.224 544.586 732.574 544.586 734.47H546.586ZM544.205 728.764C542.592 727.368 540.259 726.76 537.391 726.76V728.76C540.024 728.76 541.797 729.325 542.897 730.276L544.205 728.764ZM537.391 726.76H526.171V728.76H537.391V726.76ZM526.902 728.443L530.862 724.208L529.401 722.842L525.441 727.077L526.902 728.443ZM529.131 723.525V745.36H531.131V723.525H529.131ZM569.861 736.01V735.01H568.861V736.01H569.861ZM588.396 736.01H589.396V735.01H588.396V736.01ZM588.396 742.94V743.94H589.396V742.94H588.396ZM569.861 742.94H568.861V743.94H569.861V742.94ZM570.521 751.85H569.521V752.85H570.521V751.85ZM591.476 751.85H592.476V750.85H591.476V751.85ZM591.476 759V760H592.476V759H591.476ZM561.666 759H560.666V760H561.666V759ZM561.666 720.5V719.5H560.666V720.5H561.666ZM590.761 720.5H591.761V719.5H590.761V720.5ZM590.761 727.65V728.65H591.761V727.65H590.761ZM570.521 727.65V726.65H569.521V727.65H570.521ZM569.861 737.01H588.396V735.01H569.861V737.01ZM587.396 736.01V742.94H589.396V736.01H587.396ZM588.396 741.94H569.861V743.94H588.396V741.94ZM570.861 742.94V736.01H568.861V742.94H570.861ZM570.521 752.85H591.476V750.85H570.521V752.85ZM590.476 751.85V759H592.476V751.85H590.476ZM591.476 758H561.666V760H591.476V758ZM562.666 759V720.5H560.666V759H562.666ZM561.666 721.5H590.761V719.5H561.666V721.5ZM589.761 720.5V727.65H591.761V720.5H589.761ZM590.761 726.65H570.521V728.65H590.761V726.65ZM569.521 727.65V751.85H571.521V727.65H569.521Z" fill="#E359EB"/>
<path d="M286.256 715.5H295.166V754H286.256V715.5ZM268.766 754H259.856V715.5H268.766V754ZM286.916 738.215H268.106V730.68H286.916V738.215ZM304.275 754V715.5H313.185V754H304.275ZM322.322 754V715.5H329.692L346.082 742.67H342.177L358.292 715.5H365.607L365.717 754H357.357L357.302 728.315H358.842L345.972 749.93H341.957L328.812 728.315H330.682V754H322.322ZM382.826 754V722.76H370.506V715.5H404.056V722.76H391.736V754H382.826ZM408.85 754V715.5H417.76V754H408.85ZM460.898 754.66C457.928 754.66 455.16 754.183 452.593 753.23C450.063 752.24 447.863 750.847 445.993 749.05C444.123 747.253 442.657 745.145 441.593 742.725C440.567 740.305 440.053 737.647 440.053 734.75C440.053 731.853 440.567 729.195 441.593 726.775C442.657 724.355 444.123 722.247 445.993 720.45C447.9 718.653 450.118 717.278 452.648 716.325C455.178 715.335 457.947 714.84 460.953 714.84C464.29 714.84 467.297 715.427 469.973 716.6C472.687 717.737 474.96 719.423 476.793 721.66L471.073 726.94C469.753 725.437 468.287 724.318 466.673 723.585C465.06 722.815 463.3 722.43 461.393 722.43C459.597 722.43 457.947 722.723 456.443 723.31C454.94 723.897 453.638 724.74 452.538 725.84C451.438 726.94 450.577 728.242 449.953 729.745C449.367 731.248 449.073 732.917 449.073 734.75C449.073 736.583 449.367 738.252 449.953 739.755C450.577 741.258 451.438 742.56 452.538 743.66C453.638 744.76 454.94 745.603 456.443 746.19C457.947 746.777 459.597 747.07 461.393 747.07C463.3 747.07 465.06 746.703 466.673 745.97C468.287 745.2 469.753 744.045 471.073 742.505L476.793 747.785C474.96 750.022 472.687 751.727 469.973 752.9C467.297 754.073 464.272 754.66 460.898 754.66ZM477.052 754L494.212 715.5H503.012L520.227 754H510.877L496.797 720.01H500.317L486.182 754H477.052ZM485.632 745.75L487.997 738.985H507.797L510.217 745.75H485.632ZM524.221 754V715.5H540.886C544.333 715.5 547.303 716.068 549.796 717.205C552.29 718.305 554.215 719.9 555.571 721.99C556.928 724.08 557.606 726.573 557.606 729.47C557.606 732.33 556.928 734.805 555.571 736.895C554.215 738.948 552.29 740.525 549.796 741.625C547.303 742.725 544.333 743.275 540.886 743.275H529.171L533.131 739.37V754H524.221ZM548.696 754L539.071 740.03H548.586L558.321 754H548.696ZM533.131 740.36L529.171 736.18H540.391C543.141 736.18 545.195 735.593 546.551 734.42C547.908 733.21 548.586 731.56 548.586 729.47C548.586 727.343 547.908 725.693 546.551 724.52C545.195 723.347 543.141 722.76 540.391 722.76H529.171L533.131 718.525V740.36ZM572.861 731.01H591.396V737.94H572.861V731.01ZM573.521 746.85H594.476V754H564.666V715.5H593.761V722.65H573.521V746.85Z" fill="white"/>
<path d="M55.988 87V61.8H66.896C69.152 61.8 71.096 62.172 72.728 62.916C74.36 63.636 75.62 64.68 76.508 66.048C77.396 67.416 77.84 69.048 77.84 70.944C77.84 72.816 77.396 74.436 76.508 75.804C75.62 77.148 74.36 78.18 72.728 78.9C71.096 79.62 69.152 79.98 66.896 79.98H59.228L61.82 77.424V87H55.988ZM72.008 87L65.708 77.856H71.936L78.308 87H72.008ZM61.82 78.072L59.228 75.336H66.572C68.372 75.336 69.716 74.952 70.604 74.184C71.492 73.392 71.936 72.312 71.936 70.944C71.936 69.552 71.492 68.472 70.604 67.704C69.716 66.936 68.372 66.552 66.572 66.552H59.228L61.82 63.78V78.072ZM87.8247 71.952H99.9567V76.488H87.8247V71.952ZM88.2567 82.32H101.973V87H82.4607V61.8H101.505V66.48H88.2567V82.32ZM106.613 87V61.8H112.445V82.248H125.081V87H106.613ZM125.168 87L136.4 61.8H142.16L153.428 87H147.308L138.092 64.752H140.396L131.144 87H125.168ZM130.784 81.6L132.332 77.172H145.292L146.876 81.6H130.784ZM159.997 87V66.552H151.933V61.8H173.893V66.552H165.829V87H159.997ZM177.031 87V61.8H182.863V87H177.031ZM201.083 87.432C199.091 87.432 197.243 87.108 195.539 86.46C193.859 85.812 192.395 84.9 191.147 83.724C189.923 82.548 188.963 81.168 188.267 79.584C187.595 78 187.259 76.272 187.259 74.4C187.259 72.528 187.595 70.8 188.267 69.216C188.963 67.632 189.935 66.252 191.183 65.076C192.431 63.9 193.895 62.988 195.575 62.34C197.255 61.692 199.079 61.368 201.047 61.368C203.039 61.368 204.863 61.692 206.519 62.34C208.199 62.988 209.651 63.9 210.875 65.076C212.123 66.252 213.095 67.632 213.791 69.216C214.487 70.776 214.835 72.504 214.835 74.4C214.835 76.272 214.487 78.012 213.791 79.62C213.095 81.204 212.123 82.584 210.875 83.76C209.651 84.912 208.199 85.812 206.519 86.46C204.863 87.108 203.051 87.432 201.083 87.432ZM201.047 82.464C202.175 82.464 203.207 82.272 204.143 81.888C205.103 81.504 205.943 80.952 206.663 80.232C207.383 79.512 207.935 78.66 208.319 77.676C208.727 76.692 208.931 75.6 208.931 74.4C208.931 73.2 208.727 72.108 208.319 71.124C207.935 70.14 207.383 69.288 206.663 68.568C205.967 67.848 205.139 67.296 204.179 66.912C203.219 66.528 202.175 66.336 201.047 66.336C199.919 66.336 198.875 66.528 197.915 66.912C196.979 67.296 196.151 67.848 195.431 68.568C194.711 69.288 194.147 70.14 193.739 71.124C193.355 72.108 193.163 73.2 193.163 74.4C193.163 75.576 193.355 76.668 193.739 77.676C194.147 78.66 194.699 79.512 195.395 80.232C196.115 80.952 196.955 81.504 197.915 81.888C198.875 82.272 199.919 82.464 201.047 82.464ZM219.218 87V61.8H224.042L238.91 79.944H236.57V61.8H242.33V87H237.542L222.638 68.856H224.978V87H219.218ZM61.352 115.952H73.484V120.488H61.352V115.952ZM61.784 126.32H75.5V131H55.988V105.8H75.032V110.48H61.784V126.32ZM77.0143 131L87.8503 116.06V120.308L77.4823 105.8H84.1063L91.2703 115.916L88.4983 115.952L95.5543 105.8H101.89L91.5943 120.056V115.88L102.502 131H95.7703L88.3543 120.308H91.0183L83.7103 131H77.0143ZM104.785 131V105.8H115.693C117.949 105.8 119.893 106.172 121.525 106.916C123.157 107.636 124.417 108.68 125.305 110.048C126.193 111.416 126.637 113.048 126.637 114.944C126.637 116.816 126.193 118.436 125.305 119.804C124.417 121.172 123.157 122.228 121.525 122.972C119.893 123.692 117.949 124.052 115.693 124.052H108.025L110.617 121.424V131H104.785ZM110.617 122.072L108.025 119.3H115.369C117.169 119.3 118.513 118.916 119.401 118.148C120.289 117.38 120.733 116.312 120.733 114.944C120.733 113.552 120.289 112.472 119.401 111.704C118.513 110.936 117.169 110.552 115.369 110.552H108.025L110.617 107.78V122.072ZM126.223 131L137.455 105.8H143.215L154.483 131H148.363L139.147 108.752H141.451L132.199 131H126.223ZM131.839 125.6L133.387 121.172H146.347L147.931 125.6H131.839ZM157.097 131V105.8H161.921L176.789 123.944H174.449V105.8H180.209V131H175.421L160.517 112.856H162.857V131H157.097ZM194.452 131.432C192.436 131.432 190.504 131.168 188.656 130.64C186.808 130.088 185.32 129.38 184.192 128.516L186.172 124.124C187.252 124.892 188.524 125.528 189.988 126.032C191.476 126.512 192.976 126.752 194.488 126.752C195.64 126.752 196.564 126.644 197.26 126.428C197.98 126.188 198.508 125.864 198.844 125.456C199.18 125.048 199.348 124.58 199.348 124.052C199.348 123.38 199.084 122.852 198.556 122.468C198.028 122.06 197.332 121.736 196.468 121.496C195.604 121.232 194.644 120.992 193.588 120.776C192.556 120.536 191.512 120.248 190.456 119.912C189.424 119.576 188.476 119.144 187.612 118.616C186.748 118.088 186.04 117.392 185.488 116.528C184.96 115.664 184.696 114.56 184.696 113.216C184.696 111.776 185.08 110.468 185.848 109.292C186.64 108.092 187.816 107.144 189.376 106.448C190.96 105.728 192.94 105.368 195.316 105.368C196.9 105.368 198.46 105.56 199.996 105.944C201.532 106.304 202.888 106.856 204.064 107.6L202.264 112.028C201.088 111.356 199.912 110.864 198.736 110.552C197.56 110.216 196.408 110.048 195.28 110.048C194.152 110.048 193.228 110.18 192.508 110.444C191.788 110.708 191.272 111.056 190.96 111.488C190.648 111.896 190.492 112.376 190.492 112.928C190.492 113.576 190.756 114.104 191.284 114.512C191.812 114.896 192.508 115.208 193.372 115.448C194.236 115.688 195.184 115.928 196.216 116.168C197.272 116.408 198.316 116.684 199.348 116.996C200.404 117.308 201.364 117.728 202.228 118.256C203.092 118.784 203.788 119.48 204.316 120.344C204.868 121.208 205.144 122.3 205.144 123.62C205.144 125.036 204.748 126.332 203.956 127.508C203.164 128.684 201.976 129.632 200.392 130.352C198.832 131.072 196.852 131.432 194.452 131.432ZM209.129 131V105.8H214.961V131H209.129ZM233.181 131.432C231.189 131.432 229.341 131.108 227.637 130.46C225.957 129.812 224.493 128.9 223.245 127.724C222.021 126.548 221.061 125.168 220.365 123.584C219.693 122 219.357 120.272 219.357 118.4C219.357 116.528 219.693 114.8 220.365 113.216C221.061 111.632 222.033 110.252 223.281 109.076C224.529 107.9 225.993 106.988 227.673 106.34C229.353 105.692 231.177 105.368 233.145 105.368C235.137 105.368 236.961 105.692 238.617 106.34C240.297 106.988 241.749 107.9 242.973 109.076C244.221 110.252 245.193 111.632 245.889 113.216C246.585 114.776 246.933 116.504 246.933 118.4C246.933 120.272 246.585 122.012 245.889 123.62C245.193 125.204 244.221 126.584 242.973 127.76C241.749 128.912 240.297 129.812 238.617 130.46C236.961 131.108 235.149 131.432 233.181 131.432ZM233.145 126.464C234.273 126.464 235.305 126.272 236.241 125.888C237.201 125.504 238.041 124.952 238.761 124.232C239.481 123.512 240.033 122.66 240.417 121.676C240.825 120.692 241.029 119.6 241.029 118.4C241.029 117.2 240.825 116.108 240.417 115.124C240.033 114.14 239.481 113.288 238.761 112.568C238.065 111.848 237.237 111.296 236.277 110.912C235.317 110.528 234.273 110.336 233.145 110.336C232.017 110.336 230.973 110.528 230.013 110.912C229.077 111.296 228.249 111.848 227.529 112.568C226.809 113.288 226.245 114.14 225.837 115.124C225.453 116.108 225.261 117.2 225.261 118.4C225.261 119.576 225.453 120.668 225.837 121.676C226.245 122.66 226.797 123.512 227.493 124.232C228.213 124.952 229.053 125.504 230.013 125.888C230.973 126.272 232.017 126.464 233.145 126.464ZM251.316 131V105.8H256.14L271.008 123.944H268.668V105.8H274.428V131H269.64L254.736 112.856H257.076V131H251.316Z" fill="white"/>
<defs>
<filter id="filter0_i_618_738" x="95.8774" y="436.142" width="607.82" height="260.915" filterUnits="userSpaceOnUse" color-interpolation-filters="sRGB">
<feFlood flood-opacity="0" result="BackgroundImageFix"/>
<feBlend mode="normal" in="SourceGraphic" in2="BackgroundImageFix" result="shape"/>
<feColorMatrix in="SourceAlpha" type="matrix" values="0 0 0 0 0 0 0 0 0 0 0 0 0 0 0 0 0 0 127 0" result="hardAlpha"/>
<feOffset dy="38.2024"/>
<feGaussianBlur stdDeviation="25.7132"/>
<feComposite in2="hardAlpha" operator="arithmetic" k2="-1" k3="1"/>
<feColorMatrix type="matrix" values="0 0 0 0 0 0 0 0 0 0 0 0 0 0 0 0 0 0 0.25 0"/>
<feBlend mode="normal" in2="shape" result="effect1_innerShadow_618_738"/>
</filter>
<filter id="filter1_ii_618_738" x="389.339" y="135.983" width="359.467" height="332.967" filterUnits="userSpaceOnUse" color-interpolation-filters="sRGB">
<feFlood flood-opacity="0" result="BackgroundImageFix"/>
<feBlend mode="normal" in="SourceGraphic" in2="BackgroundImageFix" result="shape"/>
<feColorMatrix in="SourceAlpha" type="matrix" values="0 0 0 0 0 0 0 0 0 0 0 0 0 0 0 0 0 0 127 0" result="hardAlpha"/>
<feOffset dx="38.2024" dy="20.5705"/>
<feGaussianBlur stdDeviation="22.7745"/>
<feComposite in2="hardAlpha" operator="arithmetic" k2="-1" k3="1"/>
<feColorMatrix type="matrix" values="0 0 0 0 0 0 0 0 0 0 0 0 0 0 0 0 0 0 0.1 0"/>
<feBlend mode="normal" in2="shape" result="effect1_innerShadow_618_738"/>
<feColorMatrix in="SourceAlpha" type="matrix" values="0 0 0 0 0 0 0 0 0 0 0 0 0 0 0 0 0 0 127 0" result="hardAlpha"/>
<feOffset dx="24.9785" dy="-22.0399"/>
<feGaussianBlur stdDeviation="23.5092"/>
<feComposite in2="hardAlpha" operator="arithmetic" k2="-1" k3="1"/>
<feColorMatrix type="matrix" values="0 0 0 0 0 0 0 0 0 0 0 0 0 0 0 0 0 0 0.07 0"/>
<feBlend mode="normal" in2="effect1_innerShadow_618_738" result="effect2_innerShadow_618_738"/>
</filter>
<filter id="filter2_ii_618_738" x="389.339" y="135.983" width="357.998" height="332.967" filterUnits="userSpaceOnUse" color-interpolation-filters="sRGB">
<feFlood flood-opacity="0" result="BackgroundImageFix"/>
<feBlend mode="normal" in="SourceGraphic" in2="BackgroundImageFix" result="shape"/>
<feColorMatrix in="SourceAlpha" type="matrix" values="0 0 0 0 0 0 0 0 0 0 0 0 0 0 0 0 0 0 127 0" result="hardAlpha"/>
<feOffset dx="38.2024" dy="20.5705"/>
<feGaussianBlur stdDeviation="17.6319"/>
<feComposite in2="hardAlpha" operator="arithmetic" k2="-1" k3="1"/>
<feColorMatrix type="matrix" values="0 0 0 0 0 0 0 0 0 0 0 0 0 0 0 0 0 0 0.1 0"/>
<feBlend mode="normal" in2="shape" result="effect1_innerShadow_618_738"/>
<feColorMatrix in="SourceAlpha" type="matrix" values="0 0 0 0 0 0 0 0 0 0 0 0 0 0 0 0 0 0 127 0" result="hardAlpha"/>
<feOffset dx="77.8742" dy="-22.0399"/>
<feGaussianBlur stdDeviation="18.3666"/>
<feComposite in2="hardAlpha" operator="arithmetic" k2="-1" k3="1"/>
<feColorMatrix type="matrix" values="0 0 0 0 0 0 0 0 0 0 0 0 0 0 0 0 0 0 0.07 0"/>
<feBlend mode="normal" in2="effect1_innerShadow_618_738" result="effect2_innerShadow_618_738"/>
</filter>
<linearGradient id="paint0_linear_618_738" x1="405.635" y1="140" x2="405.635" y2="158.022" gradientUnits="userSpaceOnUse">
<stop offset="0.432292" stop-color="#A49CD7"/>
<stop offset="1" stop-color="#F050FC"/>
</linearGradient>
<linearGradient id="paint1_linear_618_738" x1="372.709" y1="160.692" x2="372.709" y2="202.076" gradientUnits="userSpaceOnUse">
<stop offset="0.432292" stop-color="#A49CD7"/>
<stop offset="1" stop-color="#F050FC"/>
</linearGradient>
<linearGradient id="paint2_linear_618_738" x1="408.903" y1="448.657" x2="382.088" y2="681.687" gradientUnits="userSpaceOnUse">
<stop stop-color="#415CA9"/>
<stop offset="0.453125" stop-color="#A49CD7"/>
<stop offset="1" stop-color="#BDC6ED"/>
</linearGradient>
<linearGradient id="paint3_linear_618_738" x1="717.11" y1="344.918" x2="717.11" y2="390.307" gradientUnits="userSpaceOnUse">
<stop offset="0.432292" stop-color="#A49CD7"/>
<stop offset="1" stop-color="#F050FC"/>
</linearGradient>
<linearGradient id="paint4_linear_618_738" x1="549.971" y1="158.023" x2="553.32" y2="512.458" gradientUnits="userSpaceOnUse">
<stop stop-color="#415CA9"/>
<stop offset="0.0001" stop-color="#415CA9"/>
<stop offset="0.380208" stop-color="#A49CD7"/>
<stop offset="0.551828" stop-color="#A89EE1"/>
<stop offset="1" stop-color="#F050FC"/>
</linearGradient>
<linearGradient id="paint5_linear_618_738" x1="549.971" y1="158.023" x2="504.08" y2="502.301" gradientUnits="userSpaceOnUse">
<stop stop-color="#E954F9"/>
<stop offset="0.771619" stop-color="#523CB0"/>
</linearGradient>
<linearGradient id="paint6_linear_618_738" x1="734.696" y1="349.455" x2="535.695" y2="253.035" gradientUnits="userSpaceOnUse">
<stop offset="0.113179" stop-color="#CFEBFA"/>
<stop offset="1" stop-color="#CFEBFA" stop-opacity="0"/>
</linearGradient>
</defs>
</svg>
