<?xml version="1.0" encoding="utf-8"?>
<?xml-stylesheet href="css/style-animation.css" type="text/css"?>
<svg id="NewLogo2" class="Line" data-name="Layer 1" xmlns="http://www.w3.org/2000/svg" viewBox="0 0 1080 1080">
    <path d="M554.72 599.82V580.18L539.99 572.98L525.26 580.18V599.82L539.99 607.43L554.72 599.82Z" fill="white"/>
    <path d="M588.6 631.72L539.99 607.43V588.42L554.72 580.18L603.36 604.65L603.38 624.09L588.6 631.72Z" fill="white"/>
    <path d="M491.29 631.85L539.9 607.56V588.55L525.17 580.31L476.54 604.78L476.51 624.22L491.29 631.85Z" fill="white"/>
    <path d="M554.63 414.1L554.72 160.7L539.99 153.5L525.26 160.7L525.17 414.1L539.9 421.71L554.63 414.1Z" fill="white"/>
    <path d="M614.91 444.72L412.64 343.57L403.37 338.84L403.28 338.89L298.5 286L202 334.21L202.19 430.21L317.54 487.9V833.3L403.37 876.39L489.2 833.3V573.78L538.2 598.28L615.69 541.05L614.91 444.72ZM528.48 566.21L393.48 498.75L393.3 838.17L339.46 811.17L339.28 471.69L210.18 407.17L210.07 346.93L388.7 435.93L393.52 438.32L528.63 505.64L528.48 566.21Z" fill="white"/>
    <path d="M222.63 757.13L339.43 699.8V682.73L323.57 673.37L209.04 730.34L209.02 749.78L222.63 757.13Z" fill="white"/>
    <path d="M525.26 141.19L180.6 314.62C180.517 314.66 180.446 314.722 180.397 314.8C180.347 314.877 180.321 314.968 180.32 315.06V334.39L195.05 342L540 168.44V147.59L525.26 141.19Z" fill="white"/>
    <path d="M761.39 404.14L885.49 341.94L885.5 322.86L870.78 314.74L746.71 376.83V396.47L761.39 404.14Z" fill="white"/>
    <path d="M540.21 134.1L885.49 307.32V326.8L870.76 334.16L525.26 160.83V141.19L539.77 134.1C539.838 134.066 539.914 134.048 539.99 134.048C540.066 134.048 540.142 134.066 540.21 134.1Z" fill="white"/>
    <path d="M761.44 381.94L675.61 338.84L589.78 381.94V832.66L675.61 876.39L761.44 832.66V381.94ZM739.21 812.14L685.38 839.14L685.16 436.91L739.43 410L739.21 812.14Z" fill="white"/>
    <path d="M870.17 762.96L739.28 698.87V679.23L754.01 672.03L884.9 736.12V755.64L870.17 762.96Z" fill="white"/>
    <path d="M870.76 314.5L870.17 763L884.9 770.61L899.37 763.12C899.451 763.079 899.52 763.016 899.568 762.938C899.615 762.861 899.64 762.771 899.64 762.68L900.22 314.85C900.219 314.757 900.192 314.665 900.143 314.586C900.094 314.506 900.023 314.442 899.94 314.4L885.49 307.4L870.76 314.5Z" fill="white"/>
    <path d="M539.92 945.89L884.92 770.57V750.09L870.19 743.32L526.1 919.21L526.36 939.21L539.47 945.87C539.538 945.908 539.615 945.929 539.693 945.932C539.771 945.936 539.848 945.921 539.92 945.89V945.89Z" fill="white"/>
    <path d="M209.81 334.39L209.68 763.13L193.81 770.42L180.04 763.42C179.957 763.38 179.886 763.318 179.837 763.24C179.787 763.163 179.761 763.072 179.76 762.98L180.32 334.41L195.08 326.52L209.81 334.39Z" fill="white"/>
    <path d="M539.72 946.01L193.85 770.42V753.35L209.71 743.99L553.3 919.22L553.05 939.23L539.72 946.01Z" fill="white"/>
</svg>