<?xml version="1.0" encoding="utf-8"?>
<?xml-stylesheet href="css/style-animation.css" type="text/css"?>

<svg viewBox="0 0 1918 1103" fill="none" xmlns="http://www.w3.org/2000/svg">
    <g id="Frame 2">
        <g id="layerofog1">
            <path id="Vector"
                d="M232.195 414.984C218.276 414.984 206.932 410.366 198.162 401.146C189.393 391.91 185 379.568 185 364.105C185 349.317 189.184 337.104 197.583 327.466C205.966 317.827 217.6 313 232.484 313C246.258 313 257.473 317.538 266.162 326.629C274.835 335.72 279.18 347.837 279.18 363.01C279.18 378.715 274.803 391.298 266.066 400.776C257.296 410.253 246.017 414.984 232.195 414.984ZM232.05 392.521C237.167 392.521 240.851 390.284 243.104 385.811C245.357 381.338 246.467 373.164 246.467 361.273C246.467 344.071 241.849 335.463 232.629 335.463C222.669 335.463 217.697 345.278 217.697 364.893C217.697 383.317 222.476 392.521 232.05 392.521Z"
                stroke="#134737" stroke-width="5" stroke-miterlimit="10" />
            <path id="Vector_2"
                d="M376.578 413.471H351.863L324.766 369.752C321.29 364.153 317.782 357.33 314.242 349.317C315.835 355.689 316.64 361.112 316.64 365.553V413.471H291.989V314.529H320.695L343.753 350.765C348.339 357.958 351.83 364.298 354.196 369.752C352.651 361.305 351.879 352.648 351.879 343.798V314.529H376.594V413.471H376.578Z"
                stroke="#134737" stroke-width="5" stroke-miterlimit="10" />
            <path id="Vector_3"
                d="M468.28 389.834V413.471H393.828V314.529H468.28V337.362H423.628V351.715H459.72V373.679H423.628V389.85H468.28V389.834Z"
                stroke="#134737" stroke-width="5" stroke-miterlimit="10" />
            <path id="Vector_4"
                d="M579.258 376.43H546.996V413.471H517.437V314.529H588.977V338.086H547.012V354.177H579.274V376.43H579.258Z"
                stroke="#134737" stroke-width="5" stroke-miterlimit="10" />
            <path id="Vector_5"
                d="M648.239 413.471L642.64 393.969H616.138L610.201 413.471H585.549L616.09 314.529H648.207L679.246 413.471H648.239ZM621.319 372.375H637.33L629.316 343.669L621.319 372.375Z"
                stroke="#134737" stroke-width="5" stroke-miterlimit="10" />
            <path id="Vector_6"
                d="M795.921 314.529V413.471H767.73V342.72L749.419 413.471H730.142L711.106 342.72V413.471H688.338V314.529H728.018L742.371 367.081L756.064 314.529H795.921V314.529Z"
                stroke="#134737" stroke-width="5" stroke-miterlimit="10" />
            <path id="Vector_7" d="M843.551 314.529V413.471H813.188V314.529H843.551Z" stroke="#134737" stroke-width="5"
                stroke-miterlimit="10" />
            <path id="Vector_8" d="M930.184 389.19V413.471H860.816V314.529H891.196V389.19H930.184Z" stroke="#134737"
                stroke-width="5" stroke-miterlimit="10" />
            <path id="Vector_9"
                d="M1011.02 314.529L980.05 371.571V413.471H950.555V371.571L917.263 314.529H950.491L967.837 347.145L984.459 314.529H1011.02V314.529Z"
                stroke="#134737" stroke-width="5" stroke-miterlimit="10" />
            <path id="Vector_10"
                d="M1096.53 414.984C1082.61 414.984 1071.27 410.366 1062.5 401.146C1053.73 391.926 1049.34 379.568 1049.34 364.105C1049.34 349.317 1053.54 337.104 1061.92 327.466C1070.3 317.827 1081.94 313 1096.82 313C1110.6 313 1121.81 317.538 1130.48 326.629C1139.16 335.72 1143.5 347.837 1143.5 363.01C1143.5 378.715 1139.12 391.298 1130.39 400.776C1121.65 410.253 1110.35 414.984 1096.53 414.984ZM1096.39 392.521C1101.5 392.521 1105.19 390.284 1107.44 385.811C1109.69 381.338 1110.8 373.164 1110.8 361.273C1110.8 344.071 1106.19 335.463 1096.97 335.463C1087.01 335.463 1082.03 345.278 1082.03 364.893C1082.03 383.317 1086.83 392.521 1096.39 392.521Z"
                stroke="#134737" stroke-width="5" stroke-miterlimit="10" />
            <path id="Vector_11"
                d="M1240.93 413.471H1216.22L1189.12 369.752C1185.64 364.153 1182.14 357.33 1178.6 349.317C1180.19 355.689 1180.99 361.112 1180.99 365.553V413.471H1156.34V314.529H1185.05L1208.11 350.765C1212.69 357.958 1216.18 364.298 1218.55 369.752C1217 361.305 1216.23 352.648 1216.23 343.798V314.529H1240.95V413.471H1240.93Z"
                stroke="#134737" stroke-width="5" stroke-miterlimit="10" />
            <path id="Eofog1"
                d="M1332.63 389.834V413.471H1258.2V314.529H1332.63V337.362H1287.98V351.715H1324.07V373.679H1287.98V389.85H1332.63V389.834Z"
                stroke="#134737" stroke-width="5" stroke-miterlimit="10" />
            <path id="Gofog1"
                d="M1467.25 358.022V413.471H1452.4C1451.19 409.368 1449.85 405.909 1448.41 403.109C1442.28 411.042 1433.18 415 1421.15 415C1408.39 415 1397.9 410.543 1389.69 401.628C1381.47 392.714 1377.36 380.646 1377.36 365.424C1377.36 350.637 1381.34 338.198 1389.29 328.125C1397.24 318.052 1409.06 313.016 1424.77 313.016C1436.56 313.016 1446.06 316.009 1453.25 322.011C1460.44 327.997 1465.11 336.509 1467.23 347.531L1437.8 350.427C1436.35 340.129 1431.83 334.996 1424.25 334.996C1414.29 334.996 1409.32 344.474 1409.32 363.413C1409.32 374.869 1410.91 382.416 1414.1 386.069C1417.29 389.721 1421.15 391.539 1425.7 391.539C1429.37 391.539 1432.51 390.429 1435.08 388.209C1437.67 385.988 1438.99 382.947 1439.04 379.069H1422.66V358.022H1467.25Z"
                stroke="#134737" stroke-width="5" stroke-miterlimit="10" />
            <path id="Oofog1"
                d="M1526.03 414.984C1512.11 414.984 1500.77 410.366 1492 401.146C1483.23 391.926 1478.83 379.568 1478.83 364.105C1478.83 349.317 1483.02 337.104 1491.42 327.466C1499.8 317.827 1511.43 313 1526.32 313C1540.09 313 1551.31 317.538 1560 326.629C1568.67 335.72 1573.01 347.837 1573.01 363.01C1573.01 378.715 1568.64 391.298 1559.9 400.776C1551.13 410.253 1539.85 414.984 1526.03 414.984ZM1525.88 392.521C1531 392.521 1534.69 390.284 1536.94 385.811C1539.19 381.338 1540.3 373.164 1540.3 361.273C1540.3 344.071 1535.68 335.463 1526.46 335.463C1516.5 335.463 1511.53 345.278 1511.53 364.893C1511.53 383.317 1516.31 392.521 1525.88 392.521Z"
                stroke="#134737" stroke-width="5" stroke-miterlimit="10" />
            <path id="Aofog1"
                d="M1637.43 413.471L1631.83 393.969H1605.32L1599.39 413.471H1574.74L1605.28 314.529H1637.39L1668.43 413.471H1637.43ZM1610.49 372.375H1626.5L1618.5 343.669L1610.49 372.375Z"
                stroke="#134737" stroke-width="5" stroke-miterlimit="10" />
            <path id="Lofog1" d="M1746.91 389.19V413.471H1677.54V314.529H1707.92V389.19H1746.91Z" stroke="#134737"
                stroke-width="5" stroke-miterlimit="10" />
        </g>
        <g id="layerofog2">
            <path id="Vector_12"
                d="M232.195 557.984C218.276 557.984 206.932 553.366 198.162 544.146C189.393 534.91 185 522.568 185 507.105C185 492.317 189.184 480.104 197.583 470.466C205.966 460.827 217.6 456 232.484 456C246.258 456 257.473 460.538 266.162 469.629C274.835 478.72 279.18 490.837 279.18 506.01C279.18 521.715 274.803 534.298 266.066 543.776C257.296 553.253 246.017 557.984 232.195 557.984ZM232.05 535.521C237.167 535.521 240.851 533.284 243.104 528.811C245.357 524.338 246.467 516.164 246.467 504.273C246.467 487.071 241.849 478.463 232.629 478.463C222.669 478.463 217.697 488.278 217.697 507.893C217.697 526.317 222.476 535.521 232.05 535.521Z"
                stroke="#134737" stroke-width="5" stroke-miterlimit="10" />
            <path id="Vector_13"
                d="M376.578 556.471H351.863L324.766 512.752C321.29 507.153 317.782 500.33 314.242 492.317C315.835 498.689 316.64 504.112 316.64 508.553V556.471H291.989V457.529H320.695L343.753 493.765C348.339 500.958 351.83 507.298 354.196 512.752C352.651 504.305 351.879 495.648 351.879 486.798V457.529H376.594V556.471H376.578Z"
                stroke="#134737" stroke-width="5" stroke-miterlimit="10" />
            <path id="Vector_14"
                d="M468.28 532.834V556.471H393.828V457.529H468.28V480.362H423.628V494.715H459.72V516.679H423.628V532.85H468.28V532.834Z"
                stroke="#134737" stroke-width="5" stroke-miterlimit="10" />
            <path id="Vector_15"
                d="M579.258 519.43H546.996V556.471H517.437V457.529H588.977V481.086H547.012V497.177H579.274V519.43H579.258Z"
                stroke="#134737" stroke-width="5" stroke-miterlimit="10" />
            <path id="Vector_16"
                d="M648.239 556.471L642.64 536.969H616.138L610.201 556.471H585.549L616.09 457.529H648.207L679.246 556.471H648.239ZM621.319 515.375H637.33L629.316 486.669L621.319 515.375Z"
                stroke="#134737" stroke-width="5" stroke-miterlimit="10" />
            <path id="Vector_17"
                d="M795.921 457.529V556.471H767.73V485.72L749.419 556.471H730.142L711.106 485.72V556.471H688.338V457.529H728.018L742.371 510.081L756.064 457.529H795.921V457.529Z"
                stroke="#134737" stroke-width="5" stroke-miterlimit="10" />
            <path id="Vector_18" d="M843.551 457.529V556.471H813.188V457.529H843.551Z" stroke="#134737" stroke-width="5"
                stroke-miterlimit="10" />
            <path id="Vector_19" d="M930.184 532.19V556.471H860.816V457.529H891.196V532.19H930.184Z" stroke="#134737"
                stroke-width="5" stroke-miterlimit="10" />
            <path id="Vector_20"
                d="M1011.02 457.529L980.05 514.571V556.471H950.555V514.571L917.263 457.529H950.491L967.837 490.145L984.459 457.529H1011.02V457.529Z"
                stroke="#134737" stroke-width="5" stroke-miterlimit="10" />
            <path id="Vector_21"
                d="M1096.53 557.984C1082.61 557.984 1071.27 553.366 1062.5 544.146C1053.73 534.926 1049.34 522.568 1049.34 507.105C1049.34 492.317 1053.54 480.104 1061.92 470.466C1070.3 460.827 1081.94 456 1096.82 456C1110.6 456 1121.81 460.538 1130.48 469.629C1139.16 478.72 1143.5 490.837 1143.5 506.01C1143.5 521.715 1139.12 534.298 1130.39 543.776C1121.65 553.253 1110.35 557.984 1096.53 557.984ZM1096.39 535.521C1101.5 535.521 1105.19 533.284 1107.44 528.811C1109.69 524.338 1110.8 516.164 1110.8 504.273C1110.8 487.071 1106.19 478.463 1096.97 478.463C1087.01 478.463 1082.03 488.278 1082.03 507.893C1082.03 526.317 1086.83 535.521 1096.39 535.521Z"
                stroke="#134737" stroke-width="5" stroke-miterlimit="10" />
            <path id="Vector_22"
                d="M1240.93 556.471H1216.22L1189.12 512.752C1185.64 507.153 1182.14 500.33 1178.6 492.317C1180.19 498.689 1180.99 504.112 1180.99 508.553V556.471H1156.34V457.529H1185.05L1208.11 493.765C1212.69 500.958 1216.18 507.298 1218.55 512.752C1217 504.305 1216.23 495.648 1216.23 486.798V457.529H1240.95V556.471H1240.93Z"
                stroke="#134737" stroke-width="5" stroke-miterlimit="10" />
            <path id="Vector_23"
                d="M1332.63 532.834V556.471H1258.2V457.529H1332.63V480.362H1287.98V494.715H1324.07V516.679H1287.98V532.85H1332.63V532.834Z"
                stroke="#134737" stroke-width="5" stroke-miterlimit="10" />
            <path id="Vector_24"
                d="M1467.25 501.022V556.471H1452.4C1451.19 552.368 1449.85 548.909 1448.41 546.109C1442.28 554.042 1433.18 558 1421.15 558C1408.39 558 1397.9 553.543 1389.69 544.628C1381.47 535.714 1377.36 523.646 1377.36 508.424C1377.36 493.637 1381.34 481.198 1389.29 471.125C1397.24 461.052 1409.06 456.016 1424.77 456.016C1436.56 456.016 1446.06 459.009 1453.25 465.011C1460.44 470.997 1465.11 479.509 1467.23 490.531L1437.8 493.427C1436.35 483.129 1431.83 477.996 1424.25 477.996C1414.29 477.996 1409.32 487.474 1409.32 506.413C1409.32 517.869 1410.91 525.416 1414.1 529.069C1417.29 532.721 1421.15 534.539 1425.7 534.539C1429.37 534.539 1432.51 533.429 1435.08 531.209C1437.67 528.988 1438.99 525.947 1439.04 522.069H1422.66V501.022H1467.25Z"
                stroke="#134737" stroke-width="5" stroke-miterlimit="10" />
            <path id="Vector_25"
                d="M1526.03 557.984C1512.11 557.984 1500.77 553.366 1492 544.146C1483.23 534.926 1478.83 522.568 1478.83 507.105C1478.83 492.317 1483.02 480.104 1491.42 470.466C1499.8 460.827 1511.43 456 1526.32 456C1540.09 456 1551.31 460.538 1560 469.629C1568.67 478.72 1573.01 490.837 1573.01 506.01C1573.01 521.715 1568.64 534.298 1559.9 543.776C1551.13 553.253 1539.85 557.984 1526.03 557.984ZM1525.88 535.521C1531 535.521 1534.69 533.284 1536.94 528.811C1539.19 524.338 1540.3 516.164 1540.3 504.273C1540.3 487.071 1535.68 478.463 1526.46 478.463C1516.5 478.463 1511.53 488.278 1511.53 507.893C1511.53 526.317 1516.31 535.521 1525.88 535.521Z"
                stroke="#134737" stroke-width="5" stroke-miterlimit="10" />
            <path id="Vector_26"
                d="M1637.43 556.471L1631.83 536.969H1605.32L1599.39 556.471H1574.74L1605.28 457.529H1637.39L1668.43 556.471H1637.43ZM1610.49 515.375H1626.5L1618.5 486.669L1610.49 515.375Z"
                stroke="#134737" stroke-width="5" stroke-miterlimit="10" />
            <path id="Vector_27" d="M1746.91 532.19V556.471H1677.54V457.529H1707.92V532.19H1746.91Z" stroke="#134737"
                stroke-width="5" stroke-miterlimit="10" />
        </g>
        <g id="layerofog3">
            <path id="Vector_28"
                d="M232.195 709.984C218.276 709.984 206.932 705.366 198.162 696.146C189.393 686.91 185 674.568 185 659.105C185 644.317 189.184 632.104 197.583 622.466C205.966 612.827 217.6 608 232.484 608C246.258 608 257.473 612.538 266.162 621.629C274.835 630.72 279.18 642.837 279.18 658.01C279.18 673.715 274.803 686.298 266.066 695.776C257.296 705.253 246.017 709.984 232.195 709.984ZM232.05 687.521C237.167 687.521 240.851 685.284 243.104 680.811C245.357 676.338 246.467 668.164 246.467 656.273C246.467 639.071 241.849 630.463 232.629 630.463C222.669 630.463 217.697 640.278 217.697 659.893C217.697 678.317 222.476 687.521 232.05 687.521Z"
                stroke="#134737" stroke-width="5" stroke-miterlimit="10" />
            <path id="Vector_29"
                d="M376.578 708.471H351.863L324.766 664.752C321.29 659.153 317.782 652.33 314.242 644.317C315.835 650.689 316.64 656.112 316.64 660.553V708.471H291.989V609.529H320.695L343.753 645.765C348.339 652.958 351.83 659.298 354.196 664.752C352.651 656.305 351.879 647.648 351.879 638.798V609.529H376.594V708.471H376.578Z"
                stroke="#134737" stroke-width="5" stroke-miterlimit="10" />
            <path id="Vector_30"
                d="M468.28 684.834V708.471H393.828V609.529H468.28V632.362H423.628V646.715H459.72V668.679H423.628V684.85H468.28V684.834Z"
                stroke="#134737" stroke-width="5" stroke-miterlimit="10" />
            <path id="Vector_31"
                d="M579.258 671.43H546.996V708.471H517.437V609.529H588.977V633.086H547.012V649.177H579.274V671.43H579.258Z"
                stroke="#134737" stroke-width="5" stroke-miterlimit="10" />
            <path id="Vector_32"
                d="M648.239 708.471L642.64 688.969H616.138L610.201 708.471H585.549L616.09 609.529H648.207L679.246 708.471H648.239ZM621.319 667.375H637.33L629.316 638.669L621.319 667.375Z"
                stroke="#134737" stroke-width="5" stroke-miterlimit="10" />
            <path id="Vector_33"
                d="M795.921 609.529V708.471H767.73V637.72L749.419 708.471H730.142L711.106 637.72V708.471H688.338V609.529H728.018L742.371 662.081L756.064 609.529H795.921V609.529Z"
                stroke="#134737" stroke-width="5" stroke-miterlimit="10" />
            <path id="Vector_34" d="M843.551 609.529V708.471H813.188V609.529H843.551Z" stroke="#134737" stroke-width="5"
                stroke-miterlimit="10" />
            <path id="Vector_35" d="M930.184 684.19V708.471H860.816V609.529H891.196V684.19H930.184Z" stroke="#134737"
                stroke-width="5" stroke-miterlimit="10" />
            <path id="Vector_36"
                d="M1011.02 609.529L980.05 666.571V708.471H950.555V666.571L917.263 609.529H950.491L967.837 642.145L984.459 609.529H1011.02V609.529Z"
                stroke="#134737" stroke-width="5" stroke-miterlimit="10" />
            <path id="Vector_37"
                d="M1096.53 709.984C1082.61 709.984 1071.27 705.366 1062.5 696.146C1053.73 686.926 1049.34 674.568 1049.34 659.105C1049.34 644.317 1053.54 632.104 1061.92 622.466C1070.3 612.827 1081.94 608 1096.82 608C1110.6 608 1121.81 612.538 1130.48 621.629C1139.16 630.72 1143.5 642.837 1143.5 658.01C1143.5 673.715 1139.12 686.298 1130.39 695.776C1121.65 705.253 1110.35 709.984 1096.53 709.984ZM1096.39 687.521C1101.5 687.521 1105.19 685.284 1107.44 680.811C1109.69 676.338 1110.8 668.164 1110.8 656.273C1110.8 639.071 1106.19 630.463 1096.97 630.463C1087.01 630.463 1082.03 640.278 1082.03 659.893C1082.03 678.317 1086.83 687.521 1096.39 687.521Z"
                stroke="#134737" stroke-width="5" stroke-miterlimit="10" />
            <path id="Vector_38"
                d="M1240.93 708.471H1216.22L1189.12 664.752C1185.64 659.153 1182.14 652.33 1178.6 644.317C1180.19 650.689 1180.99 656.112 1180.99 660.553V708.471H1156.34V609.529H1185.05L1208.11 645.765C1212.69 652.958 1216.18 659.298 1218.55 664.752C1217 656.305 1216.23 647.648 1216.23 638.798V609.529H1240.95V708.471H1240.93Z"
                stroke="#134737" stroke-width="5" stroke-miterlimit="10" />
            <path id="Vector_39"
                d="M1332.63 684.834V708.471H1258.2V609.529H1332.63V632.362H1287.98V646.715H1324.07V668.679H1287.98V684.85H1332.63V684.834Z"
                stroke="#134737" stroke-width="5" stroke-miterlimit="10" />
            <path id="Vector_40"
                d="M1467.25 653.022V708.471H1452.4C1451.19 704.368 1449.85 700.909 1448.41 698.109C1442.28 706.042 1433.18 710 1421.15 710C1408.39 710 1397.9 705.543 1389.69 696.628C1381.47 687.714 1377.36 675.646 1377.36 660.424C1377.36 645.637 1381.34 633.198 1389.29 623.125C1397.24 613.052 1409.06 608.016 1424.77 608.016C1436.56 608.016 1446.06 611.009 1453.25 617.011C1460.44 622.997 1465.11 631.509 1467.23 642.531L1437.8 645.427C1436.35 635.129 1431.83 629.996 1424.25 629.996C1414.29 629.996 1409.32 639.474 1409.32 658.413C1409.32 669.869 1410.91 677.416 1414.1 681.069C1417.29 684.721 1421.15 686.539 1425.7 686.539C1429.37 686.539 1432.51 685.429 1435.08 683.209C1437.67 680.988 1438.99 677.947 1439.04 674.069H1422.66V653.022H1467.25Z"
                stroke="#134737" stroke-width="5" stroke-miterlimit="10" />
            <path id="Vector_41"
                d="M1526.03 709.984C1512.11 709.984 1500.77 705.366 1492 696.146C1483.23 686.926 1478.83 674.568 1478.83 659.105C1478.83 644.317 1483.02 632.104 1491.42 622.466C1499.8 612.827 1511.43 608 1526.32 608C1540.09 608 1551.31 612.538 1560 621.629C1568.67 630.72 1573.01 642.837 1573.01 658.01C1573.01 673.715 1568.64 686.298 1559.9 695.776C1551.13 705.253 1539.85 709.984 1526.03 709.984ZM1525.88 687.521C1531 687.521 1534.69 685.284 1536.94 680.811C1539.19 676.338 1540.3 668.164 1540.3 656.273C1540.3 639.071 1535.68 630.463 1526.46 630.463C1516.5 630.463 1511.53 640.278 1511.53 659.893C1511.53 678.317 1516.31 687.521 1525.88 687.521Z"
                stroke="#134737" stroke-width="5" stroke-miterlimit="10" />
            <path id="Vector_42"
                d="M1637.43 708.471L1631.83 688.969H1605.32L1599.39 708.471H1574.74L1605.28 609.529H1637.39L1668.43 708.471H1637.43ZM1610.49 667.375H1626.5L1618.5 638.669L1610.49 667.375Z"
                stroke="#134737" stroke-width="5" stroke-miterlimit="10" />
            <path id="Vector_43" d="M1746.91 684.19V708.471H1677.54V609.529H1707.92V684.19H1746.91Z" stroke="#134737"
                stroke-width="5" stroke-miterlimit="10" />
        </g>
        <g id="layerofog4">
            <path id="Vector_44"
                d="M232.195 852.984C218.276 852.984 206.932 848.366 198.162 839.146C189.393 829.91 185 817.568 185 802.105C185 787.317 189.184 775.104 197.583 765.466C205.966 755.827 217.6 751 232.484 751C246.258 751 257.473 755.538 266.162 764.629C274.835 773.72 279.18 785.837 279.18 801.01C279.18 816.715 274.803 829.298 266.066 838.776C257.296 848.253 246.017 852.984 232.195 852.984ZM232.05 830.521C237.167 830.521 240.851 828.284 243.104 823.811C245.357 819.338 246.467 811.164 246.467 799.273C246.467 782.071 241.849 773.463 232.629 773.463C222.669 773.463 217.697 783.278 217.697 802.893C217.697 821.317 222.476 830.521 232.05 830.521Z"
                stroke="#134737" stroke-width="5" stroke-miterlimit="10" />
            <path id="Vector_45"
                d="M376.578 851.471H351.863L324.766 807.753C321.29 802.153 317.782 795.33 314.242 787.317C315.835 793.689 316.64 799.112 316.64 803.553V851.471H291.989V752.529H320.695L343.753 788.765C348.339 795.958 351.83 802.298 354.196 807.753C352.651 799.305 351.879 790.648 351.879 781.798V752.529H376.594V851.471H376.578Z"
                stroke="#134737" stroke-width="5" stroke-miterlimit="10" />
            <path id="Vector_46"
                d="M468.28 827.834V851.471H393.828V752.529H468.28V775.362H423.628V789.715H459.72V811.679H423.628V827.85H468.28V827.834Z"
                stroke="#134737" stroke-width="5" stroke-miterlimit="10" />
            <path id="Vector_47"
                d="M579.258 814.43H546.996V851.471H517.437V752.529H588.977V776.086H547.012V792.177H579.274V814.43H579.258Z"
                stroke="#134737" stroke-width="5" stroke-miterlimit="10" />
            <path id="Vector_48"
                d="M648.239 851.471L642.64 831.969H616.138L610.201 851.471H585.549L616.09 752.529H648.207L679.246 851.471H648.239ZM621.319 810.375H637.33L629.316 781.669L621.319 810.375Z"
                stroke="#134737" stroke-width="5" stroke-miterlimit="10" />
            <path id="Vector_49"
                d="M795.921 752.529V851.471H767.73V780.72L749.419 851.471H730.142L711.106 780.72V851.471H688.338V752.529H728.018L742.371 805.081L756.064 752.529H795.921V752.529Z"
                stroke="#134737" stroke-width="5" stroke-miterlimit="10" />
            <path id="Vector_50" d="M843.551 752.529V851.471H813.188V752.529H843.551Z" stroke="#134737" stroke-width="5"
                stroke-miterlimit="10" />
            <path id="Vector_51" d="M930.184 827.19V851.471H860.816V752.529H891.196V827.19H930.184Z" stroke="#134737"
                stroke-width="5" stroke-miterlimit="10" />
            <path id="Vector_52"
                d="M1011.02 752.529L980.05 809.571V851.471H950.555V809.571L917.263 752.529H950.491L967.837 785.145L984.459 752.529H1011.02V752.529Z"
                stroke="#134737" stroke-width="5" stroke-miterlimit="10" />
            <path id="Vector_53"
                d="M1096.53 852.984C1082.61 852.984 1071.27 848.366 1062.5 839.146C1053.73 829.926 1049.34 817.568 1049.34 802.105C1049.34 787.317 1053.54 775.104 1061.92 765.466C1070.3 755.827 1081.94 751 1096.82 751C1110.6 751 1121.81 755.538 1130.48 764.629C1139.16 773.72 1143.5 785.837 1143.5 801.01C1143.5 816.715 1139.12 829.298 1130.39 838.776C1121.65 848.253 1110.35 852.984 1096.53 852.984ZM1096.39 830.521C1101.5 830.521 1105.19 828.284 1107.44 823.811C1109.69 819.338 1110.8 811.164 1110.8 799.273C1110.8 782.071 1106.19 773.463 1096.97 773.463C1087.01 773.463 1082.03 783.278 1082.03 802.893C1082.03 821.317 1086.83 830.521 1096.39 830.521Z"
                stroke="#134737" stroke-width="5" stroke-miterlimit="10" />
            <path id="Vector_54"
                d="M1240.93 851.471H1216.22L1189.12 807.753C1185.64 802.153 1182.14 795.33 1178.6 787.317C1180.19 793.689 1180.99 799.112 1180.99 803.553V851.471H1156.34V752.529H1185.05L1208.11 788.765C1212.69 795.958 1216.18 802.298 1218.55 807.753C1217 799.305 1216.23 790.648 1216.23 781.798V752.529H1240.95V851.471H1240.93Z"
                stroke="#134737" stroke-width="5" stroke-miterlimit="10" />
            <path id="Vector_55"
                d="M1332.63 827.834V851.471H1258.2V752.529H1332.63V775.362H1287.98V789.715H1324.07V811.679H1287.98V827.85H1332.63V827.834Z"
                stroke="#134737" stroke-width="5" stroke-miterlimit="10" />
            <path id="Vector_56"
                d="M1467.25 796.022V851.471H1452.4C1451.19 847.368 1449.85 843.909 1448.41 841.109C1442.28 849.042 1433.18 853 1421.15 853C1408.39 853 1397.9 848.543 1389.69 839.629C1381.47 830.714 1377.36 818.646 1377.36 803.424C1377.36 788.637 1381.34 776.198 1389.29 766.125C1397.24 756.053 1409.06 751.016 1424.77 751.016C1436.56 751.016 1446.06 754.009 1453.25 760.011C1460.44 765.997 1465.11 774.509 1467.23 785.531L1437.8 788.427C1436.35 778.129 1431.83 772.996 1424.25 772.996C1414.29 772.996 1409.32 782.474 1409.32 801.413C1409.32 812.869 1410.91 820.416 1414.1 824.069C1417.29 827.721 1421.15 829.54 1425.7 829.54C1429.37 829.54 1432.51 828.429 1435.08 826.209C1437.67 823.988 1438.99 820.947 1439.04 817.069H1422.66V796.022H1467.25Z"
                stroke="#134737" stroke-width="5" stroke-miterlimit="10" />
            <path id="Vector_57"
                d="M1526.03 852.984C1512.11 852.984 1500.77 848.366 1492 839.146C1483.23 829.926 1478.83 817.568 1478.83 802.105C1478.83 787.317 1483.02 775.104 1491.42 765.466C1499.8 755.827 1511.43 751 1526.32 751C1540.09 751 1551.31 755.538 1560 764.629C1568.67 773.72 1573.01 785.837 1573.01 801.01C1573.01 816.715 1568.64 829.298 1559.9 838.776C1551.13 848.253 1539.85 852.984 1526.03 852.984ZM1525.88 830.521C1531 830.521 1534.69 828.284 1536.94 823.811C1539.19 819.338 1540.3 811.164 1540.3 799.273C1540.3 782.071 1535.68 773.463 1526.46 773.463C1516.5 773.463 1511.53 783.278 1511.53 802.893C1511.53 821.317 1516.31 830.521 1525.88 830.521Z"
                stroke="#134737" stroke-width="5" stroke-miterlimit="10" />
            <path id="Vector_58"
                d="M1637.43 851.471L1631.83 831.969H1605.32L1599.39 851.471H1574.74L1605.28 752.529H1637.39L1668.43 851.471H1637.43ZM1610.49 810.375H1626.5L1618.5 781.669L1610.49 810.375Z"
                stroke="#134737" stroke-width="5" stroke-miterlimit="10" />
            <path id="Vector_59" d="M1746.91 827.19V851.471H1677.54V752.529H1707.92V827.19H1746.91Z" stroke="#134737"
                stroke-width="5" stroke-miterlimit="10" />
        </g>
        <g id="ONE FAMILY ONE GOAL">
            <path
                d="M279.3 642.978C266.458 642.978 256.448 637.997 249.271 628.036C242.093 618.026 238.504 605.771 238.504 591.269C238.504 576.132 242.264 563.632 249.783 553.769C257.303 543.905 267.264 538.974 279.666 538.974C292.02 538.974 301.932 543.832 309.402 553.549C316.873 563.217 320.608 575.424 320.608 590.17C320.608 604.33 316.971 616.684 309.695 627.23C302.469 637.729 292.337 642.978 279.3 642.978ZM279.593 632.797C288.333 632.797 295.169 628.817 300.101 620.858C305.032 612.899 307.498 602.646 307.498 590.097C307.498 577.206 304.935 567.172 299.808 559.994C294.729 552.816 287.967 549.228 279.52 549.228C270.975 549.228 264.188 553.109 259.158 560.873C254.129 568.637 251.614 578.793 251.614 591.342C251.614 603.598 254.153 613.583 259.231 621.298C264.31 628.964 271.097 632.797 279.593 632.797ZM413.04 641H400.882L349.173 553.842L349.319 560.434C349.466 562.924 349.539 565.023 349.539 566.732V641H339.432V541.024H355.105L403.445 622.543L403.299 615.585C403.201 612.851 403.152 610.434 403.152 608.334V541.024H413.04V641ZM502.688 630.014V641H438.016V541.024H501.297V552.011H450.54V583.798H490.823V593.979H450.54V630.014H502.688ZM570.218 641H557.693V541.024H618.924V552.011H570.218V583.578H610.574V593.686H570.218V641ZM694.29 641H681.473L671.365 611.776H634.378L625.442 641H614.969L647.415 541.024H661.697L694.29 641ZM668.729 602.401L653.348 554.354L637.82 602.401H668.729ZM803.934 641H791.775V553.695L759.256 641H750.76L718.021 553.695V641H707.4V541.024H726.004L756.106 621.005L785.623 541.024H803.934V641ZM841.507 641H828.982V541.024H841.507V641ZM925.516 630.014V641H866.482V541.024H879.3V630.014H925.516ZM994.803 541.024L961.331 598.959V641H948.807V598.959L915.335 541.024H930.057L956.644 587.021L983.377 541.024H994.803ZM1077.93 642.978C1065.09 642.978 1055.08 637.997 1047.9 628.036C1040.73 618.026 1037.14 605.771 1037.14 591.269C1037.14 576.132 1040.9 563.632 1048.42 553.769C1055.94 543.905 1065.9 538.974 1078.3 538.974C1090.65 538.974 1100.56 543.832 1108.04 553.549C1115.51 563.217 1119.24 575.424 1119.24 590.17C1119.24 604.33 1115.6 616.684 1108.33 627.23C1101.1 637.729 1090.97 642.978 1077.93 642.978ZM1078.23 632.797C1086.97 632.797 1093.8 628.817 1098.73 620.858C1103.67 612.899 1106.13 602.646 1106.13 590.097C1106.13 577.206 1103.57 567.172 1098.44 559.994C1093.36 552.816 1086.6 549.228 1078.15 549.228C1069.61 549.228 1062.82 553.109 1057.79 560.873C1052.76 568.637 1050.25 578.793 1050.25 591.342C1050.25 603.598 1052.79 613.583 1057.86 621.298C1062.94 628.964 1069.73 632.797 1078.23 632.797ZM1211.67 641H1199.51L1147.81 553.842L1147.95 560.434C1148.1 562.924 1148.17 565.023 1148.17 566.732V641H1138.06V541.024H1153.74L1202.08 622.543L1201.93 615.585C1201.83 612.851 1201.79 610.434 1201.79 608.334V541.024H1211.67V641ZM1301.32 630.014V641H1236.65V541.024H1299.93V552.011H1249.17V583.798H1289.46V593.979H1249.17V630.014H1301.32ZM1430.37 590.609V642.318H1422.68L1419.24 629.794C1413.09 638.583 1403.93 642.978 1391.78 642.978C1378.59 642.978 1368.34 638.021 1361.01 628.109C1353.69 618.197 1350.03 606.161 1350.03 592.001C1350.03 576.864 1353.91 564.242 1361.67 554.135C1369.44 544.027 1379.98 538.974 1393.31 538.974C1411.72 538.974 1423.73 548.642 1429.35 567.978L1417.48 570.834C1415.77 563.412 1412.58 558.017 1407.89 554.647C1403.2 551.278 1398.07 549.594 1392.51 549.594C1382.64 549.594 1375.37 553.573 1370.68 561.532C1365.99 569.491 1363.65 579.477 1363.65 591.488C1363.65 604.428 1366.26 614.56 1371.49 621.884C1376.76 629.159 1383.91 632.797 1392.95 632.797C1399.98 632.797 1405.84 630.478 1410.53 625.839C1415.26 621.151 1417.63 614.706 1417.63 606.503C1417.63 604.989 1417.58 603.183 1417.48 601.083H1392.73V590.609H1430.37ZM1487.94 642.978C1475.1 642.978 1465.09 637.997 1457.91 628.036C1450.74 618.026 1447.15 605.771 1447.15 591.269C1447.15 576.132 1450.91 563.632 1458.43 553.769C1465.95 543.905 1475.91 538.974 1488.31 538.974C1500.66 538.974 1510.57 543.832 1518.04 553.549C1525.52 563.217 1529.25 575.424 1529.25 590.17C1529.25 604.33 1525.61 616.684 1518.34 627.23C1511.11 637.729 1500.98 642.978 1487.94 642.978ZM1488.24 632.797C1496.98 632.797 1503.81 628.817 1508.74 620.858C1513.67 612.899 1516.14 602.646 1516.14 590.097C1516.14 577.206 1513.58 567.172 1508.45 559.994C1503.37 552.816 1496.61 549.228 1488.16 549.228C1479.62 549.228 1472.83 553.109 1467.8 560.873C1462.77 568.637 1460.26 578.793 1460.26 591.342C1460.26 603.598 1462.8 613.583 1467.87 621.298C1472.95 628.964 1479.74 632.797 1488.24 632.797ZM1612.6 641H1599.78L1589.68 611.776H1552.69L1543.75 641H1533.28L1565.73 541.024H1580.01L1612.6 641ZM1587.04 602.401L1571.66 554.354L1556.13 602.401H1587.04ZM1684.74 630.014V641H1625.71V541.024H1638.53V630.014H1684.74Z"
                fill="white" />
            <path
                d="M249.271 628.036L245.207 630.95L245.214 630.959L249.271 628.036ZM309.402 553.549L305.438 556.596L305.446 556.606L309.402 553.549ZM309.695 627.23L305.58 624.391L305.577 624.395L309.695 627.23ZM299.808 559.994L295.726 562.882L295.732 562.891L295.739 562.9L299.808 559.994ZM259.231 621.298L255.055 624.047L255.059 624.053L255.063 624.059L259.231 621.298ZM279.3 637.978C267.978 637.978 259.515 633.701 253.327 625.113L245.214 630.959C253.381 642.293 264.938 647.978 279.3 647.978V637.978ZM253.334 625.122C246.868 616.105 243.504 604.916 243.504 591.269H233.504C233.504 606.625 237.318 619.948 245.207 630.95L253.334 625.122ZM243.504 591.269C243.504 576.98 247.04 565.614 253.759 556.8L245.807 550.737C237.487 561.65 233.504 575.284 233.504 591.269H243.504ZM253.759 556.8C260.333 548.177 268.824 543.974 279.666 543.974V533.974C265.704 533.974 254.272 539.633 245.807 550.737L253.759 556.8ZM279.666 543.974C290.481 543.974 298.923 548.122 305.438 556.596L313.366 550.501C304.94 539.542 293.558 533.974 279.666 533.974V543.974ZM305.446 556.606C312.109 565.229 315.608 576.294 315.608 590.17H325.608C325.608 574.553 321.637 561.205 313.359 550.492L305.446 556.606ZM315.608 590.17C315.608 603.427 312.219 614.766 305.58 624.391L313.811 630.07C321.722 618.601 325.608 605.233 325.608 590.17H315.608ZM305.577 624.395C299.309 633.501 290.737 637.978 279.3 637.978V647.978C293.937 647.978 305.629 641.956 313.814 630.066L305.577 624.395ZM279.593 637.797C290.207 637.797 298.586 632.796 304.351 623.492L295.85 618.225C291.752 624.839 286.459 627.797 279.593 627.797V637.797ZM304.351 623.492C309.913 614.516 312.498 603.269 312.498 590.097H302.498C302.498 602.022 300.152 611.283 295.85 618.225L304.351 623.492ZM312.498 590.097C312.498 576.623 309.83 565.423 303.876 557.088L295.739 562.9C300.039 568.92 302.498 577.789 302.498 590.097H312.498ZM303.889 557.106C297.919 548.668 289.667 544.228 279.52 544.228V554.228C286.267 554.228 291.54 556.965 295.726 562.882L303.889 557.106ZM279.52 544.228C269.119 544.228 260.822 549.108 254.962 558.155L263.355 563.591C267.553 557.111 272.83 554.228 279.52 554.228V544.228ZM254.962 558.155C249.252 566.969 246.614 578.162 246.614 591.342H256.614C256.614 579.424 259.006 570.305 263.355 563.591L254.962 558.155ZM246.614 591.342C246.614 604.262 249.29 615.289 255.055 624.047L263.408 618.549C259.017 611.877 256.614 602.934 256.614 591.342H246.614ZM255.063 624.059C260.977 632.987 269.262 637.797 279.593 637.797V627.797C272.931 627.797 267.642 624.941 263.4 618.537L255.063 624.059ZM413.04 641V646H418.04V641H413.04ZM400.882 641L396.582 643.551L398.034 646H400.882V641ZM349.173 553.842L353.473 551.291L343.751 534.903L344.174 553.953L349.173 553.842ZM349.319 560.434L344.321 560.545L344.323 560.636L344.328 560.727L349.319 560.434ZM349.539 641V646H354.539V641H349.539ZM339.432 641H334.432V646H339.432V641ZM339.432 541.024V536.024H334.432V541.024H339.432ZM355.105 541.024L359.406 538.474L357.954 536.024H355.105V541.024ZM403.445 622.543L399.145 625.093L408.844 641.451L408.444 622.438L403.445 622.543ZM403.299 615.585L408.298 615.48L408.297 615.443L408.296 615.407L403.299 615.585ZM403.152 541.024V536.024H398.152V541.024H403.152ZM413.04 541.024H418.04V536.024H413.04V541.024ZM413.04 636H400.882V646H413.04V636ZM405.182 638.449L353.473 551.291L344.873 556.393L396.582 643.551L405.182 638.449ZM344.174 553.953L344.321 560.545L354.318 560.323L354.172 553.731L344.174 553.953ZM344.328 560.727C344.471 563.16 344.539 565.155 344.539 566.732H354.539C354.539 564.892 354.461 562.688 354.311 560.14L344.328 560.727ZM344.539 566.732V641H354.539V566.732H344.539ZM349.539 636H339.432V646H349.539V636ZM344.432 641V541.024H334.432V641H344.432ZM339.432 546.024H355.105V536.024H339.432V546.024ZM350.805 543.575L399.145 625.093L407.746 619.993L359.406 538.474L350.805 543.575ZM408.444 622.438L408.298 615.48L398.3 615.69L398.446 622.648L408.444 622.438ZM408.296 615.407C408.2 612.715 408.152 610.359 408.152 608.334H398.152C398.152 610.508 398.203 612.986 398.302 615.763L408.296 615.407ZM408.152 608.334V541.024H398.152V608.334H408.152ZM403.152 546.024H413.04V536.024H403.152V546.024ZM408.04 541.024V641H418.04V541.024H408.04ZM502.688 630.014H507.688V625.014H502.688V630.014ZM502.688 641V646H507.688V641H502.688ZM438.016 641H433.016V646H438.016V641ZM438.016 541.024V536.024H433.016V541.024H438.016ZM501.297 541.024H506.297V536.024H501.297V541.024ZM501.297 552.011V557.011H506.297V552.011H501.297ZM450.54 552.011V547.011H445.54V552.011H450.54ZM450.54 583.798H445.54V588.798H450.54V583.798ZM490.823 583.798H495.823V578.798H490.823V583.798ZM490.823 593.979V598.979H495.823V593.979H490.823ZM450.54 593.979V588.979H445.54V593.979H450.54ZM450.54 630.014H445.54V635.014H450.54V630.014ZM497.688 630.014V641H507.688V630.014H497.688ZM502.688 636H438.016V646H502.688V636ZM443.016 641V541.024H433.016V641H443.016ZM438.016 546.024H501.297V536.024H438.016V546.024ZM496.297 541.024V552.011H506.297V541.024H496.297ZM501.297 547.011H450.54V557.011H501.297V547.011ZM445.54 552.011V583.798H455.54V552.011H445.54ZM450.54 588.798H490.823V578.798H450.54V588.798ZM485.823 583.798V593.979H495.823V583.798H485.823ZM490.823 588.979H450.54V598.979H490.823V588.979ZM445.54 593.979V630.014H455.54V593.979H445.54ZM450.54 635.014H502.688V625.014H450.54V635.014ZM570.218 641V646H575.218V641H570.218ZM557.693 641H552.693V646H557.693V641ZM557.693 541.024V536.024H552.693V541.024H557.693ZM618.924 541.024H623.924V536.024H618.924V541.024ZM618.924 552.011V557.011H623.924V552.011H618.924ZM570.218 552.011V547.011H565.218V552.011H570.218ZM570.218 583.578H565.218V588.578H570.218V583.578ZM610.574 583.578H615.574V578.578H610.574V583.578ZM610.574 593.686V598.686H615.574V593.686H610.574ZM570.218 593.686V588.686H565.218V593.686H570.218ZM570.218 636H557.693V646H570.218V636ZM562.693 641V541.024H552.693V641H562.693ZM557.693 546.024H618.924V536.024H557.693V546.024ZM613.924 541.024V552.011H623.924V541.024H613.924ZM618.924 547.011H570.218V557.011H618.924V547.011ZM565.218 552.011V583.578H575.218V552.011H565.218ZM570.218 588.578H610.574V578.578H570.218V588.578ZM605.574 583.578V593.686H615.574V583.578H605.574ZM610.574 588.686H570.218V598.686H610.574V588.686ZM565.218 593.686V641H575.218V593.686H565.218ZM694.29 641V646H701.179L699.044 639.45L694.29 641ZM681.473 641L676.747 642.634L677.911 646H681.473V641ZM671.365 611.776L676.091 610.142L674.927 606.776H671.365V611.776ZM634.378 611.776V606.776H630.678L629.596 610.314L634.378 611.776ZM625.442 641V646H629.142L630.224 642.462L625.442 641ZM614.969 641L610.213 639.457L608.089 646H614.969V641ZM647.415 541.024V536.024H643.781L642.659 539.481L647.415 541.024ZM661.697 541.024L666.451 539.475L665.326 536.024H661.697V541.024ZM668.729 602.401V607.401H675.579L673.49 600.877L668.729 602.401ZM653.348 554.354L658.11 552.83L653.37 538.025L648.59 552.817L653.348 554.354ZM637.82 602.401L633.063 600.864L630.95 607.401H637.82V602.401ZM694.29 636H681.473V646H694.29V636ZM686.198 639.366L676.091 610.142L666.64 613.411L676.747 642.634L686.198 639.366ZM671.365 606.776H634.378V616.776H671.365V606.776ZM629.596 610.314L620.661 639.538L630.224 642.462L639.159 613.238L629.596 610.314ZM625.442 636H614.969V646H625.442V636ZM619.725 642.543L652.171 542.568L642.659 539.481L610.213 639.457L619.725 642.543ZM647.415 546.024H661.697V536.024H647.415V546.024ZM656.943 542.574L689.536 642.55L699.044 639.45L666.451 539.475L656.943 542.574ZM673.49 600.877L658.11 552.83L648.586 555.879L663.967 603.926L673.49 600.877ZM648.59 552.817L633.063 600.864L642.578 603.939L658.105 555.892L648.59 552.817ZM637.82 607.401H668.729V597.401H637.82V607.401ZM803.934 641V646H808.934V641H803.934ZM791.775 641H786.775V646H791.775V641ZM791.775 553.695H796.775L787.09 551.95L791.775 553.695ZM759.256 641V646H762.729L763.941 642.745L759.256 641ZM750.76 641L746.078 642.756L747.295 646H750.76V641ZM718.021 553.695L722.702 551.94L713.021 553.695H718.021ZM718.021 641V646H723.021V641H718.021ZM707.4 641H702.4V646H707.4V641ZM707.4 541.024V536.024H702.4V541.024H707.4ZM726.004 541.024L730.683 539.263L729.464 536.024H726.004V541.024ZM756.106 621.005L751.427 622.766L756.152 635.322L760.797 622.736L756.106 621.005ZM785.623 541.024V536.024H782.139L780.932 539.293L785.623 541.024ZM803.934 541.024H808.934V536.024H803.934V541.024ZM803.934 636H791.775V646H803.934V636ZM796.775 641V553.695H786.775V641H796.775ZM787.09 551.95L754.57 639.255L763.941 642.745L796.461 555.441L787.09 551.95ZM759.256 636H750.76V646H759.256V636ZM755.441 639.244L722.702 551.94L713.339 555.451L746.078 642.756L755.441 639.244ZM713.021 553.695V641H723.021V553.695H713.021ZM718.021 636H707.4V646H718.021V636ZM712.4 641V541.024H702.4V641H712.4ZM707.4 546.024H726.004V536.024H707.4V546.024ZM721.324 542.786L751.427 622.766L760.786 619.244L730.683 539.263L721.324 542.786ZM760.797 622.736L790.314 542.756L780.932 539.293L751.416 619.274L760.797 622.736ZM785.623 546.024H803.934V536.024H785.623V546.024ZM798.934 541.024V641H808.934V541.024H798.934ZM841.507 641V646H846.507V641H841.507ZM828.982 641H823.982V646H828.982V641ZM828.982 541.024V536.024H823.982V541.024H828.982ZM841.507 541.024H846.507V536.024H841.507V541.024ZM841.507 636H828.982V646H841.507V636ZM833.982 641V541.024H823.982V641H833.982ZM828.982 546.024H841.507V536.024H828.982V546.024ZM836.507 541.024V641H846.507V541.024H836.507ZM925.516 630.014H930.516V625.014H925.516V630.014ZM925.516 641V646H930.516V641H925.516ZM866.482 641H861.482V646H866.482V641ZM866.482 541.024V536.024H861.482V541.024H866.482ZM879.3 541.024H884.3V536.024H879.3V541.024ZM879.3 630.014H874.3V635.014H879.3V630.014ZM920.516 630.014V641H930.516V630.014H920.516ZM925.516 636H866.482V646H925.516V636ZM871.482 641V541.024H861.482V641H871.482ZM866.482 546.024H879.3V536.024H866.482V546.024ZM874.3 541.024V630.014H884.3V541.024H874.3ZM879.3 635.014H925.516V625.014H879.3V635.014ZM994.803 541.024L999.132 543.526L1003.47 536.024H994.803V541.024ZM961.331 598.959L957.002 596.458L956.331 597.618V598.959H961.331ZM961.331 641V646H966.331V641H961.331ZM948.807 641H943.807V646H948.807V641ZM948.807 598.959H953.807V597.618L953.136 596.458L948.807 598.959ZM915.335 541.024V536.024H906.672L911.006 543.526L915.335 541.024ZM930.057 541.024L934.385 538.522L932.942 536.024H930.057V541.024ZM956.644 587.021L952.315 589.523L956.632 596.991L960.966 589.533L956.644 587.021ZM983.377 541.024V536.024H980.5L979.054 538.512L983.377 541.024ZM990.473 538.523L957.002 596.458L965.66 601.46L999.132 543.526L990.473 538.523ZM956.331 598.959V641H966.331V598.959H956.331ZM961.331 636H948.807V646H961.331V636ZM953.807 641V598.959H943.807V641H953.807ZM953.136 596.458L919.664 538.523L911.006 543.526L944.477 601.46L953.136 596.458ZM915.335 546.024H930.057V536.024H915.335V546.024ZM925.728 543.527L952.315 589.523L960.972 584.518L934.385 538.522L925.728 543.527ZM960.966 589.533L987.7 543.537L979.054 538.512L952.321 584.508L960.966 589.533ZM983.377 546.024H994.803V536.024H983.377V546.024ZM1047.9 628.036L1043.84 630.95L1043.85 630.959L1047.9 628.036ZM1108.04 553.549L1104.07 556.596L1104.08 556.606L1108.04 553.549ZM1108.33 627.23L1104.21 624.391L1104.21 624.395L1108.33 627.23ZM1098.44 559.994L1094.36 562.882L1094.37 562.891L1094.37 562.9L1098.44 559.994ZM1057.86 621.298L1053.69 624.047L1053.69 624.053L1053.7 624.059L1057.86 621.298ZM1077.93 637.978C1066.61 637.978 1058.15 633.701 1051.96 625.113L1043.85 630.959C1052.01 642.293 1063.57 647.978 1077.93 647.978V637.978ZM1051.97 625.122C1045.5 616.105 1042.14 604.916 1042.14 591.269H1032.14C1032.14 606.625 1035.95 619.948 1043.84 630.95L1051.97 625.122ZM1042.14 591.269C1042.14 576.98 1045.67 565.614 1052.39 556.8L1044.44 550.737C1036.12 561.65 1032.14 575.284 1032.14 591.269H1042.14ZM1052.39 556.8C1058.97 548.177 1067.46 543.974 1078.3 543.974V533.974C1064.34 533.974 1052.91 539.633 1044.44 550.737L1052.39 556.8ZM1078.3 543.974C1089.11 543.974 1097.56 548.122 1104.07 556.596L1112 550.501C1103.57 539.542 1092.19 533.974 1078.3 533.974V543.974ZM1104.08 556.606C1110.74 565.229 1114.24 576.294 1114.24 590.17H1124.24C1124.24 574.553 1120.27 561.205 1111.99 550.492L1104.08 556.606ZM1114.24 590.17C1114.24 603.427 1110.85 614.766 1104.21 624.391L1112.44 630.07C1120.36 618.601 1124.24 605.233 1124.24 590.17H1114.24ZM1104.21 624.395C1097.94 633.501 1089.37 637.978 1077.93 637.978V647.978C1092.57 647.978 1104.26 641.956 1112.45 630.066L1104.21 624.395ZM1078.23 637.797C1088.84 637.797 1097.22 632.796 1102.98 623.492L1094.48 618.225C1090.38 624.839 1085.09 627.797 1078.23 627.797V637.797ZM1102.98 623.492C1108.55 614.516 1111.13 603.269 1111.13 590.097H1101.13C1101.13 602.022 1098.78 611.283 1094.48 618.225L1102.98 623.492ZM1111.13 590.097C1111.13 576.623 1108.46 565.423 1102.51 557.088L1094.37 562.9C1098.67 568.92 1101.13 577.789 1101.13 590.097H1111.13ZM1102.52 557.106C1096.55 548.668 1088.3 544.228 1078.15 544.228V554.228C1084.9 554.228 1090.17 556.965 1094.36 562.882L1102.52 557.106ZM1078.15 544.228C1067.75 544.228 1059.45 549.108 1053.59 558.155L1061.99 563.591C1066.19 557.111 1071.46 554.228 1078.15 554.228V544.228ZM1053.59 558.155C1047.88 566.969 1045.25 578.162 1045.25 591.342H1055.25C1055.25 579.424 1057.64 570.305 1061.99 563.591L1053.59 558.155ZM1045.25 591.342C1045.25 604.262 1047.92 615.289 1053.69 624.047L1062.04 618.549C1057.65 611.877 1055.25 602.934 1055.25 591.342H1045.25ZM1053.7 624.059C1059.61 632.987 1067.9 637.797 1078.23 637.797V627.797C1071.56 627.797 1066.28 624.941 1062.03 618.537L1053.7 624.059ZM1211.67 641V646H1216.67V641H1211.67ZM1199.51 641L1195.21 643.551L1196.67 646H1199.51V641ZM1147.81 553.842L1152.11 551.291L1142.38 534.903L1142.81 553.953L1147.81 553.842ZM1147.95 560.434L1142.95 560.545L1142.96 560.636L1142.96 560.727L1147.95 560.434ZM1148.17 641V646H1153.17V641H1148.17ZM1138.06 641H1133.06V646H1138.06V641ZM1138.06 541.024V536.024H1133.06V541.024H1138.06ZM1153.74 541.024L1158.04 538.474L1156.59 536.024H1153.74V541.024ZM1202.08 622.543L1197.78 625.093L1207.48 641.451L1207.08 622.438L1202.08 622.543ZM1201.93 615.585L1206.93 615.48L1206.93 615.443L1206.93 615.407L1201.93 615.585ZM1201.79 541.024V536.024H1196.79V541.024H1201.79ZM1211.67 541.024H1216.67V536.024H1211.67V541.024ZM1211.67 636H1199.51V646H1211.67V636ZM1203.81 638.449L1152.11 551.291L1143.51 556.393L1195.21 643.551L1203.81 638.449ZM1142.81 553.953L1142.95 560.545L1152.95 560.323L1152.8 553.731L1142.81 553.953ZM1142.96 560.727C1143.1 563.16 1143.17 565.155 1143.17 566.732H1153.17C1153.17 564.892 1153.09 562.688 1152.94 560.14L1142.96 560.727ZM1143.17 566.732V641H1153.17V566.732H1143.17ZM1148.17 636H1138.06V646H1148.17V636ZM1143.06 641V541.024H1133.06V641H1143.06ZM1138.06 546.024H1153.74V536.024H1138.06V546.024ZM1149.44 543.575L1197.78 625.093L1206.38 619.993L1158.04 538.474L1149.44 543.575ZM1207.08 622.438L1206.93 615.48L1196.93 615.69L1197.08 622.648L1207.08 622.438ZM1206.93 615.407C1206.83 612.715 1206.79 610.359 1206.79 608.334H1196.79C1196.79 610.508 1196.84 612.986 1196.93 615.763L1206.93 615.407ZM1206.79 608.334V541.024H1196.79V608.334H1206.79ZM1201.79 546.024H1211.67V536.024H1201.79V546.024ZM1206.67 541.024V641H1216.67V541.024H1206.67ZM1301.32 630.014H1306.32V625.014H1301.32V630.014ZM1301.32 641V646H1306.32V641H1301.32ZM1236.65 641H1231.65V646H1236.65V641ZM1236.65 541.024V536.024H1231.65V541.024H1236.65ZM1299.93 541.024H1304.93V536.024H1299.93V541.024ZM1299.93 552.011V557.011H1304.93V552.011H1299.93ZM1249.17 552.011V547.011H1244.17V552.011H1249.17ZM1249.17 583.798H1244.17V588.798H1249.17V583.798ZM1289.46 583.798H1294.46V578.798H1289.46V583.798ZM1289.46 593.979V598.979H1294.46V593.979H1289.46ZM1249.17 593.979V588.979H1244.17V593.979H1249.17ZM1249.17 630.014H1244.17V635.014H1249.17V630.014ZM1296.32 630.014V641H1306.32V630.014H1296.32ZM1301.32 636H1236.65V646H1301.32V636ZM1241.65 641V541.024H1231.65V641H1241.65ZM1236.65 546.024H1299.93V536.024H1236.65V546.024ZM1294.93 541.024V552.011H1304.93V541.024H1294.93ZM1299.93 547.011H1249.17V557.011H1299.93V547.011ZM1244.17 552.011V583.798H1254.17V552.011H1244.17ZM1249.17 588.798H1289.46V578.798H1249.17V588.798ZM1284.46 583.798V593.979H1294.46V583.798H1284.46ZM1289.46 588.979H1249.17V598.979H1289.46V588.979ZM1244.17 593.979V630.014H1254.17V593.979H1244.17ZM1249.17 635.014H1301.32V625.014H1249.17V635.014ZM1430.37 590.609H1435.37V585.609H1430.37V590.609ZM1430.37 642.318V647.318H1435.37V642.318H1430.37ZM1422.68 642.318L1417.86 643.643L1418.87 647.318H1422.68V642.318ZM1419.24 629.794L1424.06 628.469L1421.24 618.214L1415.15 626.927L1419.24 629.794ZM1429.35 567.978L1430.52 572.839L1435.61 571.613L1434.15 566.583L1429.35 567.978ZM1417.48 570.834L1412.61 571.956L1413.74 576.877L1418.65 575.695L1417.48 570.834ZM1371.49 621.884L1367.42 624.787L1367.43 624.803L1367.44 624.818L1371.49 621.884ZM1410.53 625.839L1414.04 629.393L1414.04 629.393L1410.53 625.839ZM1417.48 601.083L1422.48 600.851L1422.26 596.083H1417.48V601.083ZM1392.73 601.083H1387.73V606.083H1392.73V601.083ZM1392.73 590.609V585.609H1387.73V590.609H1392.73ZM1425.37 590.609V642.318H1435.37V590.609H1425.37ZM1430.37 637.318H1422.68V647.318H1430.37V637.318ZM1427.5 640.993L1424.06 628.469L1414.42 631.119L1417.86 643.643L1427.5 640.993ZM1415.15 626.927C1410.06 634.185 1402.55 637.978 1391.78 637.978V647.978C1405.31 647.978 1416.11 642.981 1423.34 632.661L1415.15 626.927ZM1391.78 637.978C1380.05 637.978 1371.34 633.674 1365.03 625.138L1356.99 631.081C1365.33 642.369 1377.13 647.978 1391.78 647.978V637.978ZM1365.03 625.138C1358.44 616.211 1355.03 605.257 1355.03 592.001H1345.03C1345.03 607.065 1348.94 620.184 1356.99 631.081L1365.03 625.138ZM1355.03 592.001C1355.03 577.752 1358.67 566.259 1365.64 557.181L1357.71 551.089C1349.15 562.226 1345.03 575.977 1345.03 592.001H1355.03ZM1365.64 557.181C1372.41 548.37 1381.45 543.974 1393.31 543.974V533.974C1378.51 533.974 1366.47 539.685 1357.71 551.089L1365.64 557.181ZM1393.31 543.974C1401.61 543.974 1408.04 546.133 1412.99 550.12C1417.99 554.14 1421.94 560.39 1424.55 569.372L1434.15 566.583C1431.14 556.229 1426.28 547.977 1419.26 542.33C1412.21 536.649 1403.43 533.974 1393.31 533.974V543.974ZM1428.18 563.116L1416.31 565.973L1418.65 575.695L1430.52 572.839L1428.18 563.116ZM1422.36 569.712C1420.46 561.491 1416.76 554.867 1410.81 550.587L1404.97 558.708C1408.39 561.167 1411.09 565.334 1412.61 571.956L1422.36 569.712ZM1410.81 550.587C1405.3 546.631 1399.16 544.594 1392.51 544.594V554.594C1396.99 554.594 1401.1 555.925 1404.97 558.708L1410.81 550.587ZM1392.51 544.594C1381.02 544.594 1372.03 549.388 1366.37 558.995L1374.99 564.07C1378.71 557.759 1384.27 554.594 1392.51 554.594V544.594ZM1366.37 558.995C1361.12 567.921 1358.65 578.846 1358.65 591.488H1368.65C1368.65 580.107 1370.87 571.062 1374.99 564.07L1366.37 558.995ZM1358.65 591.488C1358.65 605.031 1361.38 616.318 1367.42 624.787L1375.56 618.98C1371.15 612.801 1368.65 603.825 1368.65 591.488H1358.65ZM1367.44 624.818C1373.66 633.399 1382.32 637.797 1392.95 637.797V627.797C1385.51 627.797 1379.86 624.919 1375.54 618.949L1367.44 624.818ZM1392.95 637.797C1401.2 637.797 1408.35 635.024 1414.04 629.393L1407.01 622.285C1403.32 625.931 1398.76 627.797 1392.95 627.797V637.797ZM1414.04 629.393C1419.94 623.558 1422.63 615.713 1422.63 606.503H1412.63C1412.63 613.699 1410.59 618.745 1407.01 622.285L1414.04 629.393ZM1422.63 606.503C1422.63 604.889 1422.58 603 1422.48 600.851L1412.49 601.315C1412.58 603.365 1412.63 605.09 1412.63 606.503H1422.63ZM1417.48 596.083H1392.73V606.083H1417.48V596.083ZM1397.73 601.083V590.609H1387.73V601.083H1397.73ZM1392.73 595.609H1430.37V585.609H1392.73V595.609ZM1457.91 628.036L1453.85 630.95L1453.86 630.959L1457.91 628.036ZM1518.04 553.549L1514.08 556.596L1514.09 556.606L1518.04 553.549ZM1518.34 627.23L1514.22 624.391L1514.22 624.395L1518.34 627.23ZM1508.45 559.994L1504.37 562.882L1504.38 562.891L1504.38 562.9L1508.45 559.994ZM1467.87 621.298L1463.7 624.047L1463.7 624.053L1463.71 624.059L1467.87 621.298ZM1487.94 637.978C1476.62 637.978 1468.16 633.701 1461.97 625.113L1453.86 630.959C1462.02 642.293 1473.58 647.978 1487.94 647.978V637.978ZM1461.98 625.122C1455.51 616.105 1452.15 604.916 1452.15 591.269H1442.15C1442.15 606.625 1445.96 619.948 1453.85 630.95L1461.98 625.122ZM1452.15 591.269C1452.15 576.98 1455.68 565.614 1462.4 556.8L1454.45 550.737C1446.13 561.65 1442.15 575.284 1442.15 591.269H1452.15ZM1462.4 556.8C1468.98 548.177 1477.47 543.974 1488.31 543.974V533.974C1474.35 533.974 1462.91 539.633 1454.45 550.737L1462.4 556.8ZM1488.31 543.974C1499.12 543.974 1507.57 548.122 1514.08 556.596L1522.01 550.501C1513.58 539.542 1502.2 533.974 1488.31 533.974V543.974ZM1514.09 556.606C1520.75 565.229 1524.25 576.294 1524.25 590.17H1534.25C1534.25 574.553 1530.28 561.205 1522 550.492L1514.09 556.606ZM1524.25 590.17C1524.25 603.427 1520.86 614.766 1514.22 624.391L1522.45 630.07C1530.36 618.601 1534.25 605.233 1534.25 590.17H1524.25ZM1514.22 624.395C1507.95 633.501 1499.38 637.978 1487.94 637.978V647.978C1502.58 647.978 1514.27 641.956 1522.46 630.066L1514.22 624.395ZM1488.24 637.797C1498.85 637.797 1507.23 632.796 1512.99 623.492L1504.49 618.225C1500.39 624.839 1495.1 627.797 1488.24 627.797V637.797ZM1512.99 623.492C1518.56 614.516 1521.14 603.269 1521.14 590.097H1511.14C1511.14 602.022 1508.79 611.283 1504.49 618.225L1512.99 623.492ZM1521.14 590.097C1521.14 576.623 1518.47 565.423 1512.52 557.088L1504.38 562.9C1508.68 568.92 1511.14 577.789 1511.14 590.097H1521.14ZM1512.53 557.106C1506.56 548.668 1498.31 544.228 1488.16 544.228V554.228C1494.91 554.228 1500.18 556.965 1504.37 562.882L1512.53 557.106ZM1488.16 544.228C1477.76 544.228 1469.46 549.108 1463.6 558.155L1472 563.591C1476.2 557.111 1481.47 554.228 1488.16 554.228V544.228ZM1463.6 558.155C1457.89 566.969 1455.26 578.162 1455.26 591.342H1465.26C1465.26 579.424 1467.65 570.305 1472 563.591L1463.6 558.155ZM1455.26 591.342C1455.26 604.262 1457.93 615.289 1463.7 624.047L1472.05 618.549C1467.66 611.877 1465.26 602.934 1465.26 591.342H1455.26ZM1463.71 624.059C1469.62 632.987 1477.9 637.797 1488.24 637.797V627.797C1481.57 627.797 1476.28 624.941 1472.04 618.537L1463.71 624.059ZM1612.6 641V646H1619.49L1617.35 639.45L1612.6 641ZM1599.78 641L1595.06 642.634L1596.22 646H1599.78V641ZM1589.68 611.776L1594.4 610.142L1593.24 606.776H1589.68V611.776ZM1552.69 611.776V606.776H1548.99L1547.91 610.314L1552.69 611.776ZM1543.75 641V646H1547.45L1548.53 642.462L1543.75 641ZM1533.28 641L1528.52 639.457L1526.4 646H1533.28V641ZM1565.73 541.024V536.024H1562.09L1560.97 539.481L1565.73 541.024ZM1580.01 541.024L1584.76 539.475L1583.64 536.024H1580.01V541.024ZM1587.04 602.401V607.401H1593.89L1591.8 600.877L1587.04 602.401ZM1571.66 554.354L1576.42 552.83L1571.68 538.025L1566.9 552.817L1571.66 554.354ZM1556.13 602.401L1551.37 600.864L1549.26 607.401H1556.13V602.401ZM1612.6 636H1599.78V646H1612.6V636ZM1604.51 639.366L1594.4 610.142L1584.95 613.411L1595.06 642.634L1604.51 639.366ZM1589.68 606.776H1552.69V616.776H1589.68V606.776ZM1547.91 610.314L1538.97 639.538L1548.53 642.462L1557.47 613.238L1547.91 610.314ZM1543.75 636H1533.28V646H1543.75V636ZM1538.04 642.543L1570.48 542.568L1560.97 539.481L1528.52 639.457L1538.04 642.543ZM1565.73 546.024H1580.01V536.024H1565.73V546.024ZM1575.25 542.574L1607.85 642.55L1617.35 639.45L1584.76 539.475L1575.25 542.574ZM1591.8 600.877L1576.42 552.83L1566.9 555.879L1582.28 603.926L1591.8 600.877ZM1566.9 552.817L1551.37 600.864L1560.89 603.939L1576.42 555.892L1566.9 552.817ZM1556.13 607.401H1587.04V597.401H1556.13V607.401ZM1684.74 630.014H1689.74V625.014H1684.74V630.014ZM1684.74 641V646H1689.74V641H1684.74ZM1625.71 641H1620.71V646H1625.71V641ZM1625.71 541.024V536.024H1620.71V541.024H1625.71ZM1638.53 541.024H1643.53V536.024H1638.53V541.024ZM1638.53 630.014H1633.53V635.014H1638.53V630.014ZM1679.74 630.014V641H1689.74V630.014H1679.74ZM1684.74 636H1625.71V646H1684.74V636ZM1630.71 641V541.024H1620.71V641H1630.71ZM1625.71 546.024H1638.53V536.024H1625.71V546.024ZM1633.53 541.024V630.014H1643.53V541.024H1633.53ZM1638.53 635.014H1684.74V625.014H1638.53V635.014Z"
                fill="white" />
        </g>
    </g>
</svg>