<svg width="855" height="855" viewBox="0 0 855 855" fill="none" xmlns="http://www.w3.org/2000/svg">
<path d="M232.708 731H231.708V732H232.708V731ZM232.708 692.5V691.5H231.708V692.5H232.708ZM258.283 694.205L257.868 695.115L257.879 695.12L258.283 694.205ZM264.058 698.99L263.219 699.534H263.219L264.058 698.99ZM258.283 718.735L258.686 719.65L258.697 719.645L258.283 718.735ZM237.658 720.385L236.946 719.683L235.267 721.385H237.658V720.385ZM241.618 716.37H242.618V713.932L240.906 715.668L241.618 716.37ZM241.618 731V732H242.618V731H241.618ZM241.618 717.36L240.887 718.043L242.618 719.894V717.36H241.618ZM237.658 713.125V712.125H235.353L236.927 713.808L237.658 713.125ZM237.658 699.76L236.927 699.077L235.353 700.76H237.658V699.76ZM241.618 695.525H242.618V692.991L240.887 694.842L241.618 695.525ZM233.708 731V692.5H231.708V731H233.708ZM232.708 693.5H249.373V691.5H232.708V693.5ZM249.373 693.5C252.712 693.5 255.534 694.051 257.868 695.115L258.697 693.295C256.045 692.086 252.927 691.5 249.373 691.5V693.5ZM257.879 695.12C260.212 696.149 261.978 697.623 263.219 699.534L264.896 698.446C263.424 696.177 261.34 694.461 258.686 693.29L257.879 695.12ZM263.219 699.534C264.454 701.437 265.093 703.734 265.093 706.47H267.093C267.093 703.412 266.374 700.723 264.896 698.446L263.219 699.534ZM265.093 706.47C265.093 709.166 264.455 711.446 263.219 713.351L264.896 714.439C266.373 712.164 267.093 709.494 267.093 706.47H265.093ZM263.219 713.351C261.976 715.265 260.206 716.759 257.868 717.825L258.697 719.645C261.346 718.437 263.426 716.705 264.896 714.439L263.219 713.351ZM257.879 717.82C255.542 718.851 252.716 719.385 249.373 719.385V721.385C252.923 721.385 256.037 720.819 258.686 719.65L257.879 717.82ZM249.373 719.385H237.658V721.385H249.373V719.385ZM238.37 721.087L242.33 717.072L240.906 715.668L236.946 719.683L238.37 721.087ZM240.618 716.37V731H242.618V716.37H240.618ZM241.618 730H232.708V732H241.618V730ZM242.348 716.677L238.388 712.442L236.927 713.808L240.887 718.043L242.348 716.677ZM237.658 714.125H248.878V712.125H237.658V714.125ZM248.878 714.125C251.745 714.125 254.078 713.517 255.692 712.121L254.383 710.609C253.284 711.56 251.51 712.125 248.878 712.125V714.125ZM255.692 712.121C257.305 710.726 258.073 708.797 258.073 706.47H256.073C256.073 708.323 255.483 709.657 254.383 710.609L255.692 712.121ZM258.073 706.47C258.073 704.112 257.309 702.163 255.692 700.764L254.383 702.276C255.479 703.224 256.073 704.574 256.073 706.47H258.073ZM255.692 700.764C254.078 699.368 251.745 698.76 248.878 698.76V700.76C251.51 700.76 253.284 701.325 254.383 702.276L255.692 700.764ZM248.878 698.76H237.658V700.76H248.878V698.76ZM238.388 700.443L242.348 696.208L240.887 694.842L236.927 699.077L238.388 700.443ZM240.618 695.525V717.36H242.618V695.525H240.618ZM276.529 727.095L277.232 726.384L276.529 727.095ZM271.909 692.5V691.5H270.909V692.5H271.909ZM280.819 692.5H281.819V691.5H280.819V692.5ZM283.074 721.65L282.342 722.332L283.074 721.65ZM295.724 721.65L296.455 722.332L295.724 721.65ZM297.979 692.5V691.5H296.979V692.5H297.979ZM306.779 692.5H307.779V691.5H306.779V692.5ZM302.159 727.095L302.862 727.806L302.159 727.095ZM289.344 730.66C284.071 730.66 280.079 729.197 277.232 726.384L275.826 727.806C279.139 731.08 283.69 732.66 289.344 732.66V730.66ZM277.232 726.384C274.395 723.58 272.909 719.524 272.909 714.06H270.909C270.909 719.889 272.503 724.523 275.826 727.806L277.232 726.384ZM272.909 714.06V692.5H270.909V714.06H272.909ZM271.909 693.5H280.819V691.5H271.909V693.5ZM279.819 692.5V713.73H281.819V692.5H279.819ZM279.819 713.73C279.819 717.493 280.583 720.444 282.342 722.332L283.805 720.968C282.558 719.63 281.819 717.301 281.819 713.73H279.819ZM282.342 722.332C284.077 724.193 286.477 725.07 289.399 725.07V723.07C286.894 723.07 285.077 722.333 283.805 720.968L282.342 722.332ZM289.399 725.07C292.321 725.07 294.721 724.193 296.455 722.332L294.992 720.968C293.72 722.333 291.903 723.07 289.399 723.07V725.07ZM296.455 722.332C298.215 720.444 298.979 717.493 298.979 713.73H296.979C296.979 717.301 296.24 719.63 294.992 720.968L296.455 722.332ZM298.979 713.73V692.5H296.979V713.73H298.979ZM297.979 693.5H306.779V691.5H297.979V693.5ZM305.779 692.5V714.06H307.779V692.5H305.779ZM305.779 714.06C305.779 719.524 304.293 723.58 301.456 726.384L302.862 727.806C306.185 724.523 307.779 719.889 307.779 714.06H305.779ZM301.456 726.384C298.609 729.197 294.616 730.66 289.344 730.66V732.66C294.998 732.66 299.549 731.08 302.862 727.806L301.456 726.384ZM315.584 731H314.584V732H315.584V731ZM315.584 692.5V691.5H314.584V692.5H315.584ZM345.284 695.25L344.68 696.047L344.685 696.051L345.284 695.25ZM347.484 707.79L348.312 708.35L348.319 708.34L347.484 707.79ZM343.414 711.2L343.837 712.106L343.414 711.2ZM337.474 712.41L336.566 711.99L335.908 713.41H337.474V712.41ZM338.519 710.155V709.155H337.88L337.611 709.735L338.519 710.155ZM344.954 711.365L344.557 712.283L344.565 712.287L344.573 712.29L344.954 711.365ZM349.299 714.83L348.467 715.385L348.471 715.391L348.476 715.398L349.299 714.83ZM346.989 728.25L347.564 729.068L347.572 729.062L346.989 728.25ZM324.439 724.29H323.439V725.29H324.439V724.29ZM340.059 723.19L340.589 724.038L340.595 724.034L340.059 723.19ZM340.059 715.985L339.492 716.809L339.507 716.819L339.522 716.829L340.059 715.985ZM323.779 714.775H322.779V715.775H323.779V714.775ZM323.779 708.285V707.285H322.779V708.285H323.779ZM338.244 707.185L338.786 708.025L338.792 708.021L338.244 707.185ZM338.244 700.365L337.683 701.193L337.698 701.203L337.714 701.213L338.244 700.365ZM324.439 699.21V698.21H323.439V699.21H324.439ZM316.584 731V692.5H314.584V731H316.584ZM315.584 693.5H334.394V691.5H315.584V693.5ZM334.394 693.5C339.136 693.5 342.51 694.403 344.68 696.047L345.887 694.453C343.217 692.43 339.331 691.5 334.394 691.5V693.5ZM344.685 696.051C346.895 697.7 347.969 699.826 347.969 702.51H349.969C349.969 699.181 348.585 696.466 345.882 694.449L344.685 696.051ZM347.969 702.51C347.969 704.356 347.518 705.919 346.648 707.24L348.319 708.34C349.429 706.654 349.969 704.698 349.969 702.51H347.969ZM346.655 707.231C345.774 708.536 344.562 709.558 342.99 710.294L343.837 712.106C345.712 711.228 347.214 709.977 348.312 708.349L346.655 707.231ZM342.99 710.294C341.42 711.029 339.589 711.41 337.474 711.41V713.41C339.831 713.41 341.96 712.984 343.837 712.106L342.99 710.294ZM338.381 712.83L339.426 710.575L337.611 709.735L336.566 711.99L338.381 712.83ZM338.519 711.155C340.828 711.155 342.834 711.54 344.557 712.283L345.35 710.447C343.333 709.577 341.05 709.155 338.519 709.155V711.155ZM344.573 712.29C346.277 712.991 347.56 714.025 348.467 715.385L350.131 714.275C348.983 712.555 347.37 711.279 345.334 710.44L344.573 712.29ZM348.476 715.398C349.403 716.741 349.894 718.421 349.894 720.495H351.894C351.894 718.096 351.321 715.999 350.121 714.262L348.476 715.398ZM349.894 720.495C349.894 723.484 348.738 725.762 346.405 727.438L347.572 729.062C350.446 726.998 351.894 724.106 351.894 720.495H349.894ZM346.413 727.432C344.051 729.096 340.459 730 335.494 730V732C340.648 732 344.72 731.071 347.564 729.068L346.413 727.432ZM335.494 730H315.584V732H335.494V730ZM324.439 725.29H334.834V723.29H324.439V725.29ZM334.834 725.29C337.219 725.29 339.182 724.917 340.589 724.038L339.529 722.342C338.588 722.93 337.068 723.29 334.834 723.29V725.29ZM340.595 724.034C342.141 723.05 342.874 721.491 342.874 719.56H340.874C340.874 720.929 340.396 721.79 339.522 722.346L340.595 724.034ZM342.874 719.56C342.874 717.655 342.134 716.12 340.595 715.141L339.522 716.829C340.403 717.39 340.874 718.238 340.874 719.56H342.874ZM340.625 715.161C339.211 714.188 337.231 713.775 334.834 713.775V715.775C337.056 715.775 338.56 716.168 339.492 716.809L340.625 715.161ZM334.834 713.775H323.779V715.775H334.834V713.775ZM324.779 714.775V708.285H322.779V714.775H324.779ZM323.779 709.285H333.294V707.285H323.779V709.285ZM333.294 709.285C335.544 709.285 337.417 708.908 338.786 708.025L337.701 706.345C336.796 706.929 335.37 707.285 333.294 707.285V709.285ZM338.792 708.021C340.278 707.046 341.004 705.558 341.004 703.72H339.004C339.004 704.962 338.556 705.784 337.695 706.349L338.792 708.021ZM341.004 703.72C341.004 701.908 340.268 700.451 338.774 699.517L337.714 701.213C338.565 701.745 339.004 702.526 339.004 703.72H341.004ZM338.804 699.537C337.432 698.607 335.551 698.21 333.294 698.21V700.21C335.363 700.21 336.782 700.583 337.683 701.193L338.804 699.537ZM333.294 698.21H324.439V700.21H333.294V698.21ZM323.439 699.21V724.29H325.439V699.21H323.439ZM357.639 731H356.639V732H357.639V731ZM357.639 692.5V691.5H356.639V692.5H357.639ZM366.549 692.5H367.549V691.5H366.549V692.5ZM366.549 723.74H365.549V724.74H366.549V723.74ZM385.854 723.74H386.854V722.74H385.854V723.74ZM385.854 731V732H386.854V731H385.854ZM358.639 731V692.5H356.639V731H358.639ZM357.639 693.5H366.549V691.5H357.639V693.5ZM365.549 692.5V723.74H367.549V692.5H365.549ZM366.549 724.74H385.854V722.74H366.549V724.74ZM384.854 723.74V731H386.854V723.74H384.854ZM385.854 730H357.639V732H385.854V730ZM390.833 731H389.833V732H390.833V731ZM390.833 692.5V691.5H389.833V692.5H390.833ZM399.743 692.5H400.743V691.5H399.743V692.5ZM399.743 731V732H400.743V731H399.743ZM391.833 731V692.5H389.833V731H391.833ZM390.833 693.5H399.743V691.5H390.833V693.5ZM398.743 692.5V731H400.743V692.5H398.743ZM399.743 730H390.833V732H399.743V730ZM418.999 730.23L418.635 731.161L418.643 731.164L418.651 731.167L418.999 730.23ZM412.399 726.05L411.707 726.771L412.399 726.05ZM407.999 719.725L407.079 720.116L407.084 720.127L407.999 719.725ZM407.999 703.775L407.084 703.373L407.079 703.384L407.999 703.775ZM412.399 697.45L411.714 696.722L411.707 696.729L412.399 697.45ZM419.054 693.325L419.407 694.261L419.419 694.256L419.054 693.325ZM436.379 693.6L435.978 694.516L435.985 694.519L435.993 694.522L436.379 693.6ZM443.199 698.66L443.878 699.395L444.571 698.755L443.973 698.026L443.199 698.66ZM437.479 703.94L436.728 704.6L437.404 705.37L438.158 704.675L437.479 703.94ZM433.079 700.585L432.649 701.487L432.657 701.492L432.666 701.495L433.079 700.585ZM418.944 702.84L419.652 703.547L418.944 702.84ZM416.359 706.745L415.436 706.362L415.432 706.372L415.428 706.381L416.359 706.745ZM416.359 716.755L415.428 717.119L415.432 717.128L415.436 717.138L416.359 716.755ZM418.944 720.66L418.237 721.367L418.944 720.66ZM433.079 722.97L433.493 723.88L433.502 723.877L433.51 723.872L433.079 722.97ZM437.479 719.505L438.158 718.77L437.395 718.066L436.72 718.854L437.479 719.505ZM443.199 724.785L443.973 725.419L444.571 724.69L443.878 724.05L443.199 724.785ZM436.379 729.9L435.983 728.982L435.978 728.984L436.379 729.9ZM427.304 730.66C424.443 730.66 421.794 730.201 419.348 729.293L418.651 731.167C421.338 732.166 424.226 732.66 427.304 732.66V730.66ZM419.364 729.299C416.95 728.354 414.863 727.03 413.092 725.329L411.707 726.771C413.676 728.663 415.989 730.126 418.635 731.161L419.364 729.299ZM413.092 725.329C411.319 723.625 409.927 721.625 408.915 719.323L407.084 720.127C408.199 722.665 409.74 724.882 411.707 726.771L413.092 725.329ZM408.92 719.334C407.951 717.05 407.459 714.526 407.459 711.75H405.459C405.459 714.767 405.995 717.56 407.079 720.116L408.92 719.334ZM407.459 711.75C407.459 708.974 407.951 706.45 408.92 704.166L407.079 703.384C405.995 705.94 405.459 708.733 405.459 711.75H407.459ZM408.915 704.177C409.927 701.875 411.319 699.875 413.092 698.171L411.707 696.729C409.74 698.618 408.199 700.835 407.084 703.373L408.915 704.177ZM413.085 698.178C414.893 696.475 416.997 695.169 419.407 694.261L418.702 692.389C416.052 693.388 413.72 694.832 411.714 696.722L413.085 698.178ZM419.419 694.256C421.821 693.316 424.464 692.84 427.359 692.84V690.84C424.241 690.84 421.348 691.354 418.69 692.394L419.419 694.256ZM427.359 692.84C430.577 692.84 433.445 693.405 435.978 694.516L436.781 692.684C433.961 691.448 430.815 690.84 427.359 690.84V692.84ZM435.993 694.522C438.558 695.597 440.698 697.186 442.426 699.294L443.973 698.026C442.034 695.661 439.627 693.876 436.766 692.678L435.993 694.522ZM442.521 697.925L436.801 703.205L438.158 704.675L443.878 699.395L442.521 697.925ZM438.231 703.28C436.829 701.684 435.251 700.474 433.493 699.675L432.666 701.495C434.134 702.163 435.489 703.189 436.728 704.6L438.231 703.28ZM433.51 699.683C431.753 698.844 429.845 698.43 427.799 698.43V700.43C429.567 700.43 431.179 700.786 432.649 701.487L433.51 699.683ZM427.799 698.43C425.892 698.43 424.118 698.742 422.486 699.378L423.213 701.242C424.588 700.705 426.113 700.43 427.799 700.43V698.43ZM422.486 699.378C420.859 700.013 419.439 700.931 418.237 702.133L419.652 703.547C420.65 702.549 421.834 701.78 423.213 701.242L422.486 699.378ZM418.237 702.133C417.04 703.33 416.107 704.743 415.436 706.362L417.283 707.128C417.859 705.74 418.649 704.55 419.652 703.547L418.237 702.133ZM415.428 706.381C414.79 708.015 414.479 709.809 414.479 711.75H416.479C416.479 710.024 416.755 708.481 417.291 707.109L415.428 706.381ZM414.479 711.75C414.479 713.691 414.79 715.485 415.428 717.119L417.291 716.391C416.755 715.019 416.479 713.476 416.479 711.75H414.479ZM415.436 717.138C416.107 718.757 417.04 720.17 418.237 721.367L419.652 719.953C418.649 718.95 417.859 717.76 417.283 716.372L415.436 717.138ZM418.237 721.367C419.439 722.569 420.859 723.487 422.486 724.122L423.213 722.258C421.834 721.72 420.65 720.951 419.652 719.953L418.237 721.367ZM422.486 724.122C424.118 724.758 425.892 725.07 427.799 725.07V723.07C426.113 723.07 424.588 722.795 423.213 722.258L422.486 724.122ZM427.799 725.07C429.838 725.07 431.74 724.677 433.493 723.88L432.666 722.06C431.192 722.73 429.574 723.07 427.799 723.07V725.07ZM433.51 723.872C435.265 723.035 436.84 721.787 438.239 720.156L436.72 718.854C435.479 720.303 434.12 721.365 432.649 722.068L433.51 723.872ZM436.801 720.24L442.521 725.52L443.878 724.05L438.158 718.77L436.801 720.24ZM442.426 724.151C440.696 726.262 438.553 727.871 435.983 728.982L436.776 730.818C439.633 729.583 442.036 727.782 443.973 725.419L442.426 724.151ZM435.978 728.984C433.446 730.094 430.561 730.66 427.304 730.66V732.66C430.795 732.66 433.96 732.053 436.781 730.816L435.978 728.984ZM443.458 731L442.545 730.593L441.918 732H443.458V731ZM460.618 692.5V691.5H459.969L459.705 692.093L460.618 692.5ZM469.418 692.5L470.331 692.092L470.066 691.5H469.418V692.5ZM486.633 731V732H488.176L487.546 730.592L486.633 731ZM477.283 731L476.359 731.383L476.615 732H477.283V731ZM463.203 697.01V696.01H461.706L462.279 697.393L463.203 697.01ZM466.723 697.01L467.646 697.394L468.222 696.01H466.723V697.01ZM452.588 731V732H453.255L453.511 731.384L452.588 731ZM452.038 722.75L451.094 722.42L450.629 723.75H452.038V722.75ZM454.403 715.985V714.985H453.693L453.459 715.655L454.403 715.985ZM474.203 715.985L475.145 715.648L474.907 714.985H474.203V715.985ZM476.623 722.75V723.75H478.043L477.565 722.413L476.623 722.75ZM444.372 731.407L461.532 692.907L459.705 692.093L442.545 730.593L444.372 731.407ZM460.618 693.5H469.418V691.5H460.618V693.5ZM468.505 692.908L485.72 731.408L487.546 730.592L470.331 692.092L468.505 692.908ZM486.633 730H477.283V732H486.633V730ZM478.207 730.617L464.127 696.627L462.279 697.393L476.359 731.383L478.207 730.617ZM463.203 698.01H466.723V696.01H463.203V698.01ZM465.8 696.626L451.665 730.616L453.511 731.384L467.646 697.394L465.8 696.626ZM452.588 730H443.458V732H452.588V730ZM452.982 723.08L455.347 716.315L453.459 715.655L451.094 722.42L452.982 723.08ZM454.403 716.985H474.203V714.985H454.403V716.985ZM473.262 716.322L475.682 723.087L477.565 722.413L475.145 715.648L473.262 716.322ZM476.623 721.75H452.038V723.75H476.623V721.75ZM496.669 731H495.669V732H496.669V731ZM496.669 699.76H497.669V698.76H496.669V699.76ZM484.349 699.76H483.349V700.76H484.349V699.76ZM484.349 692.5V691.5H483.349V692.5H484.349ZM517.899 692.5H518.899V691.5H517.899V692.5ZM517.899 699.76V700.76H518.899V699.76H517.899ZM505.579 699.76V698.76H504.579V699.76H505.579ZM505.579 731V732H506.579V731H505.579ZM497.669 731V699.76H495.669V731H497.669ZM496.669 698.76H484.349V700.76H496.669V698.76ZM485.349 699.76V692.5H483.349V699.76H485.349ZM484.349 693.5H517.899V691.5H484.349V693.5ZM516.899 692.5V699.76H518.899V692.5H516.899ZM517.899 698.76H505.579V700.76H517.899V698.76ZM504.579 699.76V731H506.579V699.76H504.579ZM505.579 730H496.669V732H505.579V730ZM522.693 731H521.693V732H522.693V731ZM522.693 692.5V691.5H521.693V692.5H522.693ZM531.603 692.5H532.603V691.5H531.603V692.5ZM531.603 731V732H532.603V731H531.603ZM523.693 731V692.5H521.693V731H523.693ZM522.693 693.5H531.603V691.5H522.693V693.5ZM530.603 692.5V731H532.603V692.5H530.603ZM531.603 730H522.693V732H531.603V730ZM550.97 730.175L550.61 731.108L550.614 731.11L550.97 730.175ZM544.26 725.995L543.567 726.716L543.574 726.723L544.26 725.995ZM539.86 719.67L538.939 720.061L538.944 720.072L539.86 719.67ZM539.86 703.83L538.944 703.428L538.939 703.439L539.86 703.83ZM551.025 693.325L550.665 692.392V692.392L551.025 693.325ZM567.745 693.325L567.38 694.256L567.385 694.258L567.745 693.325ZM574.4 697.505L573.707 698.226L573.714 698.233L574.4 697.505ZM578.855 703.83L577.939 704.232L577.942 704.237L578.855 703.83ZM578.855 719.725L579.77 720.127L579.773 720.122L578.855 719.725ZM574.4 726.05L575.085 726.778L575.086 726.778L574.4 726.05ZM567.745 730.175L567.385 729.242L567.38 729.244L567.745 730.175ZM564.115 723.19L563.743 722.261L563.735 722.265L564.115 723.19ZM567.965 720.66L567.258 719.953L567.965 720.66ZM570.495 716.755L569.571 716.372L569.567 716.382L569.563 716.391L570.495 716.755ZM570.495 706.745L569.563 707.109L569.567 707.118L569.571 707.128L570.495 706.745ZM567.965 702.84L567.246 703.535L567.252 703.541L567.258 703.547L567.965 702.84ZM564.17 700.31L563.798 701.238L564.17 700.31ZM554.6 700.31L554.228 699.381L554.22 699.385L554.6 700.31ZM550.805 702.84L551.512 703.547L550.805 702.84ZM548.22 706.745L547.296 706.362L547.292 706.372L547.288 706.381L548.22 706.745ZM548.22 716.755L547.285 717.111L547.29 717.125L547.296 717.138L548.22 716.755ZM550.75 720.66L550.031 721.355L550.037 721.361L550.043 721.367L550.75 720.66ZM554.6 723.19L554.228 724.118L554.6 723.19ZM559.44 730.66C556.507 730.66 553.805 730.183 551.325 729.24L550.614 731.11C553.341 732.147 556.286 732.66 559.44 732.66V730.66ZM551.33 729.242C548.878 728.296 546.753 726.971 544.946 725.267L543.574 726.723C545.58 728.613 547.928 730.074 550.61 731.108L551.33 729.242ZM544.953 725.274C543.179 723.57 541.787 721.57 540.775 719.268L538.944 720.072C540.059 722.61 541.601 724.827 543.567 726.716L544.953 725.274ZM540.78 719.279C539.811 716.993 539.32 714.488 539.32 711.75H537.32C537.32 714.732 537.856 717.507 538.939 720.061L540.78 719.279ZM539.32 711.75C539.32 709.012 539.811 706.507 540.78 704.221L538.939 703.439C537.856 705.993 537.32 708.768 537.32 711.75H539.32ZM540.775 704.232C541.785 701.934 543.192 699.937 545.001 698.233L543.629 696.777C541.624 698.667 540.061 700.886 538.944 703.428L540.775 704.232ZM545.001 698.233C546.808 696.529 548.933 695.204 551.385 694.258L550.665 692.392C547.983 693.426 545.635 694.887 543.629 696.777L545.001 698.233ZM551.385 694.258C553.826 693.316 556.49 692.84 559.385 692.84V690.84C556.267 690.84 553.357 691.354 550.665 692.392L551.385 694.258ZM559.385 692.84C562.318 692.84 564.98 693.317 567.38 694.256L568.109 692.394C565.45 691.353 562.538 690.84 559.385 690.84V692.84ZM567.385 694.258C569.835 695.203 571.939 696.527 573.707 698.226L575.093 696.784C573.121 694.89 570.788 693.427 568.105 692.392L567.385 694.258ZM573.714 698.233C575.522 699.937 576.929 701.934 577.939 704.232L579.77 703.428C578.654 700.886 577.091 698.667 575.086 696.777L573.714 698.233ZM577.942 704.237C578.942 706.479 579.45 708.978 579.45 711.75H581.45C581.45 708.728 580.895 705.948 579.768 703.423L577.942 704.237ZM579.45 711.75C579.45 714.483 578.943 717.005 577.937 719.328L579.773 720.122C580.894 717.532 581.45 714.737 581.45 711.75H579.45ZM577.939 719.323C576.929 721.621 575.522 723.618 573.714 725.322L575.086 726.778C577.091 724.888 578.654 722.669 579.77 720.127L577.939 719.323ZM573.714 725.322C571.945 726.987 569.84 728.295 567.385 729.242L568.105 731.108C570.783 730.075 573.114 728.633 575.085 726.778L573.714 725.322ZM567.38 729.244C564.978 730.184 562.335 730.66 559.44 730.66V732.66C562.558 732.66 565.451 732.146 568.109 731.106L567.38 729.244ZM559.385 725.07C561.223 725.07 562.931 724.757 564.494 724.115L563.735 722.265C562.439 722.797 560.993 723.07 559.385 723.07V725.07ZM564.486 724.118C566.077 723.482 567.475 722.564 568.672 721.367L567.258 719.953C566.255 720.956 565.086 721.724 563.743 722.262L564.486 724.118ZM568.672 721.367C569.873 720.166 570.791 718.746 571.426 717.119L569.563 716.391C569.025 717.771 568.256 718.954 567.258 719.953L568.672 721.367ZM571.419 717.138C572.098 715.499 572.43 713.698 572.43 711.75H570.43C570.43 713.468 570.138 715.005 569.571 716.372L571.419 717.138ZM572.43 711.75C572.43 709.802 572.098 708.001 571.419 706.362L569.571 707.128C570.138 708.495 570.43 710.032 570.43 711.75H572.43ZM571.426 706.381C570.791 704.754 569.873 703.334 568.672 702.133L567.258 703.547C568.256 704.546 569.025 705.729 569.563 707.109L571.426 706.381ZM568.684 702.145C567.519 700.94 566.135 700.019 564.541 699.382L563.798 701.238C565.138 701.774 566.284 702.54 567.246 703.535L568.684 702.145ZM564.541 699.382C562.946 698.743 561.224 698.43 559.385 698.43V700.43C560.993 700.43 562.46 700.703 563.798 701.238L564.541 699.382ZM559.385 698.43C557.546 698.43 555.824 698.743 554.228 699.382L554.971 701.238C556.309 700.703 557.777 700.43 559.385 700.43V698.43ZM554.22 699.385C552.667 700.022 551.291 700.94 550.098 702.133L551.512 703.547C552.519 702.54 553.673 701.771 554.979 701.235L554.22 699.385ZM550.098 702.133C548.901 703.33 547.967 704.743 547.296 706.362L549.144 707.128C549.719 705.74 550.509 704.55 551.512 703.547L550.098 702.133ZM547.288 706.381C546.651 708.015 546.34 709.809 546.34 711.75H548.34C548.34 710.024 548.616 708.481 549.151 707.109L547.288 706.381ZM546.34 711.75C546.34 713.657 546.652 715.447 547.285 717.111L549.154 716.399C548.615 714.983 548.34 713.436 548.34 711.75H546.34ZM547.296 717.138C547.964 718.75 548.875 720.159 550.031 721.355L551.469 719.965C550.498 718.961 549.722 717.767 549.144 716.372L547.296 717.138ZM550.043 721.367C551.24 722.564 552.638 723.482 554.228 724.118L554.971 722.262C553.628 721.724 552.46 720.956 551.457 719.953L550.043 721.367ZM554.228 724.118C555.824 724.757 557.546 725.07 559.385 725.07V723.07C557.777 723.07 556.309 722.797 554.971 722.262L554.228 724.118ZM587.146 731H586.146V732H587.146V731ZM587.146 692.5V691.5H586.146V692.5H587.146ZM594.516 692.5L595.29 691.866L594.989 691.5H594.516V692.5ZM617.231 720.22V721.22H619.343L618.005 719.586L617.231 720.22ZM613.656 720.22H612.656V721.22H613.656V720.22ZM613.656 692.5V691.5H612.656V692.5H613.656ZM622.456 692.5H623.456V691.5H622.456V692.5ZM622.456 731V732H623.456V731H622.456ZM615.141 731L614.368 731.635L614.668 732H615.141V731ZM592.371 703.28V702.28H590.255L591.598 703.915L592.371 703.28ZM595.946 703.28H596.946V702.28H595.946V703.28ZM595.946 731V732H596.946V731H595.946ZM588.146 731V692.5H586.146V731H588.146ZM587.146 693.5H594.516V691.5H587.146V693.5ZM593.743 693.134L616.458 720.854L618.005 719.586L595.29 691.866L593.743 693.134ZM617.231 719.22H613.656V721.22H617.231V719.22ZM614.656 720.22V692.5H612.656V720.22H614.656ZM613.656 693.5H622.456V691.5H613.656V693.5ZM621.456 692.5V731H623.456V692.5H621.456ZM622.456 730H615.141V732H622.456V730ZM615.914 730.365L593.144 702.645L591.598 703.915L614.368 731.635L615.914 730.365ZM592.371 704.28H595.946V702.28H592.371V704.28ZM594.946 703.28V731H596.946V703.28H594.946ZM595.946 730H587.146V732H595.946V730ZM228.947 797.285L228.563 798.208L228.947 797.285ZM223.722 793.545L222.947 794.176L223.722 793.545ZM223.062 782.985L223.935 783.474L223.939 783.465L223.062 782.985ZM227.077 778.695L227.662 779.507L227.672 779.499L227.077 778.695ZM234.062 774.735L234.476 775.645L234.483 775.642L234.062 774.735ZM238.902 772.205L239.432 773.053V773.053L238.902 772.205ZM241.377 770.115L242.188 770.7L242.196 770.69L242.203 770.68L241.377 770.115ZM241.102 765.715L240.417 766.443L240.427 766.453L240.438 766.462L241.102 765.715ZM235.217 765.825L234.548 765.082L235.217 765.825ZM234.447 770.005L233.519 770.376L233.523 770.388L233.528 770.399L234.447 770.005ZM235.712 771.82L234.967 772.487L234.976 772.497L234.985 772.507L235.712 771.82ZM238.352 774.405L237.669 775.135L237.673 775.138L238.352 774.405ZM258.647 793.215L259.406 793.866L260.033 793.136L259.327 792.482L258.647 793.215ZM253.972 798.66L253.292 799.393L254.054 800.1L254.731 799.311L253.972 798.66ZM231.587 777.87L232.268 777.137L232.262 777.132L231.587 777.87ZM226.802 771.545L225.854 771.861L225.859 771.877L225.865 771.892L226.802 771.545ZM227.792 763.515L226.97 762.946H226.97L227.792 763.515ZM231.972 760.215L232.366 761.134L232.374 761.131L232.382 761.127L231.972 760.215ZM244.072 760.105L243.659 761.015L243.671 761.021L243.683 761.026L244.072 760.105ZM247.922 763.13L247.101 763.7L247.106 763.708L247.112 763.715L247.922 763.13ZM248.142 772.315L248.996 772.836L249.002 772.826L248.142 772.315ZM244.347 776.055L243.785 775.228L243.776 775.234L244.347 776.055ZM237.692 779.63L237.29 778.715L237.281 778.718L237.692 779.63ZM233.237 782.105L233.824 782.915L233.829 782.911L233.237 782.105ZM230.927 784.47L230.066 783.961L230.927 784.47ZM231.037 789.64L230.237 790.24L230.247 790.252L230.257 790.265L231.037 789.64ZM233.457 791.345L233.823 790.414L233.457 791.345ZM243.247 790.41L243.729 791.287L243.735 791.283L243.742 791.279L243.247 790.41ZM247.977 785.735L247.132 785.201L247.129 785.205L247.977 785.735ZM250.782 778.145L251.08 777.19L250.004 776.855L249.799 777.963L250.782 778.145ZM257.657 780.29L258.637 780.492L258.819 779.605L257.955 779.335L257.657 780.29ZM253.532 790.025L252.721 789.441L253.532 790.025ZM246.217 796.405L245.757 795.517L246.217 796.405ZM236.482 797.66C233.767 797.66 231.39 797.219 229.332 796.362L228.563 798.208C230.905 799.184 233.551 799.66 236.482 799.66V797.66ZM229.332 796.362C227.258 795.498 225.66 794.342 224.498 792.914L222.947 794.176C224.351 795.901 226.237 797.239 228.563 798.208L229.332 796.362ZM224.498 792.914C223.361 791.517 222.797 789.926 222.797 788.1H220.797C220.797 790.381 221.517 792.419 222.947 794.176L224.498 792.914ZM222.797 788.1C222.797 786.346 223.184 784.813 223.935 783.474L222.19 782.496C221.254 784.164 220.797 786.041 220.797 788.1H222.797ZM223.939 783.465C224.694 782.088 225.916 780.763 227.662 779.507L226.493 777.883C224.572 779.267 223.118 780.802 222.185 782.505L223.939 783.465ZM227.672 779.499C229.433 778.196 231.696 776.909 234.476 775.645L233.649 773.825C230.782 775.127 228.388 776.481 226.483 777.891L227.672 779.499ZM234.483 775.642C236.554 774.681 238.209 773.818 239.432 773.053L238.372 771.357C237.249 772.059 235.677 772.883 233.641 773.828L234.483 775.642ZM239.432 773.053C240.649 772.292 241.601 771.514 242.188 770.7L240.567 769.53C240.201 770.036 239.502 770.651 238.372 771.357L239.432 773.053ZM242.203 770.68C242.769 769.852 243.092 768.963 243.092 768.025H241.092C241.092 768.481 240.939 768.984 240.552 769.55L242.203 770.68ZM243.092 768.025C243.092 766.812 242.659 765.76 241.767 764.968L240.438 766.462C240.866 766.843 241.092 767.332 241.092 768.025H243.092ZM241.788 764.987C240.909 764.16 239.684 763.835 238.297 763.835V765.835C239.404 765.835 240.049 766.097 240.417 766.443L241.788 764.987ZM238.297 763.835C236.815 763.835 235.52 764.207 234.548 765.082L235.886 766.568C236.382 766.123 237.14 765.835 238.297 765.835V763.835ZM234.548 765.082C233.595 765.94 233.117 767.058 233.117 768.355H235.117C235.117 767.599 235.373 767.03 235.886 766.568L234.548 765.082ZM233.117 768.355C233.117 769.042 233.255 769.717 233.519 770.376L235.376 769.634C235.199 769.193 235.117 768.768 235.117 768.355H233.117ZM233.528 770.399C233.81 771.057 234.313 771.756 234.967 772.487L236.458 771.153C235.865 770.491 235.525 769.98 235.367 769.611L233.528 770.399ZM234.985 772.507C235.629 773.188 236.526 774.066 237.669 775.135L239.036 773.675C237.905 772.617 237.042 771.772 236.439 771.133L234.985 772.507ZM237.673 775.138L257.968 793.948L259.327 792.482L239.032 773.672L237.673 775.138ZM257.889 792.564L253.214 798.009L254.731 799.311L259.406 793.866L257.889 792.564ZM254.653 797.927L232.268 777.137L230.907 778.603L253.292 799.393L254.653 797.927ZM232.262 777.132C231.01 775.987 230.03 774.933 229.307 773.97L227.707 775.17C228.525 776.26 229.598 777.406 230.913 778.608L232.262 777.132ZM229.307 773.97C228.583 773.004 228.067 772.08 227.74 771.198L225.865 771.892C226.271 772.99 226.892 774.082 227.707 775.17L229.307 773.97ZM227.751 771.229C227.456 770.343 227.307 769.423 227.307 768.465H225.307C225.307 769.634 225.489 770.767 225.854 771.861L227.751 771.229ZM227.307 768.465C227.307 766.782 227.749 765.334 228.615 764.084L226.97 762.946C225.856 764.556 225.307 766.408 225.307 768.465H227.307ZM228.615 764.084C229.485 762.827 230.72 761.84 232.366 761.134L231.578 759.296C229.631 760.13 228.08 761.343 226.97 762.946L228.615 764.084ZM232.382 761.127C234.024 760.39 235.987 760.005 238.297 760.005V758.005C235.768 758.005 233.514 758.427 231.563 759.303L232.382 761.127ZM238.297 760.005C240.428 760.005 242.205 760.354 243.659 761.015L244.486 759.195C242.714 758.389 240.641 758.005 238.297 758.005V760.005ZM243.683 761.026C245.18 761.658 246.304 762.553 247.101 763.7L248.744 762.56C247.707 761.067 246.265 759.945 244.461 759.184L243.683 761.026ZM247.112 763.715C247.927 764.844 248.352 766.209 248.352 767.86H250.352C250.352 765.844 249.825 764.056 248.733 762.545L247.112 763.715ZM248.352 767.86C248.352 769.298 247.995 770.605 247.283 771.804L249.002 772.826C249.903 771.311 250.352 769.649 250.352 767.86H248.352ZM247.289 771.794C246.578 772.958 245.429 774.109 243.785 775.228L244.91 776.882C246.712 775.655 248.094 774.312 248.996 772.836L247.289 771.794ZM243.776 775.234C242.161 776.358 240.005 777.52 237.29 778.715L238.095 780.545C240.88 779.32 243.161 778.099 244.918 776.876L243.776 775.234ZM237.281 778.718C235.376 779.578 233.823 780.436 232.646 781.299L233.829 782.911C234.852 782.161 236.269 781.369 238.103 780.542L237.281 778.718ZM232.651 781.295C231.518 782.115 230.635 782.999 230.066 783.961L231.788 784.979C232.173 784.328 232.83 783.635 233.824 782.915L232.651 781.295ZM230.066 783.961C229.494 784.931 229.212 786.007 229.212 787.165H231.212C231.212 786.343 231.408 785.622 231.788 784.979L230.066 783.961ZM229.212 787.165C229.212 788.298 229.558 789.334 230.237 790.24L231.837 789.04C231.417 788.48 231.212 787.865 231.212 787.165H229.212ZM230.257 790.265C230.97 791.157 231.931 791.82 233.092 792.276L233.823 790.414C232.931 790.064 232.278 789.59 231.818 789.015L230.257 790.265ZM233.092 792.276C234.261 792.735 235.601 792.95 237.087 792.95V790.95C235.788 790.95 234.707 790.762 233.823 790.414L233.092 792.276ZM237.087 792.95C239.484 792.95 241.704 792.398 243.729 791.287L242.766 789.533C241.051 790.475 239.164 790.95 237.087 790.95V792.95ZM243.742 791.279C245.773 790.124 247.465 788.441 248.825 786.265L247.129 785.205C245.923 787.136 244.462 788.569 242.753 789.541L243.742 791.279ZM248.823 786.269C250.224 784.051 251.198 781.395 251.766 778.327L249.799 777.963C249.267 780.835 248.371 783.239 247.132 785.201L248.823 786.269ZM250.485 779.1L257.36 781.245L257.955 779.335L251.08 777.19L250.485 779.1ZM256.678 780.088C255.933 783.708 254.609 786.819 252.721 789.441L254.344 790.609C256.416 787.731 257.842 784.352 258.637 780.492L256.678 780.088ZM252.721 789.441C250.829 792.069 248.509 794.089 245.757 795.517L246.678 797.293C249.719 795.714 252.276 793.481 254.344 790.609L252.721 789.441ZM245.757 795.517C243.016 796.94 239.932 797.66 236.482 797.66V799.66C240.22 799.66 243.625 798.877 246.678 797.293L245.757 795.517ZM279.973 798H278.973V799H279.973V798ZM279.973 759.5V758.5H278.973V759.5H279.973ZM287.343 759.5L288.199 758.983L287.908 758.5H287.343V759.5ZM303.733 786.67V787.67H305.504L304.589 786.153L303.733 786.67ZM299.828 786.67L298.968 786.16L298.072 787.67H299.828V786.67ZM315.943 759.5V758.5H315.374L315.083 758.99L315.943 759.5ZM323.258 759.5L324.258 759.497L324.255 758.5H323.258V759.5ZM323.368 798V799H324.371L324.368 797.997L323.368 798ZM315.008 798L314.008 798.002L314.01 799H315.008V798ZM314.953 772.315V771.315H313.951L313.953 772.317L314.953 772.315ZM316.493 772.315L317.352 772.827L318.252 771.315H316.493V772.315ZM303.623 793.93V794.93H304.192L304.482 794.442L303.623 793.93ZM299.608 793.93L298.754 794.45L299.046 794.93H299.608V793.93ZM286.463 772.315V771.315H284.685L285.609 772.835L286.463 772.315ZM288.333 772.315H289.333V771.315H288.333V772.315ZM288.333 798V799H289.333V798H288.333ZM280.973 798V759.5H278.973V798H280.973ZM279.973 760.5H287.343V758.5H279.973V760.5ZM286.487 760.017L302.877 787.187L304.589 786.153L288.199 758.983L286.487 760.017ZM303.733 785.67H299.828V787.67H303.733V785.67ZM300.688 787.18L316.803 760.01L315.083 758.99L298.968 786.16L300.688 787.18ZM315.943 760.5H323.258V758.5H315.943V760.5ZM322.258 759.503L322.368 798.003L324.368 797.997L324.258 759.497L322.258 759.503ZM323.368 797H315.008V799H323.368V797ZM316.008 797.998L315.953 772.313L313.953 772.317L314.008 798.002L316.008 797.998ZM314.953 773.315H316.493V771.315H314.953V773.315ZM315.634 771.803L302.764 793.418L304.482 794.442L317.352 772.827L315.634 771.803ZM303.623 792.93H299.608V794.93H303.623V792.93ZM300.463 793.41L287.318 771.795L285.609 772.835L298.754 794.45L300.463 793.41ZM286.463 773.315H288.333V771.315H286.463V773.315ZM287.333 772.315V798H289.333V772.315H287.333ZM288.333 797H279.973V799H288.333V797ZM327.442 798L326.529 797.593L325.902 799H327.442V798ZM344.603 759.5V758.5H343.953L343.689 759.093L344.603 759.5ZM353.402 759.5L354.315 759.092L354.051 758.5H353.402V759.5ZM370.618 798V799H372.16L371.53 797.592L370.618 798ZM361.268 798L360.344 798.383L360.599 799H361.268V798ZM347.188 764.01V763.01H345.691L346.264 764.393L347.188 764.01ZM350.708 764.01L351.631 764.394L352.206 763.01H350.708V764.01ZM336.573 798V799H337.24L337.496 798.384L336.573 798ZM336.022 789.75L335.079 789.42L334.614 790.75H336.022V789.75ZM338.387 782.985V781.985H337.678L337.444 782.655L338.387 782.985ZM358.188 782.985L359.129 782.648L358.892 781.985H358.188V782.985ZM360.607 789.75V790.75H362.027L361.549 789.413L360.607 789.75ZM328.356 798.407L345.516 759.907L343.689 759.093L326.529 797.593L328.356 798.407ZM344.603 760.5H353.402V758.5H344.603V760.5ZM352.49 759.908L369.705 798.408L371.53 797.592L354.315 759.092L352.49 759.908ZM370.618 797H361.268V799H370.618V797ZM362.191 797.617L348.111 763.627L346.264 764.393L360.344 798.383L362.191 797.617ZM347.188 765.01H350.708V763.01H347.188V765.01ZM349.784 763.626L335.649 797.616L337.496 798.384L351.631 764.394L349.784 763.626ZM336.573 797H327.442V799H336.573V797ZM336.966 790.08L339.331 783.315L337.444 782.655L335.079 789.42L336.966 790.08ZM338.387 783.985H358.188V781.985H338.387V783.985ZM357.246 783.322L359.666 790.087L361.549 789.413L359.129 782.648L357.246 783.322ZM360.607 788.75H336.022V790.75H360.607V788.75ZM374.612 798H373.612V799H374.612V798ZM374.612 759.5V758.5H373.612V759.5H374.612ZM400.187 761.205L399.772 762.115L399.783 762.12L400.187 761.205ZM405.962 765.99L405.123 766.534L405.962 765.99ZM405.962 780.895L406.796 781.446L406.801 781.439L405.962 780.895ZM400.187 785.625L400.591 786.54L400.187 785.625ZM379.562 787.275L378.86 786.563L377.124 788.275H379.562V787.275ZM383.522 783.37H384.522V780.979L382.82 782.658L383.522 783.37ZM383.522 798V799H384.522V798H383.522ZM399.087 798L398.263 798.567L398.561 799H399.087V798ZM389.462 784.03V783.03H387.559L388.638 784.597L389.462 784.03ZM398.977 784.03L399.797 783.458L399.499 783.03H398.977V784.03ZM408.712 798V799H410.628L409.532 797.428L408.712 798ZM383.522 784.36L382.796 785.048L384.522 786.87V784.36H383.522ZM379.562 780.18V779.18H377.237L378.836 780.868L379.562 780.18ZM396.942 778.42L397.596 779.176L397.602 779.171L397.607 779.166L396.942 778.42ZM379.562 766.76L378.831 766.077L377.258 767.76H379.562V766.76ZM383.522 762.525H384.522V759.991L382.791 761.842L383.522 762.525ZM375.612 798V759.5H373.612V798H375.612ZM374.612 760.5H391.277V758.5H374.612V760.5ZM391.277 760.5C394.616 760.5 397.438 761.051 399.772 762.115L400.602 760.295C397.949 759.086 394.831 758.5 391.277 758.5V760.5ZM399.783 762.12C402.116 763.149 403.882 764.623 405.123 766.534L406.801 765.446C405.328 763.177 403.244 761.461 400.591 760.29L399.783 762.12ZM405.123 766.534C406.358 768.437 406.997 770.734 406.997 773.47H408.997C408.997 770.412 408.279 767.723 406.801 765.446L405.123 766.534ZM406.997 773.47C406.997 776.166 406.36 778.446 405.123 780.351L406.801 781.439C408.277 779.164 408.997 776.494 408.997 773.47H406.997ZM405.128 780.344C403.888 782.22 402.121 783.679 399.783 784.71L400.591 786.54C403.24 785.371 405.323 783.677 406.796 781.446L405.128 780.344ZM399.783 784.71C397.446 785.741 394.62 786.275 391.277 786.275V788.275C394.827 788.275 397.941 787.709 400.591 786.54L399.783 784.71ZM391.277 786.275H379.562V788.275H391.277V786.275ZM380.264 787.987L384.224 784.082L382.82 782.658L378.86 786.563L380.264 787.987ZM382.522 783.37V798H384.522V783.37H382.522ZM383.522 797H374.612V799H383.522V797ZM399.91 797.433L390.285 783.463L388.638 784.597L398.263 798.567L399.91 797.433ZM389.462 785.03H398.977V783.03H389.462V785.03ZM398.156 784.602L407.891 798.572L409.532 797.428L399.797 783.458L398.156 784.602ZM408.712 797H399.087V799H408.712V797ZM384.248 783.672L380.288 779.492L378.836 780.868L382.796 785.048L384.248 783.672ZM379.562 781.18H390.782V779.18H379.562V781.18ZM390.782 781.18C393.649 781.18 395.982 780.572 397.596 779.176L396.288 777.664C395.188 778.615 393.415 779.18 390.782 779.18V781.18ZM397.607 779.166C399.21 777.737 399.977 775.798 399.977 773.47H397.977C397.977 775.322 397.387 776.683 396.276 777.674L397.607 779.166ZM399.977 773.47C399.977 771.112 399.214 769.163 397.596 767.764L396.288 769.276C397.384 770.224 397.977 771.574 397.977 773.47H399.977ZM397.596 767.764C395.982 766.368 393.649 765.76 390.782 765.76V767.76C393.415 767.76 395.188 768.325 396.288 769.276L397.596 767.764ZM390.782 765.76H379.562V767.76H390.782V765.76ZM380.292 767.443L384.252 763.208L382.791 761.842L378.831 766.077L380.292 767.443ZM382.522 762.525V784.36H384.522V762.525H382.522ZM423.031 789.2L422.032 789.248L422.144 791.571L423.753 789.892L423.031 789.2ZM422.536 778.915L421.811 778.227L421.517 778.536L421.537 778.963L422.536 778.915ZM440.961 759.5V758.5H440.532L440.236 758.812L440.961 759.5ZM450.861 759.5L451.594 760.181L453.156 758.5H450.861V759.5ZM434.251 777.375L434.981 778.059L434.984 778.056L434.251 777.375ZM429.301 782.655L430.023 783.347L430.031 783.339L429.301 782.655ZM415.056 798H414.056V799H415.056V798ZM415.056 759.5V758.5H414.056V759.5H415.056ZM423.911 759.5H424.911V758.5H423.911V759.5ZM423.911 798V799H424.911V798H423.911ZM441.401 798L440.627 798.632L440.927 799H441.401V798ZM427.706 781.225L426.971 780.547L426.383 781.185L426.932 781.857L427.706 781.225ZM433.536 774.9L434.321 774.28L433.595 773.361L432.801 774.222L433.536 774.9ZM451.796 798V799H453.861L452.581 797.38L451.796 798ZM424.03 789.152L423.535 778.867L421.537 778.963L422.032 789.248L424.03 789.152ZM423.262 779.603L441.687 760.188L440.236 758.812L421.811 778.227L423.262 779.603ZM440.961 760.5H450.861V758.5H440.961V760.5ZM450.129 758.819L433.519 776.694L434.984 778.056L451.594 760.181L450.129 758.819ZM433.522 776.691L428.572 781.971L430.031 783.339L434.981 778.059L433.522 776.691ZM428.579 781.963L422.309 788.508L423.753 789.892L430.023 783.347L428.579 781.963ZM416.056 798V759.5H414.056V798H416.056ZM415.056 760.5H423.911V758.5H415.056V760.5ZM422.911 759.5V798H424.911V759.5H422.911ZM423.911 797H415.056V799H423.911V797ZM442.176 797.368L428.481 780.593L426.932 781.857L440.627 798.632L442.176 797.368ZM428.442 781.903L434.271 775.578L432.801 774.222L426.971 780.547L428.442 781.903ZM432.752 775.52L451.012 798.62L452.581 797.38L434.321 774.28L432.752 775.52ZM451.796 797H441.401V799H451.796V797ZM463.964 775.01V774.01H462.964V775.01H463.964ZM482.499 775.01H483.499V774.01H482.499V775.01ZM482.499 781.94V782.94H483.499V781.94H482.499ZM463.964 781.94H462.964V782.94H463.964V781.94ZM464.624 790.85H463.624V791.85H464.624V790.85ZM485.579 790.85H486.579V789.85H485.579V790.85ZM485.579 798V799H486.579V798H485.579ZM455.769 798H454.769V799H455.769V798ZM455.769 759.5V758.5H454.769V759.5H455.769ZM484.864 759.5H485.864V758.5H484.864V759.5ZM484.864 766.65V767.65H485.864V766.65H484.864ZM464.624 766.65V765.65H463.624V766.65H464.624ZM463.964 776.01H482.499V774.01H463.964V776.01ZM481.499 775.01V781.94H483.499V775.01H481.499ZM482.499 780.94H463.964V782.94H482.499V780.94ZM464.964 781.94V775.01H462.964V781.94H464.964ZM464.624 791.85H485.579V789.85H464.624V791.85ZM484.579 790.85V798H486.579V790.85H484.579ZM485.579 797H455.769V799H485.579V797ZM456.769 798V759.5H454.769V798H456.769ZM455.769 760.5H484.864V758.5H455.769V760.5ZM483.864 759.5V766.65H485.864V759.5H483.864ZM484.864 765.65H464.624V767.65H484.864V765.65ZM463.624 766.65V790.85H465.624V766.65H463.624ZM500.644 798H499.644V799H500.644V798ZM500.644 766.76H501.644V765.76H500.644V766.76ZM488.324 766.76H487.324V767.76H488.324V766.76ZM488.324 759.5V758.5H487.324V759.5H488.324ZM521.874 759.5H522.874V758.5H521.874V759.5ZM521.874 766.76V767.76H522.874V766.76H521.874ZM509.554 766.76V765.76H508.554V766.76H509.554ZM509.554 798V799H510.554V798H509.554ZM501.644 798V766.76H499.644V798H501.644ZM500.644 765.76H488.324V767.76H500.644V765.76ZM489.324 766.76V759.5H487.324V766.76H489.324ZM488.324 760.5H521.874V758.5H488.324V760.5ZM520.874 759.5V766.76H522.874V759.5H520.874ZM521.874 765.76H509.554V767.76H521.874V765.76ZM508.554 766.76V798H510.554V766.76H508.554ZM509.554 797H500.644V799H509.554V797ZM526.668 798H525.668V799H526.668V798ZM526.668 759.5V758.5H525.668V759.5H526.668ZM535.578 759.5H536.578V758.5H535.578V759.5ZM535.578 798V799H536.578V798H535.578ZM527.668 798V759.5H525.668V798H527.668ZM526.668 760.5H535.578V758.5H526.668V760.5ZM534.578 759.5V798H536.578V759.5H534.578ZM535.578 797H526.668V799H535.578V797ZM544.714 798H543.714V799H544.714V798ZM544.714 759.5V758.5H543.714V759.5H544.714ZM552.084 759.5L552.858 758.866L552.558 758.5H552.084V759.5ZM574.799 787.22V788.22H576.912L575.573 786.586L574.799 787.22ZM571.224 787.22H570.224V788.22H571.224V787.22ZM571.224 759.5V758.5H570.224V759.5H571.224ZM580.024 759.5H581.024V758.5H580.024V759.5ZM580.024 798V799H581.024V798H580.024ZM572.709 798L571.937 798.635L572.237 799H572.709V798ZM549.939 770.28V769.28H547.824L549.167 770.915L549.939 770.28ZM553.514 770.28H554.514V769.28H553.514V770.28ZM553.514 798V799H554.514V798H553.514ZM545.714 798V759.5H543.714V798H545.714ZM544.714 760.5H552.084V758.5H544.714V760.5ZM551.311 760.134L574.026 787.854L575.573 786.586L552.858 758.866L551.311 760.134ZM574.799 786.22H571.224V788.22H574.799V786.22ZM572.224 787.22V759.5H570.224V787.22H572.224ZM571.224 760.5H580.024V758.5H571.224V760.5ZM579.024 759.5V798H581.024V759.5H579.024ZM580.024 797H572.709V799H580.024V797ZM573.482 797.365L550.712 769.645L549.167 770.915L571.937 798.635L573.482 797.365ZM549.939 771.28H553.514V769.28H549.939V771.28ZM552.514 770.28V798H554.514V770.28H552.514ZM553.514 797H544.714V799H553.514V797ZM599.308 797.23L598.944 798.161L598.952 798.164L598.96 798.167L599.308 797.23ZM592.653 793.05L591.961 793.771L591.968 793.778L592.653 793.05ZM588.253 786.725L587.333 787.116L587.338 787.127L588.253 786.725ZM588.253 770.775L587.338 770.373L587.333 770.384L588.253 770.775ZM592.708 764.45L593.394 765.178L592.708 764.45ZM599.418 760.325L599.767 761.262L599.778 761.258L599.418 760.325ZM617.073 760.545L616.687 761.467L616.691 761.469L617.073 760.545ZM624.003 765.495L624.682 766.23L625.393 765.573L624.76 764.841L624.003 765.495ZM618.283 770.775L617.558 771.464L618.237 772.178L618.962 771.51L618.283 770.775ZM613.718 767.53L613.312 768.444L613.321 768.448L613.329 768.451L613.718 767.53ZM599.198 769.84L598.503 769.121L598.497 769.127L598.491 769.133L599.198 769.84ZM596.613 773.745L595.69 773.362L595.686 773.372L595.682 773.381L596.613 773.745ZM596.613 783.7L595.682 784.064L595.686 784.073L595.69 784.083L596.613 783.7ZM599.198 787.66L598.48 788.355L598.491 788.367L598.503 788.379L599.198 787.66ZM603.158 790.19L602.795 791.122L602.802 791.124L603.158 790.19ZM613.333 790.245L613.65 791.194L613.662 791.189L613.333 790.245ZM618.228 787.33L619.014 786.712L618.368 785.89L617.576 786.572L618.228 787.33ZM623.288 793.765L623.891 794.563L624.705 793.949L624.074 793.147L623.288 793.765ZM615.973 797.395L615.684 796.438L615.68 796.439L615.973 797.395ZM615.148 792.61H614.148V793.478L615.008 793.6L615.148 792.61ZM615.148 778.145V777.145H614.148V778.145H615.148ZM623.288 778.145H624.288V777.145H623.288V778.145ZM623.288 793.765L623.148 794.755L624.288 794.917V793.765H623.288ZM607.723 797.66C604.786 797.66 602.1 797.2 599.657 796.293L598.96 798.167C601.65 799.167 604.574 799.66 607.723 799.66V797.66ZM599.673 796.299C597.257 795.354 595.149 794.028 593.339 792.322L591.968 793.778C593.971 795.665 596.299 797.126 598.944 798.161L599.673 796.299ZM593.346 792.329C591.572 790.625 590.181 788.625 589.169 786.323L587.338 787.127C588.453 789.665 589.994 791.882 591.961 793.771L593.346 792.329ZM589.174 786.334C588.205 784.05 587.713 781.526 587.713 778.75H585.713C585.713 781.767 586.249 784.56 587.333 787.116L589.174 786.334ZM587.713 778.75C587.713 775.974 588.205 773.45 589.174 771.166L587.333 770.384C586.249 772.94 585.713 775.733 585.713 778.75H587.713ZM589.169 771.177C590.179 768.879 591.586 766.882 593.394 765.178L592.023 763.722C590.017 765.612 588.455 767.831 587.338 770.373L589.169 771.177ZM593.394 765.178C595.199 763.477 597.32 762.171 599.767 761.262L599.07 759.388C596.384 760.385 594.031 761.83 592.023 763.722L593.394 765.178ZM599.778 761.258C602.217 760.317 604.917 759.84 607.888 759.84V757.84C604.7 757.84 601.753 758.353 599.059 759.392L599.778 761.258ZM607.888 759.84C611.187 759.84 614.114 760.389 616.687 761.467L617.46 759.623C614.606 758.427 611.41 757.84 607.888 757.84V759.84ZM616.691 761.469C619.303 762.549 621.483 764.109 623.247 766.149L624.76 764.841C622.784 762.555 620.344 760.815 617.455 759.621L616.691 761.469ZM623.325 764.76L617.605 770.04L618.962 771.51L624.682 766.23L623.325 764.76ZM619.008 770.086C617.532 768.533 615.9 767.365 614.107 766.609L613.329 768.451C614.837 769.088 616.248 770.084 617.558 771.464L619.008 770.086ZM614.125 766.616C612.337 765.822 610.401 765.43 608.328 765.43V767.43C610.143 767.43 611.8 767.772 613.312 768.444L614.125 766.616ZM608.328 765.43C606.353 765.43 604.525 765.74 602.857 766.376L603.569 768.244C604.981 767.707 606.564 767.43 608.328 767.43V765.43ZM602.857 766.376C601.196 767.008 599.741 767.923 598.503 769.121L599.894 770.559C600.929 769.557 602.151 768.785 603.569 768.244L602.857 766.376ZM598.491 769.133C597.294 770.33 596.361 771.743 595.69 773.362L597.537 774.128C598.113 772.74 598.902 771.55 599.905 770.547L598.491 769.133ZM595.682 773.381C595.044 775.015 594.733 776.809 594.733 778.75H596.733C596.733 777.024 597.009 775.481 597.545 774.109L595.682 773.381ZM594.733 778.75C594.733 780.657 595.045 782.432 595.682 784.064L597.545 783.336C597.008 781.961 596.733 780.436 596.733 778.75H594.733ZM595.69 784.083C596.36 785.699 597.29 787.126 598.48 788.355L599.917 786.965C598.907 785.921 598.114 784.708 597.537 783.317L595.69 784.083ZM598.503 788.379C599.737 789.573 601.17 790.488 602.795 791.122L603.522 789.258C602.14 788.719 600.933 787.947 599.894 786.941L598.503 788.379ZM602.802 791.124C604.468 791.759 606.277 792.07 608.218 792.07V790.07C606.493 790.07 604.929 789.794 603.514 789.256L602.802 791.124ZM608.218 792.07C610.085 792.07 611.896 791.778 613.65 791.194L613.017 789.296C611.47 789.812 609.872 790.07 608.218 790.07V792.07ZM613.662 791.189C615.485 790.555 617.224 789.513 618.881 788.088L617.576 786.572C616.079 787.86 614.555 788.761 613.005 789.301L613.662 791.189ZM617.442 787.948L622.502 794.383L624.074 793.147L619.014 786.712L617.442 787.948ZM622.686 792.967C620.7 794.465 618.37 795.625 615.684 796.438L616.263 798.352C619.15 797.478 621.697 796.218 623.891 794.563L622.686 792.967ZM615.68 796.439C613.021 797.254 610.37 797.66 607.723 797.66V799.66C610.577 799.66 613.426 799.222 616.267 798.351L615.68 796.439ZM616.148 792.61V778.145H614.148V792.61H616.148ZM615.148 779.145H623.288V777.145H615.148V779.145ZM622.288 778.145V793.765H624.288V778.145H622.288ZM623.429 792.775L615.289 791.62L615.008 793.6L623.148 794.755L623.429 792.775Z" fill="#E359EB"/>
<path d="M236.708 727V688.5H253.373C256.819 688.5 259.789 689.068 262.283 690.205C264.776 691.305 266.701 692.9 268.058 694.99C269.414 697.08 270.093 699.573 270.093 702.47C270.093 705.33 269.414 707.805 268.058 709.895C266.701 711.985 264.776 713.598 262.283 714.735C259.789 715.835 256.819 716.385 253.373 716.385H241.658L245.618 712.37V727H236.708ZM245.618 713.36L241.658 709.125H252.878C255.628 709.125 257.681 708.538 259.038 707.365C260.394 706.192 261.073 704.56 261.073 702.47C261.073 700.343 260.394 698.693 259.038 697.52C257.681 696.347 255.628 695.76 252.878 695.76H241.658L245.618 691.525V713.36ZM293.344 727.66C287.88 727.66 283.609 726.138 280.529 723.095C277.449 720.052 275.909 715.707 275.909 710.06V688.5H284.819V709.73C284.819 713.397 285.57 716.037 287.074 717.65C288.577 719.263 290.685 720.07 293.399 720.07C296.112 720.07 298.22 719.263 299.724 717.65C301.227 716.037 301.979 713.397 301.979 709.73V688.5H310.779V710.06C310.779 715.707 309.239 720.052 306.159 723.095C303.079 726.138 298.807 727.66 293.344 727.66ZM319.584 727V688.5H338.394C343.234 688.5 346.864 689.417 349.284 691.25C351.74 693.083 352.969 695.503 352.969 698.51C352.969 700.527 352.474 702.287 351.484 703.79C350.494 705.257 349.137 706.393 347.414 707.2C345.69 708.007 343.71 708.41 341.474 708.41L342.519 706.155C344.939 706.155 347.084 706.558 348.954 707.365C350.824 708.135 352.272 709.29 353.299 710.83C354.362 712.37 354.894 714.258 354.894 716.495C354.894 719.795 353.592 722.38 350.989 724.25C348.385 726.083 344.554 727 339.494 727H319.584ZM328.439 720.29H338.834C341.144 720.29 342.885 719.923 344.059 719.19C345.269 718.42 345.874 717.21 345.874 715.56C345.874 713.947 345.269 712.755 344.059 711.985C342.885 711.178 341.144 710.775 338.834 710.775H327.779V704.285H337.294C339.457 704.285 341.107 703.918 342.244 703.185C343.417 702.415 344.004 701.26 344.004 699.72C344.004 698.217 343.417 697.098 342.244 696.365C341.107 695.595 339.457 695.21 337.294 695.21H328.439V720.29ZM361.639 727V688.5H370.549V719.74H389.854V727H361.639ZM394.833 727V688.5H403.743V727H394.833ZM431.304 727.66C428.334 727.66 425.566 727.183 422.999 726.23C420.469 725.24 418.269 723.847 416.399 722.05C414.529 720.253 413.063 718.145 411.999 715.725C410.973 713.305 410.459 710.647 410.459 707.75C410.459 704.853 410.973 702.195 411.999 699.775C413.063 697.355 414.529 695.247 416.399 693.45C418.306 691.653 420.524 690.278 423.054 689.325C425.584 688.335 428.353 687.84 431.359 687.84C434.696 687.84 437.703 688.427 440.379 689.6C443.093 690.737 445.366 692.423 447.199 694.66L441.479 699.94C440.159 698.437 438.693 697.318 437.079 696.585C435.466 695.815 433.706 695.43 431.799 695.43C430.003 695.43 428.353 695.723 426.849 696.31C425.346 696.897 424.044 697.74 422.944 698.84C421.844 699.94 420.983 701.242 420.359 702.745C419.773 704.248 419.479 705.917 419.479 707.75C419.479 709.583 419.773 711.252 420.359 712.755C420.983 714.258 421.844 715.56 422.944 716.66C424.044 717.76 425.346 718.603 426.849 719.19C428.353 719.777 430.003 720.07 431.799 720.07C433.706 720.07 435.466 719.703 437.079 718.97C438.693 718.2 440.159 717.045 441.479 715.505L447.199 720.785C445.366 723.022 443.093 724.727 440.379 725.9C437.703 727.073 434.678 727.66 431.304 727.66ZM447.458 727L464.618 688.5H473.418L490.633 727H481.283L467.203 693.01H470.723L456.588 727H447.458ZM456.038 718.75L458.403 711.985H478.203L480.623 718.75H456.038ZM500.669 727V695.76H488.349V688.5H521.899V695.76H509.579V727H500.669ZM526.693 727V688.5H535.603V727H526.693ZM563.44 727.66C560.396 727.66 557.573 727.165 554.97 726.175C552.403 725.185 550.166 723.792 548.26 721.995C546.39 720.198 544.923 718.09 543.86 715.67C542.833 713.25 542.32 710.61 542.32 707.75C542.32 704.89 542.833 702.25 543.86 699.83C544.923 697.41 546.408 695.302 548.315 693.505C550.221 691.708 552.458 690.315 555.025 689.325C557.591 688.335 560.378 687.84 563.385 687.84C566.428 687.84 569.215 688.335 571.745 689.325C574.311 690.315 576.53 691.708 578.4 693.505C580.306 695.302 581.791 697.41 582.855 699.83C583.918 702.213 584.45 704.853 584.45 707.75C584.45 710.61 583.918 713.268 582.855 715.725C581.791 718.145 580.306 720.253 578.4 722.05C576.53 723.81 574.311 725.185 571.745 726.175C569.215 727.165 566.446 727.66 563.44 727.66ZM563.385 720.07C565.108 720.07 566.685 719.777 568.115 719.19C569.581 718.603 570.865 717.76 571.965 716.66C573.065 715.56 573.908 714.258 574.495 712.755C575.118 711.252 575.43 709.583 575.43 707.75C575.43 705.917 575.118 704.248 574.495 702.745C573.908 701.242 573.065 699.94 571.965 698.84C570.901 697.74 569.636 696.897 568.17 696.31C566.703 695.723 565.108 695.43 563.385 695.43C561.661 695.43 560.066 695.723 558.6 696.31C557.17 696.897 555.905 697.74 554.805 698.84C553.705 699.94 552.843 701.242 552.22 702.745C551.633 704.248 551.34 705.917 551.34 707.75C551.34 709.547 551.633 711.215 552.22 712.755C552.843 714.258 553.686 715.56 554.75 716.66C555.85 717.76 557.133 718.603 558.6 719.19C560.066 719.777 561.661 720.07 563.385 720.07ZM591.146 727V688.5H598.516L621.231 716.22H617.656V688.5H626.456V727H619.141L596.371 699.28H599.946V727H591.146ZM240.482 794.66C237.659 794.66 235.147 794.202 232.947 793.285C230.747 792.368 229.006 791.122 227.722 789.545C226.439 787.968 225.797 786.153 225.797 784.1C225.797 782.193 226.219 780.488 227.062 778.985C227.906 777.445 229.244 776.015 231.077 774.695C232.911 773.338 235.239 772.018 238.062 770.735C240.116 769.782 241.729 768.938 242.902 768.205C244.076 767.472 244.901 766.775 245.377 766.115C245.854 765.418 246.092 764.722 246.092 764.025C246.092 763.072 245.762 762.302 245.102 761.715C244.479 761.128 243.544 760.835 242.297 760.835C240.977 760.835 239.951 761.165 239.217 761.825C238.484 762.485 238.117 763.328 238.117 764.355C238.117 764.905 238.227 765.455 238.447 766.005C238.667 766.518 239.089 767.123 239.712 767.82C240.336 768.48 241.216 769.342 242.352 770.405L262.647 789.215L257.972 794.66L235.587 773.87C234.304 772.697 233.277 771.597 232.507 770.57C231.737 769.543 231.169 768.535 230.802 767.545C230.472 766.555 230.307 765.528 230.307 764.465C230.307 762.595 230.802 760.945 231.792 759.515C232.782 758.085 234.176 756.985 235.972 756.215C237.769 755.408 239.877 755.005 242.297 755.005C244.534 755.005 246.459 755.372 248.072 756.105C249.722 756.802 251.006 757.81 251.922 759.13C252.876 760.45 253.352 762.027 253.352 763.86C253.352 765.473 252.949 766.958 252.142 768.315C251.336 769.635 250.071 770.882 248.347 772.055C246.661 773.228 244.442 774.42 241.692 775.63C239.822 776.473 238.337 777.298 237.237 778.105C236.174 778.875 235.404 779.663 234.927 780.47C234.451 781.277 234.212 782.175 234.212 783.165C234.212 784.082 234.487 784.907 235.037 785.64C235.624 786.373 236.431 786.942 237.457 787.345C238.484 787.748 239.694 787.95 241.087 787.95C243.324 787.95 245.377 787.437 247.247 786.41C249.117 785.347 250.694 783.788 251.977 781.735C253.297 779.645 254.232 777.115 254.782 774.145L261.657 776.29C260.887 780.03 259.512 783.275 257.532 786.025C255.552 788.775 253.114 790.902 250.217 792.405C247.321 793.908 244.076 794.66 240.482 794.66ZM283.973 794V755.5H291.343L307.733 782.67H303.828L319.943 755.5H327.258L327.368 794H319.008L318.953 768.315H320.493L307.623 789.93H303.608L290.463 768.315H292.333V794H283.973ZM331.442 794L348.603 755.5H357.403L374.618 794H365.268L351.188 760.01H354.708L340.573 794H331.442ZM340.022 785.75L342.388 778.985H362.188L364.608 785.75H340.022ZM378.612 794V755.5H395.277C398.724 755.5 401.694 756.068 404.187 757.205C406.68 758.305 408.605 759.9 409.962 761.99C411.319 764.08 411.997 766.573 411.997 769.47C411.997 772.33 411.319 774.805 409.962 776.895C408.605 778.948 406.68 780.525 404.187 781.625C401.694 782.725 398.724 783.275 395.277 783.275H383.562L387.522 779.37V794H378.612ZM403.087 794L393.462 780.03H402.977L412.712 794H403.087ZM387.522 780.36L383.562 776.18H394.782C397.532 776.18 399.585 775.593 400.942 774.42C402.299 773.21 402.977 771.56 402.977 769.47C402.977 767.343 402.299 765.693 400.942 764.52C399.585 763.347 397.532 762.76 394.782 762.76H383.562L387.522 758.525V780.36ZM427.031 785.2L426.536 774.915L444.961 755.5H454.861L438.251 773.375L433.301 778.655L427.031 785.2ZM419.056 794V755.5H427.911V794H419.056ZM445.401 794L431.706 777.225L437.536 770.9L455.796 794H445.401ZM467.964 771.01H486.499V777.94H467.964V771.01ZM468.624 786.85H489.579V794H459.769V755.5H488.864V762.65H468.624V786.85ZM504.644 794V762.76H492.324V755.5H525.874V762.76H513.554V794H504.644ZM530.668 794V755.5H539.578V794H530.668ZM548.714 794V755.5H556.084L578.799 783.22H575.224V755.5H584.024V794H576.709L553.939 766.28H557.514V794H548.714ZM611.723 794.66C608.68 794.66 605.875 794.183 603.308 793.23C600.778 792.24 598.56 790.847 596.653 789.05C594.783 787.253 593.317 785.145 592.253 782.725C591.227 780.305 590.713 777.647 590.713 774.75C590.713 771.853 591.227 769.195 592.253 766.775C593.317 764.355 594.802 762.247 596.708 760.45C598.615 758.653 600.852 757.278 603.418 756.325C605.985 755.335 608.808 754.84 611.888 754.84C615.298 754.84 618.36 755.408 621.073 756.545C623.823 757.682 626.133 759.332 628.003 761.495L622.283 766.775C620.89 765.308 619.368 764.227 617.718 763.53C616.068 762.797 614.272 762.43 612.328 762.43C610.458 762.43 608.753 762.723 607.213 763.31C605.673 763.897 604.335 764.74 603.198 765.84C602.098 766.94 601.237 768.242 600.613 769.745C600.027 771.248 599.733 772.917 599.733 774.75C599.733 776.547 600.027 778.197 600.613 779.7C601.237 781.203 602.098 782.523 603.198 783.66C604.335 784.76 605.655 785.603 607.158 786.19C608.698 786.777 610.385 787.07 612.218 787.07C613.978 787.07 615.683 786.795 617.333 786.245C619.02 785.658 620.652 784.687 622.228 783.33L627.288 789.765C625.198 791.342 622.76 792.552 619.973 793.395C617.223 794.238 614.473 794.66 611.723 794.66ZM619.148 788.61V774.145H627.288V789.765L619.148 788.61Z" fill="white"/>
<path d="M57.988 87V61.8H68.896C71.152 61.8 73.096 62.172 74.728 62.916C76.36 63.636 77.62 64.68 78.508 66.048C79.396 67.416 79.84 69.048 79.84 70.944C79.84 72.816 79.396 74.436 78.508 75.804C77.62 77.148 76.36 78.18 74.728 78.9C73.096 79.62 71.152 79.98 68.896 79.98H61.228L63.82 77.424V87H57.988ZM74.008 87L67.708 77.856H73.936L80.308 87H74.008ZM63.82 78.072L61.228 75.336H68.572C70.372 75.336 71.716 74.952 72.604 74.184C73.492 73.392 73.936 72.312 73.936 70.944C73.936 69.552 73.492 68.472 72.604 67.704C71.716 66.936 70.372 66.552 68.572 66.552H61.228L63.82 63.78V78.072ZM89.8247 71.952H101.957V76.488H89.8247V71.952ZM90.2567 82.32H103.973V87H84.4607V61.8H103.505V66.48H90.2567V82.32ZM108.613 87V61.8H114.445V82.248H127.081V87H108.613ZM127.168 87L138.4 61.8H144.16L155.428 87H149.308L140.092 64.752H142.396L133.144 87H127.168ZM132.784 81.6L134.332 77.172H147.292L148.876 81.6H132.784ZM161.997 87V66.552H153.933V61.8H175.893V66.552H167.829V87H161.997ZM179.031 87V61.8H184.863V87H179.031ZM203.083 87.432C201.091 87.432 199.243 87.108 197.539 86.46C195.859 85.812 194.395 84.9 193.147 83.724C191.923 82.548 190.963 81.168 190.267 79.584C189.595 78 189.259 76.272 189.259 74.4C189.259 72.528 189.595 70.8 190.267 69.216C190.963 67.632 191.935 66.252 193.183 65.076C194.431 63.9 195.895 62.988 197.575 62.34C199.255 61.692 201.079 61.368 203.047 61.368C205.039 61.368 206.863 61.692 208.519 62.34C210.199 62.988 211.651 63.9 212.875 65.076C214.123 66.252 215.095 67.632 215.791 69.216C216.487 70.776 216.835 72.504 216.835 74.4C216.835 76.272 216.487 78.012 215.791 79.62C215.095 81.204 214.123 82.584 212.875 83.76C211.651 84.912 210.199 85.812 208.519 86.46C206.863 87.108 205.051 87.432 203.083 87.432ZM203.047 82.464C204.175 82.464 205.207 82.272 206.143 81.888C207.103 81.504 207.943 80.952 208.663 80.232C209.383 79.512 209.935 78.66 210.319 77.676C210.727 76.692 210.931 75.6 210.931 74.4C210.931 73.2 210.727 72.108 210.319 71.124C209.935 70.14 209.383 69.288 208.663 68.568C207.967 67.848 207.139 67.296 206.179 66.912C205.219 66.528 204.175 66.336 203.047 66.336C201.919 66.336 200.875 66.528 199.915 66.912C198.979 67.296 198.151 67.848 197.431 68.568C196.711 69.288 196.147 70.14 195.739 71.124C195.355 72.108 195.163 73.2 195.163 74.4C195.163 75.576 195.355 76.668 195.739 77.676C196.147 78.66 196.699 79.512 197.395 80.232C198.115 80.952 198.955 81.504 199.915 81.888C200.875 82.272 201.919 82.464 203.047 82.464ZM221.218 87V61.8H226.042L240.91 79.944H238.57V61.8H244.33V87H239.542L224.638 68.856H226.978V87H221.218ZM63.352 115.952H75.484V120.488H63.352V115.952ZM63.784 126.32H77.5V131H57.988V105.8H77.032V110.48H63.784V126.32ZM79.0143 131L89.8503 116.06V120.308L79.4823 105.8H86.1063L93.2703 115.916L90.4983 115.952L97.5543 105.8H103.89L93.5943 120.056V115.88L104.502 131H97.7703L90.3543 120.308H93.0183L85.7103 131H79.0143ZM106.785 131V105.8H117.693C119.949 105.8 121.893 106.172 123.525 106.916C125.157 107.636 126.417 108.68 127.305 110.048C128.193 111.416 128.637 113.048 128.637 114.944C128.637 116.816 128.193 118.436 127.305 119.804C126.417 121.172 125.157 122.228 123.525 122.972C121.893 123.692 119.949 124.052 117.693 124.052H110.025L112.617 121.424V131H106.785ZM112.617 122.072L110.025 119.3H117.369C119.169 119.3 120.513 118.916 121.401 118.148C122.289 117.38 122.733 116.312 122.733 114.944C122.733 113.552 122.289 112.472 121.401 111.704C120.513 110.936 119.169 110.552 117.369 110.552H110.025L112.617 107.78V122.072ZM128.223 131L139.455 105.8H145.215L156.483 131H150.363L141.147 108.752H143.451L134.199 131H128.223ZM133.839 125.6L135.387 121.172H148.347L149.931 125.6H133.839ZM159.097 131V105.8H163.921L178.789 123.944H176.449V105.8H182.209V131H177.421L162.517 112.856H164.857V131H159.097ZM196.452 131.432C194.436 131.432 192.504 131.168 190.656 130.64C188.808 130.088 187.32 129.38 186.192 128.516L188.172 124.124C189.252 124.892 190.524 125.528 191.988 126.032C193.476 126.512 194.976 126.752 196.488 126.752C197.64 126.752 198.564 126.644 199.26 126.428C199.98 126.188 200.508 125.864 200.844 125.456C201.18 125.048 201.348 124.58 201.348 124.052C201.348 123.38 201.084 122.852 200.556 122.468C200.028 122.06 199.332 121.736 198.468 121.496C197.604 121.232 196.644 120.992 195.588 120.776C194.556 120.536 193.512 120.248 192.456 119.912C191.424 119.576 190.476 119.144 189.612 118.616C188.748 118.088 188.04 117.392 187.488 116.528C186.96 115.664 186.696 114.56 186.696 113.216C186.696 111.776 187.08 110.468 187.848 109.292C188.64 108.092 189.816 107.144 191.376 106.448C192.96 105.728 194.94 105.368 197.316 105.368C198.9 105.368 200.46 105.56 201.996 105.944C203.532 106.304 204.888 106.856 206.064 107.6L204.264 112.028C203.088 111.356 201.912 110.864 200.736 110.552C199.56 110.216 198.408 110.048 197.28 110.048C196.152 110.048 195.228 110.18 194.508 110.444C193.788 110.708 193.272 111.056 192.96 111.488C192.648 111.896 192.492 112.376 192.492 112.928C192.492 113.576 192.756 114.104 193.284 114.512C193.812 114.896 194.508 115.208 195.372 115.448C196.236 115.688 197.184 115.928 198.216 116.168C199.272 116.408 200.316 116.684 201.348 116.996C202.404 117.308 203.364 117.728 204.228 118.256C205.092 118.784 205.788 119.48 206.316 120.344C206.868 121.208 207.144 122.3 207.144 123.62C207.144 125.036 206.748 126.332 205.956 127.508C205.164 128.684 203.976 129.632 202.392 130.352C200.832 131.072 198.852 131.432 196.452 131.432ZM211.129 131V105.8H216.961V131H211.129ZM235.181 131.432C233.189 131.432 231.341 131.108 229.637 130.46C227.957 129.812 226.493 128.9 225.245 127.724C224.021 126.548 223.061 125.168 222.365 123.584C221.693 122 221.357 120.272 221.357 118.4C221.357 116.528 221.693 114.8 222.365 113.216C223.061 111.632 224.033 110.252 225.281 109.076C226.529 107.9 227.993 106.988 229.673 106.34C231.353 105.692 233.177 105.368 235.145 105.368C237.137 105.368 238.961 105.692 240.617 106.34C242.297 106.988 243.749 107.9 244.973 109.076C246.221 110.252 247.193 111.632 247.889 113.216C248.585 114.776 248.933 116.504 248.933 118.4C248.933 120.272 248.585 122.012 247.889 123.62C247.193 125.204 246.221 126.584 244.973 127.76C243.749 128.912 242.297 129.812 240.617 130.46C238.961 131.108 237.149 131.432 235.181 131.432ZM235.145 126.464C236.273 126.464 237.305 126.272 238.241 125.888C239.201 125.504 240.041 124.952 240.761 124.232C241.481 123.512 242.033 122.66 242.417 121.676C242.825 120.692 243.029 119.6 243.029 118.4C243.029 117.2 242.825 116.108 242.417 115.124C242.033 114.14 241.481 113.288 240.761 112.568C240.065 111.848 239.237 111.296 238.277 110.912C237.317 110.528 236.273 110.336 235.145 110.336C234.017 110.336 232.973 110.528 232.013 110.912C231.077 111.296 230.249 111.848 229.529 112.568C228.809 113.288 228.245 114.14 227.837 115.124C227.453 116.108 227.261 117.2 227.261 118.4C227.261 119.576 227.453 120.668 227.837 121.676C228.245 122.66 228.797 123.512 229.493 124.232C230.213 124.952 231.053 125.504 232.013 125.888C232.973 126.272 234.017 126.464 235.145 126.464ZM253.316 131V105.8H258.14L273.008 123.944H270.668V105.8H276.428V131H271.64L256.736 112.856H259.076V131H253.316Z" fill="white"/>
<g clip-path="url(#clip0_618_812)">
<path opacity="0.3" d="M729.582 201.134L715.821 221.355L691.616 217.846L702.06 241.575L740.027 224.863L729.582 201.134ZM727.493 196.388L689.527 213.1L713.722 216.585L727.493 196.388Z" fill="url(#paint0_linear_618_812)"/>
<path d="M704.15 246.321L742.116 229.609C744.726 228.46 745.922 225.385 744.773 222.774L732.239 194.3C731.09 191.689 728.014 190.494 725.404 191.643L687.438 208.355C684.828 209.503 683.632 212.579 684.781 215.189L697.315 243.664C698.464 246.274 701.539 247.47 704.15 246.321ZM727.493 196.389L713.722 216.585L689.527 213.1L727.493 196.389ZM691.616 217.846L715.821 221.355L729.582 201.134L740.027 224.863L702.061 241.575L691.616 217.846Z" fill="url(#paint1_linear_618_812)"/>
</g>
<g filter="url(#filter0_d_618_812)">
<path d="M444.504 196.893C403.498 196.893 363.413 209.053 329.318 231.834C295.223 254.616 268.649 286.996 252.957 324.881C237.264 362.765 233.159 404.452 241.158 444.67C249.158 484.888 268.904 521.831 297.9 550.826C326.895 579.822 363.838 599.568 404.056 607.568C444.274 615.567 485.961 611.462 523.845 595.769C561.73 580.077 594.11 553.503 616.892 519.408C639.673 485.313 651.833 445.228 651.833 404.222C651.768 349.255 629.904 296.557 591.036 257.69C552.169 218.822 499.471 196.957 444.504 196.893ZM610.306 326.982H528.635C519.747 290.118 503.537 255.417 480.969 224.943C508.986 230.701 535.27 242.925 557.726 260.641C580.181 278.357 598.187 301.074 610.306 326.982ZM627.441 404.222C627.455 422.125 624.832 439.932 619.656 457.071H533.655C539.456 422.077 539.456 386.367 533.655 351.374H619.656C624.832 368.512 627.455 386.319 627.441 404.222ZM444.504 587.16C443.997 587.162 443.495 587.057 443.033 586.85C442.57 586.643 442.157 586.34 441.821 585.96C415.64 557.768 396.412 521.566 385.557 481.462H503.45C492.596 521.566 473.367 557.768 447.187 585.96C446.851 586.34 446.438 586.643 445.975 586.85C445.512 587.057 445.011 587.162 444.504 587.16ZM380.089 457.071C373.829 422.116 373.829 386.328 380.089 351.374H508.918C515.178 386.328 515.178 422.116 508.918 457.071H380.089ZM261.566 404.222C261.553 386.319 264.176 368.512 269.351 351.374H355.352C349.552 386.367 349.552 422.077 355.352 457.071H269.351C264.176 439.932 261.553 422.125 261.566 404.222ZM444.504 221.285C445.011 221.282 445.512 221.387 445.975 221.594C446.438 221.801 446.851 222.104 447.187 222.484C473.367 250.677 492.596 286.878 503.45 326.982H385.557C396.412 286.878 415.64 250.677 441.821 222.484C442.157 222.104 442.57 221.801 443.033 221.594C443.495 221.387 443.997 221.282 444.504 221.285ZM408.038 224.943C385.47 255.417 369.261 290.118 360.373 326.982H278.701C290.821 301.074 308.826 278.357 331.282 260.641C353.737 242.925 380.021 230.701 408.038 224.943ZM278.701 481.462H360.373C369.261 518.327 385.47 553.027 408.038 583.501C380.021 577.743 353.737 565.519 331.282 547.804C308.826 530.088 290.821 507.37 278.701 481.462ZM480.969 583.501C503.537 553.027 519.747 518.327 528.635 481.462H610.306C598.187 507.37 580.181 530.088 557.726 547.804C535.27 565.519 508.986 577.743 480.969 583.501Z" fill="url(#paint2_linear_618_812)"/>
</g>
<path d="M434.672 220.922C434.095 220.919 433.524 221.04 432.997 221.275C432.471 221.51 432.001 221.854 431.619 222.285C405.379 250.543 386.115 286.818 375.243 326.989L375.072 327.619H375.725H493.618H494.272L494.101 326.989C483.229 286.818 463.965 250.543 437.725 222.285C437.343 221.854 436.873 221.51 436.347 221.275C435.82 221.04 435.249 220.919 434.672 220.922ZM434.672 220.922C434.673 220.922 434.674 220.922 434.675 220.922L434.672 221.422L434.669 220.922C434.67 220.922 434.671 220.922 434.672 220.922ZM600.474 327.619H601.26L600.927 326.907C588.775 300.929 570.72 278.15 548.204 260.386C525.687 242.621 499.331 230.364 471.238 224.591L469.958 224.328L470.736 225.378C493.264 255.798 509.445 290.437 518.317 327.236L518.409 327.619H518.803H600.474ZM609.824 457.708H610.196L610.303 457.353C615.493 440.167 618.123 422.311 618.109 404.359C618.123 386.408 615.493 368.552 610.303 351.366L610.196 351.011H609.824H523.823H523.234L523.33 351.593C529.122 386.532 529.122 422.187 523.33 457.126L523.234 457.708H523.823H609.824ZM375.725 481.1H375.072L375.243 481.73C386.115 521.901 405.379 558.175 431.619 586.434C432.001 586.864 432.471 587.209 432.997 587.444C433.524 587.679 434.095 587.8 434.672 587.797C435.249 587.8 435.82 587.679 436.347 587.444C436.873 587.209 437.343 586.865 437.725 586.434C463.965 558.176 483.229 521.901 494.101 481.73L494.272 481.1H493.618H375.725ZM369.765 457.296L369.839 457.708H370.258H499.086H499.505L499.578 457.296C505.849 422.284 505.849 386.435 499.578 351.423L499.505 351.011H499.086H370.258H369.839L369.765 351.423C363.495 386.435 363.495 422.284 369.765 457.296ZM259.519 351.011H259.148L259.041 351.366C253.851 368.552 251.221 386.408 251.234 404.359C251.221 422.311 253.851 440.167 259.041 457.353L259.148 457.708H259.519H345.52H346.11L346.014 457.126C340.222 422.187 340.222 386.532 346.014 351.593L346.11 351.011H345.52H259.519ZM398.608 225.378L399.386 224.328L398.106 224.591C370.012 230.364 343.657 242.621 321.14 260.386C298.624 278.15 280.569 300.929 268.417 326.907L268.084 327.619H268.87H350.541H350.935L351.027 327.236C359.899 290.437 376.08 255.798 398.608 225.378ZM268.87 481.1H268.084L268.417 481.812C280.569 507.79 298.624 530.569 321.14 548.333C343.657 566.098 370.012 578.355 398.106 584.128L399.386 584.391L398.608 583.341C376.08 552.921 359.899 518.282 351.027 481.483L350.935 481.1H350.541H268.87ZM470.736 583.341L469.958 584.391L471.238 584.128C499.331 578.355 525.687 566.098 548.204 548.333C570.72 530.569 588.775 507.79 600.927 481.812L601.26 481.1H600.474H518.803H518.409L518.317 481.483C509.445 518.282 493.264 552.921 470.736 583.341ZM319.764 232.387C353.777 209.661 393.765 197.53 434.672 197.53C489.506 197.595 542.077 219.406 580.851 258.18C619.625 296.955 641.437 349.525 641.501 404.36C641.501 445.267 629.371 485.255 606.644 519.268C583.917 553.281 551.615 579.79 513.822 595.445C476.029 611.099 434.442 615.195 394.322 607.215C354.201 599.234 317.347 579.535 288.422 550.61C259.496 521.684 239.797 484.831 231.817 444.71C223.836 404.589 227.932 363.002 243.587 325.209C259.241 287.416 285.751 255.114 319.764 232.387Z" stroke="#9F56D6"/>
<path d="M726.078 333.576C726.078 333.576 726.075 333.6 726.038 333.654C725.997 333.713 725.915 333.808 725.759 333.928C725.435 334.177 724.892 334.459 724.062 334.737C722.405 335.292 719.929 335.726 716.652 336.008C710.121 336.57 700.751 336.505 689.193 335.834C666.097 334.495 634.468 330.753 599.79 324.921C565.113 319.089 534 312.28 511.736 305.99C500.594 302.843 491.719 299.84 485.731 297.173C482.727 295.834 480.529 294.615 479.145 293.548C478.451 293.014 478.031 292.569 477.806 292.228C477.697 292.064 477.65 291.947 477.631 291.878C477.614 291.815 477.619 291.792 477.619 291.791L477.619 291.791C477.62 291.79 477.623 291.766 477.659 291.713C477.7 291.654 477.782 291.559 477.938 291.439C478.262 291.19 478.805 290.908 479.636 290.63C481.292 290.075 483.768 289.641 487.046 289.359C493.576 288.797 502.946 288.862 514.504 289.532C537.6 290.872 569.229 294.614 603.907 300.445C638.584 306.277 669.697 313.087 691.961 319.376C703.103 322.524 711.978 325.527 717.966 328.194C720.971 329.532 723.168 330.752 724.552 331.819C725.246 332.353 725.667 332.797 725.891 333.138C726 333.303 726.047 333.419 726.066 333.489C726.083 333.552 726.078 333.575 726.078 333.576Z" stroke="#8961CB" stroke-width="3"/>
<g clip-path="url(#clip1_618_812)">
<path d="M681.745 327.41L595.095 319.675L564.078 238.399L508.446 311.94L626.113 400.951L681.745 327.41ZM692.871 312.702L575.204 223.691L606.277 304.893L692.871 312.702Z" fill="url(#paint3_linear_618_812)"/>
<g filter="url(#filter1_i_618_812)">
<path d="M497.32 326.65L614.986 415.661C623.076 421.78 634.701 420.168 640.821 412.079L707.579 323.829C713.699 315.739 712.087 304.114 703.997 297.994L586.331 208.983C578.241 202.864 566.616 204.476 560.496 212.565L493.738 300.815C487.618 308.905 489.23 320.53 497.32 326.65ZM692.871 312.703L606.277 304.894L575.204 223.692L692.871 312.703ZM564.078 238.4L595.095 319.676L681.744 327.411L626.113 400.952L508.446 311.941L564.078 238.4Z" fill="url(#paint4_linear_618_812)"/>
</g>
</g>
<g clip-path="url(#clip2_618_812)">
<path d="M681.745 327.41L595.095 319.675L564.078 238.399L508.446 311.94L626.113 400.951L681.745 327.41ZM692.871 312.702L575.204 223.691L606.277 304.893L692.871 312.702Z" fill="url(#paint5_linear_618_812)"/>
<g filter="url(#filter2_i_618_812)">
<path d="M497.32 326.65L614.986 415.661C623.076 421.78 634.701 420.168 640.821 412.079L707.579 323.829C713.699 315.739 712.087 304.114 703.997 297.994L586.331 208.983C578.241 202.864 566.616 204.476 560.496 212.565L493.738 300.815C487.618 308.905 489.23 320.53 497.32 326.65ZM692.871 312.703L606.277 304.894L575.204 223.692L692.871 312.703ZM564.078 238.4L595.095 319.676L681.744 327.411L626.113 400.952L508.446 311.941L564.078 238.4Z" fill="url(#paint6_linear_618_812)"/>
</g>
</g>
<path d="M735.67 308.966C730.373 314.729 729.333 314.897 722.493 311.092C722.505 311.104 722.517 311.115 722.528 311.125L722.529 311.127C728.255 316.393 728.415 317.444 724.619 324.269C729.915 318.506 730.957 318.339 737.796 322.143C732.034 316.848 731.864 315.806 735.67 308.966Z" fill="#8961CB"/>
<path d="M557.548 171.716C551.866 182.414 550.374 183.071 538.646 180.043C538.67 180.056 538.69 180.068 538.711 180.08L538.714 180.081C549.344 185.733 549.994 187.243 546.973 198.945C552.654 188.248 554.15 187.592 565.875 190.618C555.18 184.938 554.52 183.445 557.548 171.716Z" fill="#8961CB"/>
<path d="M739.886 178.127C742.477 184.796 742.195 185.716 736.316 189.793C736.331 189.787 736.344 189.782 736.358 189.777L736.359 189.776C742.988 187.204 743.914 187.496 747.981 193.362C745.39 186.694 745.673 185.772 751.551 181.697C744.885 184.288 743.962 184.007 739.886 178.127Z" fill="#8961CB"/>
<path d="M664.689 142.103C662.429 146.357 661.836 146.619 657.172 145.414C657.181 145.42 657.189 145.424 657.198 145.429L657.199 145.429C661.426 147.677 661.685 148.278 660.483 152.932C662.743 148.677 663.337 148.416 668 149.62C663.747 147.361 663.485 146.767 664.689 142.103Z" fill="#8961CB"/>
<g clip-path="url(#clip3_618_812)" filter="url(#filter3_f_618_812)">
<path opacity="0.3" d="M639.038 191.353L647.509 180.262L661.191 183.016L655.98 169.17L633.827 177.508L639.038 191.353ZM640.08 194.123L662.233 185.785L648.557 183.045L640.08 194.123Z" fill="url(#paint7_linear_618_812)"/>
<path d="M654.938 166.401L632.785 174.738C631.262 175.312 630.484 177.027 631.058 178.55L637.311 195.165C637.884 196.688 639.599 197.465 641.122 196.892L663.275 188.554C664.798 187.981 665.576 186.266 665.002 184.743L658.749 168.128C658.176 166.605 656.461 165.828 654.938 166.401ZM640.08 194.122L648.556 183.045L662.233 185.785L640.08 194.122ZM661.191 183.016L647.509 180.262L639.038 191.353L633.827 177.507L655.98 169.17L661.191 183.016Z" fill="url(#paint8_linear_618_812)"/>
</g>
<g filter="url(#filter4_i_618_812)">
<path d="M123.715 538.394C123.715 538.394 207.105 617.4 228.407 631.92C253.136 648.785 285.225 614.926 273.83 596.324C262.436 577.723 177.516 519.088 177.516 519.088L123.715 538.394Z" fill="url(#paint9_linear_618_812)"/>
</g>
<g filter="url(#filter5_i_618_812)">
<path d="M160.397 480.282L350.161 291.16L451.065 506.178L194.318 566.406L160.397 480.282Z" fill="url(#paint10_linear_618_812)"/>
<path d="M160.397 480.282L350.161 291.16L451.065 506.178L194.318 566.406L160.397 480.282Z" fill="url(#paint11_linear_618_812)"/>
</g>
<path d="M455.404 508.508C467.772 502.534 454.033 448.485 424.715 387.788C395.398 327.09 361.605 282.727 349.236 288.701C336.868 294.675 350.607 348.724 379.925 409.422C409.242 470.119 443.035 514.482 455.404 508.508Z" fill="url(#paint12_linear_618_812)"/>
<path d="M453.471 500.173C450.453 499.09 442.199 493.259 428.517 474.573C415.273 456.493 400.862 431.71 387.873 404.818C374.884 377.926 364.474 351.241 358.502 329.618C352.341 307.268 352.934 297.188 353.964 294.157C356.986 295.231 365.242 301.068 378.925 319.754C392.168 337.834 406.579 362.617 419.568 389.509C432.557 416.401 442.967 443.086 448.939 464.709C455.078 487.062 454.505 497.133 453.471 500.173Z" fill="url(#paint13_linear_618_812)"/>
<g filter="url(#filter6_i_618_812)">
<path d="M121.411 493.435C131.528 487.004 146.691 479.14 165.157 474.916C173.495 506.171 188.726 535.594 209.98 563.414L163.091 586.062C159.473 587.817 155.347 588.221 151.456 587.203C147.566 586.185 144.167 583.811 141.872 580.508C132.385 566.831 117.515 543.335 110.906 521.881C109.294 516.644 109.449 511.022 111.347 505.882C113.246 500.741 116.782 496.368 121.411 493.435Z" fill="url(#paint14_linear_618_812)"/>
</g>
<mask id="mask0_618_812" style="mask-type:alpha" maskUnits="userSpaceOnUse" x="492" y="297" width="210" height="59">
<path d="M496.299 297.182L701.783 332.043L684.338 355.056L492.113 302.761L496.299 297.182Z" fill="#D9D9D9"/>
</mask>
<g mask="url(#mask0_618_812)">
<path d="M726.626 333.668C726.626 333.669 726.623 333.693 726.586 333.748C726.545 333.807 726.462 333.902 726.305 334.023C725.979 334.273 725.434 334.556 724.601 334.835C722.938 335.392 720.454 335.827 717.165 336.11C710.613 336.674 701.213 336.609 689.618 335.937C666.446 334.595 634.715 330.844 599.925 324.997C565.136 319.151 533.922 312.324 511.586 306.019C500.408 302.863 491.504 299.852 485.497 297.178C482.482 295.836 480.277 294.613 478.888 293.543C478.192 293.007 477.769 292.561 477.543 292.219C477.434 292.053 477.387 291.936 477.368 291.866C477.351 291.804 477.355 291.78 477.356 291.778L477.356 291.778L477.356 291.778C477.356 291.776 477.36 291.751 477.396 291.698C477.437 291.638 477.52 291.543 477.677 291.422C478.003 291.172 478.548 290.889 479.381 290.61C481.044 290.053 483.528 289.618 486.817 289.335C493.369 288.771 502.769 288.837 514.364 289.508C537.536 290.851 569.267 294.602 604.057 300.448C638.846 306.294 670.06 313.121 692.396 319.427C703.574 322.582 712.478 325.593 718.485 328.267C721.5 329.61 723.705 330.833 725.094 331.902C725.79 332.438 726.213 332.884 726.439 333.227C726.548 333.392 726.595 333.509 726.614 333.579C726.632 333.643 726.626 333.667 726.626 333.668Z" stroke="#8961CB" stroke-width="3"/>
</g>
<rect x="441.684" y="290.921" width="8.46644" height="46.0449" rx="4.23322" transform="rotate(35.2255 441.684 290.921)" fill="#673F8C"/>
<rect x="503.888" y="411.241" width="8.46644" height="46.0449" rx="4.23322" transform="rotate(82.4237 503.888 411.241)" fill="#673F8C"/>
<path d="M164.428 329.173C161.951 350.103 159.945 352.109 139.015 354.585C139.063 354.591 139.104 354.597 139.145 354.603H139.151C159.951 357.074 161.957 359.115 164.428 379.997C166.904 359.068 168.916 357.062 189.84 354.585C168.916 352.109 166.904 350.103 164.428 329.173Z" fill="#8961CB"/>
<rect x="471.851" y="354.906" width="8.46644" height="34.4149" rx="4.23322" transform="rotate(64.2322 471.851 354.906)" fill="#673F8C"/>
<g filter="url(#filter7_di_618_812)">
<rect x="539.618" y="467.576" width="46.6402" height="167.613" rx="5" fill="url(#paint15_linear_618_812)"/>
<rect x="539.618" y="467.576" width="46.6402" height="167.613" rx="5" fill="url(#paint16_linear_618_812)"/>
</g>
<g filter="url(#filter8_di_618_812)">
<rect x="592.089" y="512.757" width="46.6402" height="122.43" rx="5" fill="url(#paint17_linear_618_812)"/>
<rect x="592.089" y="512.757" width="46.6402" height="122.43" rx="5" fill="url(#paint18_linear_618_812)"/>
</g>
<g filter="url(#filter9_di_618_812)">
<rect x="646.015" y="538.993" width="46.6402" height="96.1953" rx="5" fill="url(#paint19_linear_618_812)"/>
<rect x="646.015" y="538.993" width="46.6402" height="96.1953" rx="5" fill="url(#paint20_linear_618_812)"/>
</g>
<path opacity="0.8" d="M245.578 261.015H221.626V223.08H202.305L233.602 185.902L264.899 223.08H245.578V261.015Z" fill="url(#paint21_linear_618_812)"/>
<defs>
<filter id="filter0_d_618_812" x="228.174" y="196.893" width="423.659" height="416.658" filterUnits="userSpaceOnUse" color-interpolation-filters="sRGB">
<feFlood flood-opacity="0" result="BackgroundImageFix"/>
<feColorMatrix in="SourceAlpha" type="matrix" values="0 0 0 0 0 0 0 0 0 0 0 0 0 0 0 0 0 0 127 0" result="hardAlpha"/>
<feOffset dx="-9" dy="2"/>
<feComposite in2="hardAlpha" operator="out"/>
<feColorMatrix type="matrix" values="0 0 0 0 0.796078 0 0 0 0 0.556863 0 0 0 0 0.811765 0 0 0 1 0"/>
<feBlend mode="normal" in2="BackgroundImageFix" result="effect1_dropShadow_618_812"/>
<feBlend mode="normal" in="SourceGraphic" in2="effect1_dropShadow_618_812" result="shape"/>
</filter>
<filter id="filter1_i_618_812" x="490.023" y="190.269" width="221.27" height="229.106" filterUnits="userSpaceOnUse" color-interpolation-filters="sRGB">
<feFlood flood-opacity="0" result="BackgroundImageFix"/>
<feBlend mode="normal" in="SourceGraphic" in2="BackgroundImageFix" result="shape"/>
<feColorMatrix in="SourceAlpha" type="matrix" values="0 0 0 0 0 0 0 0 0 0 0 0 0 0 0 0 0 0 127 0" result="hardAlpha"/>
<feOffset dy="-15"/>
<feGaussianBlur stdDeviation="12.5"/>
<feComposite in2="hardAlpha" operator="arithmetic" k2="-1" k3="1"/>
<feColorMatrix type="matrix" values="0 0 0 0 0 0 0 0 0 0 0 0 0 0 0 0 0 0 0.25 0"/>
<feBlend mode="normal" in2="shape" result="effect1_innerShadow_618_812"/>
</filter>
<filter id="filter2_i_618_812" x="490.023" y="190.269" width="221.27" height="229.106" filterUnits="userSpaceOnUse" color-interpolation-filters="sRGB">
<feFlood flood-opacity="0" result="BackgroundImageFix"/>
<feBlend mode="normal" in="SourceGraphic" in2="BackgroundImageFix" result="shape"/>
<feColorMatrix in="SourceAlpha" type="matrix" values="0 0 0 0 0 0 0 0 0 0 0 0 0 0 0 0 0 0 127 0" result="hardAlpha"/>
<feOffset dy="-15"/>
<feGaussianBlur stdDeviation="12.5"/>
<feComposite in2="hardAlpha" operator="arithmetic" k2="-1" k3="1"/>
<feColorMatrix type="matrix" values="0 0 0 0 0 0 0 0 0 0 0 0 0 0 0 0 0 0 0.25 0"/>
<feBlend mode="normal" in2="shape" result="effect1_innerShadow_618_812"/>
</filter>
<filter id="filter3_f_618_812" x="621.163" y="154.779" width="53.7354" height="53.7355" filterUnits="userSpaceOnUse" color-interpolation-filters="sRGB">
<feFlood flood-opacity="0" result="BackgroundImageFix"/>
<feBlend mode="normal" in="SourceGraphic" in2="BackgroundImageFix" result="shape"/>
<feGaussianBlur stdDeviation="2" result="effect1_foregroundBlur_618_812"/>
</filter>
<filter id="filter4_i_618_812" x="123.715" y="519.088" width="162.485" height="121.404" filterUnits="userSpaceOnUse" color-interpolation-filters="sRGB">
<feFlood flood-opacity="0" result="BackgroundImageFix"/>
<feBlend mode="normal" in="SourceGraphic" in2="BackgroundImageFix" result="shape"/>
<feColorMatrix in="SourceAlpha" type="matrix" values="0 0 0 0 0 0 0 0 0 0 0 0 0 0 0 0 0 0 127 0" result="hardAlpha"/>
<feOffset dx="27" dy="4"/>
<feGaussianBlur stdDeviation="5"/>
<feComposite in2="hardAlpha" operator="arithmetic" k2="-1" k3="1"/>
<feColorMatrix type="matrix" values="0 0 0 0 0 0 0 0 0 0 0 0 0 0 0 0 0 0 0.25 0"/>
<feBlend mode="normal" in2="shape" result="effect1_innerShadow_618_812"/>
</filter>
<filter id="filter5_i_618_812" x="160.397" y="278.16" width="290.669" height="288.247" filterUnits="userSpaceOnUse" color-interpolation-filters="sRGB">
<feFlood flood-opacity="0" result="BackgroundImageFix"/>
<feBlend mode="normal" in="SourceGraphic" in2="BackgroundImageFix" result="shape"/>
<feColorMatrix in="SourceAlpha" type="matrix" values="0 0 0 0 0 0 0 0 0 0 0 0 0 0 0 0 0 0 127 0" result="hardAlpha"/>
<feOffset dy="-23"/>
<feGaussianBlur stdDeviation="6.5"/>
<feComposite in2="hardAlpha" operator="arithmetic" k2="-1" k3="1"/>
<feColorMatrix type="matrix" values="0 0 0 0 0 0 0 0 0 0 0 0 0 0 0 0 0 0 0.25 0"/>
<feBlend mode="normal" in2="shape" result="effect1_innerShadow_618_812"/>
</filter>
<filter id="filter6_i_618_812" x="109.801" y="463.916" width="100.179" height="123.837" filterUnits="userSpaceOnUse" color-interpolation-filters="sRGB">
<feFlood flood-opacity="0" result="BackgroundImageFix"/>
<feBlend mode="normal" in="SourceGraphic" in2="BackgroundImageFix" result="shape"/>
<feColorMatrix in="SourceAlpha" type="matrix" values="0 0 0 0 0 0 0 0 0 0 0 0 0 0 0 0 0 0 127 0" result="hardAlpha"/>
<feOffset dy="-22"/>
<feGaussianBlur stdDeviation="5.5"/>
<feComposite in2="hardAlpha" operator="arithmetic" k2="-1" k3="1"/>
<feColorMatrix type="matrix" values="0 0 0 0 0 0 0 0 0 0 0 0 0 0 0 0 0 0 0.25 0"/>
<feBlend mode="normal" in2="shape" result="effect1_innerShadow_618_812"/>
</filter>
<filter id="filter7_di_618_812" x="535.618" y="467.576" width="54.6402" height="175.613" filterUnits="userSpaceOnUse" color-interpolation-filters="sRGB">
<feFlood flood-opacity="0" result="BackgroundImageFix"/>
<feColorMatrix in="SourceAlpha" type="matrix" values="0 0 0 0 0 0 0 0 0 0 0 0 0 0 0 0 0 0 127 0" result="hardAlpha"/>
<feOffset dy="4"/>
<feGaussianBlur stdDeviation="2"/>
<feComposite in2="hardAlpha" operator="out"/>
<feColorMatrix type="matrix" values="0 0 0 0 0 0 0 0 0 0 0 0 0 0 0 0 0 0 0.25 0"/>
<feBlend mode="normal" in2="BackgroundImageFix" result="effect1_dropShadow_618_812"/>
<feBlend mode="normal" in="SourceGraphic" in2="effect1_dropShadow_618_812" result="shape"/>
<feColorMatrix in="SourceAlpha" type="matrix" values="0 0 0 0 0 0 0 0 0 0 0 0 0 0 0 0 0 0 127 0" result="hardAlpha"/>
<feOffset dy="10"/>
<feComposite in2="hardAlpha" operator="arithmetic" k2="-1" k3="1"/>
<feColorMatrix type="matrix" values="0 0 0 0 0.554572 0 0 0 0 0.554572 0 0 0 0 0.554572 0 0 0 0.25 0"/>
<feBlend mode="normal" in2="shape" result="effect2_innerShadow_618_812"/>
</filter>
<filter id="filter8_di_618_812" x="588.089" y="512.757" width="54.6402" height="130.43" filterUnits="userSpaceOnUse" color-interpolation-filters="sRGB">
<feFlood flood-opacity="0" result="BackgroundImageFix"/>
<feColorMatrix in="SourceAlpha" type="matrix" values="0 0 0 0 0 0 0 0 0 0 0 0 0 0 0 0 0 0 127 0" result="hardAlpha"/>
<feOffset dy="4"/>
<feGaussianBlur stdDeviation="2"/>
<feComposite in2="hardAlpha" operator="out"/>
<feColorMatrix type="matrix" values="0 0 0 0 0 0 0 0 0 0 0 0 0 0 0 0 0 0 0.25 0"/>
<feBlend mode="normal" in2="BackgroundImageFix" result="effect1_dropShadow_618_812"/>
<feBlend mode="normal" in="SourceGraphic" in2="effect1_dropShadow_618_812" result="shape"/>
<feColorMatrix in="SourceAlpha" type="matrix" values="0 0 0 0 0 0 0 0 0 0 0 0 0 0 0 0 0 0 127 0" result="hardAlpha"/>
<feOffset dy="10"/>
<feComposite in2="hardAlpha" operator="arithmetic" k2="-1" k3="1"/>
<feColorMatrix type="matrix" values="0 0 0 0 0.554572 0 0 0 0 0.554572 0 0 0 0 0.554572 0 0 0 0.25 0"/>
<feBlend mode="normal" in2="shape" result="effect2_innerShadow_618_812"/>
</filter>
<filter id="filter9_di_618_812" x="642.015" y="538.993" width="54.6402" height="104.195" filterUnits="userSpaceOnUse" color-interpolation-filters="sRGB">
<feFlood flood-opacity="0" result="BackgroundImageFix"/>
<feColorMatrix in="SourceAlpha" type="matrix" values="0 0 0 0 0 0 0 0 0 0 0 0 0 0 0 0 0 0 127 0" result="hardAlpha"/>
<feOffset dy="4"/>
<feGaussianBlur stdDeviation="2"/>
<feComposite in2="hardAlpha" operator="out"/>
<feColorMatrix type="matrix" values="0 0 0 0 0 0 0 0 0 0 0 0 0 0 0 0 0 0 0.25 0"/>
<feBlend mode="normal" in2="BackgroundImageFix" result="effect1_dropShadow_618_812"/>
<feBlend mode="normal" in="SourceGraphic" in2="effect1_dropShadow_618_812" result="shape"/>
<feColorMatrix in="SourceAlpha" type="matrix" values="0 0 0 0 0 0 0 0 0 0 0 0 0 0 0 0 0 0 127 0" result="hardAlpha"/>
<feOffset dy="10"/>
<feComposite in2="hardAlpha" operator="arithmetic" k2="-1" k3="1"/>
<feColorMatrix type="matrix" values="0 0 0 0 0.554572 0 0 0 0 0.554572 0 0 0 0 0.554572 0 0 0 0.25 0"/>
<feBlend mode="normal" in2="shape" result="effect2_innerShadow_618_812"/>
</filter>
<linearGradient id="paint0_linear_618_812" x1="706.765" y1="201.419" x2="721.044" y2="233.219" gradientUnits="userSpaceOnUse">
<stop stop-color="#A8DEE6"/>
<stop offset="1" stop-color="#6485BC"/>
</linearGradient>
<linearGradient id="paint1_linear_618_812" x1="706.421" y1="199.999" x2="723.133" y2="237.965" gradientUnits="userSpaceOnUse">
<stop stop-color="#BBEDEE"/>
<stop offset="1" stop-color="#607FB9"/>
</linearGradient>
<linearGradient id="paint2_linear_618_812" x1="444.504" y1="196.893" x2="444.504" y2="611.551" gradientUnits="userSpaceOnUse">
<stop stop-color="#4259A7"/>
<stop offset="0.130208" stop-color="#94A6E4"/>
<stop offset="0.359375" stop-color="#BDC6ED"/>
<stop offset="0.53125" stop-color="#C6C6EC"/>
<stop offset="0.844124" stop-color="#A89EE1"/>
<stop offset="0.9999" stop-color="#CBE1F9"/>
<stop offset="1" stop-color="#D7D0FF"/>
</linearGradient>
<linearGradient id="paint3_linear_618_812" x1="634.038" y1="268.196" x2="567.279" y2="356.446" gradientUnits="userSpaceOnUse">
<stop offset="0.384782" stop-color="white"/>
<stop offset="1" stop-color="#D6E2EE"/>
</linearGradient>
<linearGradient id="paint4_linear_618_812" x1="645.164" y1="253.489" x2="556.153" y2="371.155" gradientUnits="userSpaceOnUse">
<stop stop-color="#BBEDEE"/>
<stop offset="0.25" stop-color="#C6F9FA"/>
<stop offset="0.626561" stop-color="#C6DAE8"/>
<stop offset="1" stop-color="#607FB9"/>
</linearGradient>
<linearGradient id="paint5_linear_618_812" x1="634.038" y1="268.196" x2="567.279" y2="356.446" gradientUnits="userSpaceOnUse">
<stop offset="0.384782" stop-color="white"/>
<stop offset="1" stop-color="#D6E2EE"/>
</linearGradient>
<linearGradient id="paint6_linear_618_812" x1="645.164" y1="253.489" x2="556.153" y2="371.155" gradientUnits="userSpaceOnUse">
<stop stop-color="#BBEDEE"/>
<stop offset="0.25" stop-color="#C6F9FA"/>
<stop offset="0.626561" stop-color="#C6DAE8"/>
<stop offset="1" stop-color="#607FB9"/>
</linearGradient>
<linearGradient id="paint7_linear_618_812" x1="652.047" y1="191.903" x2="644.904" y2="173.339" gradientUnits="userSpaceOnUse">
<stop stop-color="#A8DEE6"/>
<stop offset="1" stop-color="#6485BC"/>
</linearGradient>
<linearGradient id="paint8_linear_618_812" x1="652.199" y1="192.723" x2="643.861" y2="170.57" gradientUnits="userSpaceOnUse">
<stop stop-color="#BBEDEE"/>
<stop offset="1" stop-color="#607FB9"/>
</linearGradient>
<linearGradient id="paint9_linear_618_812" x1="-166.182" y1="339.527" x2="310.106" y2="638.666" gradientUnits="userSpaceOnUse">
<stop offset="0.791667" stop-color="#623FB8"/>
<stop offset="1" stop-color="#AD51DD"/>
</linearGradient>
<linearGradient id="paint10_linear_618_812" x1="46.5154" y1="423.759" x2="453.377" y2="433.149" gradientUnits="userSpaceOnUse">
<stop offset="0.258774" stop-color="#513DB0"/>
<stop offset="1" stop-color="#ED4FFC"/>
</linearGradient>
<linearGradient id="paint11_linear_618_812" x1="391.478" y1="508.61" x2="289.589" y2="419.587" gradientUnits="userSpaceOnUse">
<stop stop-color="#D0EEFB" stop-opacity="0.63"/>
<stop offset="1" stop-color="#C0B6EE" stop-opacity="0"/>
</linearGradient>
<linearGradient id="paint12_linear_618_812" x1="349.236" y1="288.701" x2="455.404" y2="508.508" gradientUnits="userSpaceOnUse">
<stop stop-color="#9264DB"/>
<stop offset="0.5" stop-color="#E5D5FF"/>
<stop offset="1" stop-color="#EAE0FB"/>
</linearGradient>
<linearGradient id="paint13_linear_618_812" x1="876.588" y1="684.413" x2="311.258" y2="289.727" gradientUnits="userSpaceOnUse">
<stop stop-color="#AF50DF"/>
<stop offset="1" stop-color="#5D3D81"/>
</linearGradient>
<linearGradient id="paint14_linear_618_812" x1="132.694" y1="486.884" x2="177.286" y2="579.206" gradientUnits="userSpaceOnUse">
<stop stop-color="#BB63E5"/>
<stop offset="1" stop-color="#A25CD9"/>
</linearGradient>
<linearGradient id="paint15_linear_618_812" x1="562.938" y1="467.576" x2="562.938" y2="635.189" gradientUnits="userSpaceOnUse">
<stop offset="0.079805" stop-color="#EE4DFC"/>
<stop offset="1" stop-color="#663FBA"/>
</linearGradient>
<linearGradient id="paint16_linear_618_812" x1="618.11" y1="617.916" x2="562.094" y2="631.778" gradientUnits="userSpaceOnUse">
<stop stop-color="#B9EAEB"/>
<stop offset="1" stop-color="#B9EAEB" stop-opacity="0"/>
</linearGradient>
<linearGradient id="paint17_linear_618_812" x1="615.409" y1="512.757" x2="615.409" y2="635.188" gradientUnits="userSpaceOnUse">
<stop offset="0.079805" stop-color="#EE4DFC"/>
<stop offset="1" stop-color="#663FBA"/>
</linearGradient>
<linearGradient id="paint18_linear_618_812" x1="670.581" y1="622.571" x2="617.256" y2="640.638" gradientUnits="userSpaceOnUse">
<stop stop-color="#B9EAEB"/>
<stop offset="1" stop-color="#B9EAEB" stop-opacity="0"/>
</linearGradient>
<linearGradient id="paint19_linear_618_812" x1="669.336" y1="538.993" x2="669.336" y2="635.188" gradientUnits="userSpaceOnUse">
<stop offset="0.079805" stop-color="#EE4DFC"/>
<stop offset="1" stop-color="#663FBA"/>
</linearGradient>
<linearGradient id="paint20_linear_618_812" x1="724.507" y1="625.275" x2="674.381" y2="646.89" gradientUnits="userSpaceOnUse">
<stop stop-color="#B9EAEB"/>
<stop offset="1" stop-color="#B9EAEB" stop-opacity="0"/>
</linearGradient>
<linearGradient id="paint21_linear_618_812" x1="233.602" y1="185.902" x2="219.966" y2="259.977" gradientUnits="userSpaceOnUse">
<stop stop-color="#415CA9"/>
<stop offset="0.411458" stop-color="#8F69CE"/>
<stop offset="0.9999" stop-color="#A49CD7"/>
<stop offset="1" stop-color="#A49CD7"/>
</linearGradient>
<clipPath id="clip0_618_812">
<rect width="62.2214" height="62.2214" fill="white" transform="translate(673.768 203.041) rotate(-23.7578)"/>
</clipPath>
<clipPath id="clip1_618_812">
<rect width="221.308" height="221.308" fill="white" transform="translate(579.167 157.314) rotate(37.1064)"/>
</clipPath>
<clipPath id="clip2_618_812">
<rect width="221.308" height="221.308" fill="white" transform="translate(579.167 157.314) rotate(37.1064)"/>
</clipPath>
<clipPath id="clip3_618_812">
<rect width="35.5049" height="35.5049" fill="white" transform="translate(670.898 192.008) rotate(159.376)"/>
</clipPath>
</defs>
</svg>
