<svg width="855" height="855" viewBox="0 0 855 855" fill="none" xmlns="http://www.w3.org/2000/svg">
<mask id="mask0_618_283" style="mask-type:luminance" maskUnits="userSpaceOnUse" x="382" y="282" width="38" height="44">
<path d="M382.17 290.468L410.271 282.938L419.606 317.778L391.505 325.307L382.17 290.468Z" fill="white"/>
</mask>
<g mask="url(#mask0_618_283)">
<path d="M394.589 319.582L383.266 291.432L412.922 299.174L404.016 304.78L403.935 304.83L403.872 304.902L403.844 304.934L403.415 305.422L403.899 305.856L414.321 315.217L410.716 319.221L400.342 309.903L399.848 309.459L399.409 309.958L399.377 309.995L399.32 310.06L399.282 310.137L394.589 319.582Z" fill="url(#paint0_linear_618_283)" stroke="#BDC6ED" stroke-width="1.31391"/>
</g>
<path d="M280.919 787H279.919V788H280.919V787ZM280.919 748.5V747.5H279.919V748.5H280.919ZM306.494 750.205L306.08 751.115L306.091 751.12L306.494 750.205ZM312.269 754.99L311.431 755.534H311.431L312.269 754.99ZM312.269 769.895L313.104 770.446L313.108 770.439L312.269 769.895ZM306.494 774.625L306.898 775.54L306.494 774.625ZM285.869 776.275L285.167 775.563L283.431 777.275H285.869V776.275ZM289.829 772.37H290.829V769.979L289.127 771.658L289.829 772.37ZM289.829 787V788H290.829V787H289.829ZM305.394 787L304.571 787.567L304.869 788H305.394V787ZM295.769 773.03V772.03H293.866L294.946 773.597L295.769 773.03ZM305.284 773.03L306.105 772.458L305.806 772.03H305.284V773.03ZM315.019 787V788H316.935L315.84 786.428L315.019 787ZM289.829 773.36L289.104 774.048L290.829 775.87V773.36H289.829ZM285.869 769.18V768.18H283.545L285.144 769.868L285.869 769.18ZM303.249 767.42L303.904 768.176L303.909 768.171L303.915 768.166L303.249 767.42ZM285.869 755.76L285.139 755.077L283.565 756.76H285.869V755.76ZM289.829 751.525H290.829V748.991L289.099 750.842L289.829 751.525ZM281.919 787V748.5H279.919V787H281.919ZM280.919 749.5H297.584V747.5H280.919V749.5ZM297.584 749.5C300.924 749.5 303.746 750.051 306.08 751.115L306.909 749.295C304.257 748.086 301.139 747.5 297.584 747.5V749.5ZM306.091 751.12C308.424 752.149 310.19 753.623 311.431 755.534L313.108 754.446C311.636 752.177 309.552 750.461 306.898 749.29L306.091 751.12ZM311.431 755.534C312.666 757.437 313.304 759.734 313.304 762.47H315.304C315.304 759.412 314.586 756.723 313.108 754.446L311.431 755.534ZM313.304 762.47C313.304 765.166 312.667 767.446 311.431 769.351L313.108 770.439C314.585 768.164 315.304 765.494 315.304 762.47H313.304ZM311.435 769.344C310.195 771.22 308.428 772.679 306.091 773.71L306.898 775.54C309.547 774.371 311.63 772.677 313.104 770.446L311.435 769.344ZM306.091 773.71C303.754 774.741 300.928 775.275 297.584 775.275V777.275C301.135 777.275 304.249 776.709 306.898 775.54L306.091 773.71ZM297.584 775.275H285.869V777.275H297.584V775.275ZM286.572 776.987L290.532 773.082L289.127 771.658L285.167 775.563L286.572 776.987ZM288.829 772.37V787H290.829V772.37H288.829ZM289.829 786H280.919V788H289.829V786ZM306.218 786.433L296.593 772.463L294.946 773.597L304.571 787.567L306.218 786.433ZM295.769 774.03H305.284V772.03H295.769V774.03ZM304.464 773.602L314.199 787.572L315.84 786.428L306.105 772.458L304.464 773.602ZM315.019 786H305.394V788H315.019V786ZM290.555 772.672L286.595 768.492L285.144 769.868L289.104 774.048L290.555 772.672ZM285.869 770.18H297.089V768.18H285.869V770.18ZM297.089 770.18C299.957 770.18 302.29 769.572 303.904 768.176L302.595 766.664C301.496 767.615 299.722 768.18 297.089 768.18V770.18ZM303.915 768.166C305.517 766.737 306.284 764.798 306.284 762.47H304.284C304.284 764.322 303.695 765.683 302.584 766.674L303.915 768.166ZM306.284 762.47C306.284 760.112 305.521 758.163 303.904 756.764L302.595 758.276C303.691 759.224 304.284 760.574 304.284 762.47H306.284ZM303.904 756.764C302.29 755.368 299.957 754.76 297.089 754.76V756.76C299.722 756.76 301.496 757.325 302.595 758.276L303.904 756.764ZM297.089 754.76H285.869V756.76H297.089V754.76ZM286.6 756.443L290.56 752.208L289.099 750.842L285.139 755.077L286.6 756.443ZM288.829 751.525V773.36H290.829V751.525H288.829ZM329.559 764.01V763.01H328.559V764.01H329.559ZM348.094 764.01H349.094V763.01H348.094V764.01ZM348.094 770.94V771.94H349.094V770.94H348.094ZM329.559 770.94H328.559V771.94H329.559V770.94ZM330.219 779.85H329.219V780.85H330.219V779.85ZM351.174 779.85H352.174V778.85H351.174V779.85ZM351.174 787V788H352.174V787H351.174ZM321.364 787H320.364V788H321.364V787ZM321.364 748.5V747.5H320.364V748.5H321.364ZM350.459 748.5H351.459V747.5H350.459V748.5ZM350.459 755.65V756.65H351.459V755.65H350.459ZM330.219 755.65V754.65H329.219V755.65H330.219ZM329.559 765.01H348.094V763.01H329.559V765.01ZM347.094 764.01V770.94H349.094V764.01H347.094ZM348.094 769.94H329.559V771.94H348.094V769.94ZM330.559 770.94V764.01H328.559V770.94H330.559ZM330.219 780.85H351.174V778.85H330.219V780.85ZM350.174 779.85V787H352.174V779.85H350.174ZM351.174 786H321.364V788H351.174V786ZM322.364 787V748.5H320.364V787H322.364ZM321.364 749.5H350.459V747.5H321.364V749.5ZM349.459 748.5V755.65H351.459V748.5H349.459ZM350.459 754.65H330.219V756.65H350.459V754.65ZM329.219 755.65V779.85H331.219V755.65H329.219ZM362.058 786.45L361.772 787.408L361.784 787.412L362.058 786.45ZM355.238 783.205L354.327 782.794L354.001 783.517L354.63 783.999L355.238 783.205ZM358.263 776.495L358.843 775.68L357.852 774.975L357.352 776.084L358.263 776.495ZM364.093 779.41L363.768 780.356L363.777 780.359L363.786 780.362L364.093 779.41ZM375.203 780.015L375.5 780.97L375.51 780.967L375.519 780.964L375.203 780.015ZM377.623 778.53L376.851 777.894L377.623 778.53ZM377.183 773.965L376.572 774.756L376.583 774.765L376.595 774.774L377.183 773.965ZM373.993 772.48L373.701 773.436L373.713 773.44L373.726 773.444L373.993 772.48ZM369.593 771.38L369.367 772.354L369.38 772.357L369.393 772.36L369.593 771.38ZM364.808 770.06L364.499 771.011L364.505 771.013L364.808 770.06ZM360.463 768.08L359.942 768.933L360.463 768.08ZM357.218 764.89L356.365 765.411L356.37 765.42L356.376 765.428L357.218 764.89ZM357.768 753.835L356.934 753.284L356.931 753.288L357.768 753.835ZM363.158 749.49L363.566 750.403L363.572 750.4L363.158 749.49ZM379.383 748.72L379.141 749.69L379.148 749.692L379.155 749.694L379.383 748.72ZM385.598 751.25L386.525 751.627L386.84 750.852L386.133 750.405L385.598 751.25ZM382.848 758.015L382.352 758.883L383.344 759.45L383.775 758.392L382.848 758.015ZM377.458 755.76L377.184 756.722L377.193 756.724L377.202 756.727L377.458 755.76ZM367.943 755.595L367.599 754.656H367.599L367.943 755.595ZM365.578 757.19L366.373 757.797L366.381 757.787L366.389 757.775L365.578 757.19ZM366.073 761.81L365.462 762.601L365.473 762.61L365.485 762.619L366.073 761.81ZM369.263 763.24L368.996 764.204L369.263 763.24ZM373.608 764.34L373.382 765.314L373.387 765.315L373.608 764.34ZM378.393 765.605L378.104 766.562L378.11 766.564L378.393 765.605ZM382.793 767.53L383.315 766.677L382.793 767.53ZM385.983 770.72L385.13 771.241L385.135 771.25L385.141 771.258L385.983 770.72ZM385.433 781.665L386.263 782.224L385.433 781.665ZM379.988 786.01L379.574 785.1L379.569 785.102L379.988 786.01ZM370.913 786.66C367.922 786.66 365.063 786.268 362.333 785.488L361.784 787.412C364.7 788.245 367.745 788.66 370.913 788.66V786.66ZM362.344 785.492C359.599 784.672 357.446 783.636 355.846 782.411L354.63 783.999C356.478 785.414 358.871 786.542 361.772 787.408L362.344 785.492ZM356.15 783.616L359.175 776.906L357.352 776.084L354.327 782.794L356.15 783.616ZM357.684 777.31C359.424 778.547 361.455 779.559 363.768 780.356L364.419 778.464C362.258 777.721 360.403 776.79 358.843 775.68L357.684 777.31ZM363.786 780.362C366.155 781.126 368.55 781.51 370.968 781.51V779.51C368.766 779.51 366.578 779.161 364.4 778.458L363.786 780.362ZM370.968 781.51C372.778 781.51 374.301 781.342 375.5 780.97L374.907 779.06C373.978 779.348 372.679 779.51 370.968 779.51V781.51ZM375.519 780.964C376.724 780.562 377.721 779.984 378.395 779.166L376.851 777.894C376.499 778.322 375.882 778.735 374.887 779.066L375.519 780.964ZM378.395 779.166C379.056 778.364 379.393 777.424 379.393 776.385H377.393C377.393 776.959 377.217 777.45 376.851 777.894L378.395 779.166ZM379.393 776.385C379.393 775.049 378.846 773.938 377.771 773.156L376.595 774.774C377.134 775.166 377.393 775.667 377.393 776.385H379.393ZM377.795 773.174C376.857 772.449 375.665 771.907 374.261 771.516L373.726 773.444C374.961 773.787 375.896 774.234 376.572 774.756L377.795 773.174ZM374.285 771.524C372.93 771.11 371.432 770.735 369.794 770.4L369.393 772.36C370.981 772.685 372.416 773.044 373.701 773.436L374.285 771.524ZM369.82 770.406C368.27 770.046 366.701 769.613 365.111 769.107L364.505 771.013C366.142 771.534 367.763 771.981 369.367 772.354L369.82 770.406ZM365.118 769.109C363.61 768.618 362.234 767.99 360.985 767.227L359.942 768.933C361.333 769.783 362.853 770.475 364.499 771.011L365.118 769.109ZM360.985 767.227C359.796 766.5 358.824 765.545 358.061 764.352L356.376 765.428C357.3 766.875 358.491 768.046 359.942 768.933L360.985 767.227ZM358.072 764.369C357.387 763.249 357.008 761.758 357.008 759.83H355.008C355.008 762.009 355.436 763.891 356.365 765.411L358.072 764.369ZM357.008 759.83C357.008 757.819 357.541 756.012 358.606 754.382L356.931 753.288C355.649 755.252 355.008 757.441 355.008 759.83H357.008ZM358.603 754.386C359.69 752.739 361.323 751.404 363.566 750.403L362.751 748.577C360.227 749.703 358.267 751.264 356.934 753.284L358.603 754.386ZM363.572 750.4C365.824 749.377 368.697 748.84 372.233 748.84V746.84C368.51 746.84 365.333 747.403 362.744 748.58L363.572 750.4ZM372.233 748.84C374.572 748.84 376.873 749.123 379.141 749.69L379.626 747.75C377.2 747.143 374.735 746.84 372.233 746.84V748.84ZM379.155 749.694C381.407 750.222 383.373 751.025 385.064 752.095L386.133 750.405C384.23 749.201 382.052 748.318 379.611 747.746L379.155 749.694ZM384.672 750.873L381.922 757.638L383.775 758.392L386.525 751.627L384.672 750.873ZM383.344 757.147C381.481 756.082 379.604 755.295 377.715 754.793L377.202 756.727C378.906 757.179 380.622 757.895 382.352 758.883L383.344 757.147ZM377.733 754.798C375.854 754.262 374.002 753.99 372.178 753.99V755.99C373.801 755.99 375.469 756.232 377.184 756.722L377.733 754.798ZM372.178 753.99C370.388 753.99 368.848 754.198 367.599 754.656L368.287 756.534C369.238 756.185 370.522 755.99 372.178 755.99V753.99ZM367.599 754.656C366.39 755.099 365.402 755.726 364.768 756.605L366.389 757.775C366.708 757.334 367.296 756.897 368.287 756.534L367.599 754.656ZM364.784 756.583C364.164 757.394 363.863 758.345 363.863 759.39H365.863C365.863 758.749 366.04 758.233 366.373 757.797L364.784 756.583ZM363.863 759.39C363.863 760.7 364.419 761.795 365.462 762.601L366.685 761.019C366.115 760.578 365.863 760.06 365.863 759.39H363.863ZM365.485 762.619C366.417 763.297 367.6 763.816 368.996 764.204L369.531 762.276C368.286 761.931 367.343 761.497 366.661 761.001L365.485 762.619ZM368.996 764.204C370.331 764.575 371.794 764.945 373.382 765.314L373.835 763.366C372.269 763.002 370.835 762.639 369.531 762.276L368.996 764.204ZM373.387 765.315C374.977 765.677 376.55 766.092 378.104 766.562L378.683 764.648C377.083 764.164 375.466 763.737 373.83 763.365L373.387 765.315ZM378.11 766.564C379.647 767.018 381.032 767.626 382.272 768.383L383.315 766.677C381.914 765.821 380.366 765.145 378.677 764.646L378.11 766.564ZM382.272 768.383C383.456 769.107 384.406 770.057 385.13 771.241L386.837 770.199C385.947 768.743 384.77 767.566 383.315 766.677L382.272 768.383ZM385.141 771.258C385.855 772.377 386.248 773.845 386.248 775.725H388.248C388.248 773.572 387.798 771.703 386.826 770.182L385.141 771.258ZM386.248 775.725C386.248 777.689 385.703 779.475 384.604 781.106L386.263 782.224C387.584 780.262 388.248 778.088 388.248 775.725H386.248ZM384.604 781.106C383.518 782.718 381.864 784.059 379.574 785.1L380.402 786.92C382.952 785.761 384.928 784.205 386.263 782.224L384.604 781.106ZM379.569 785.102C377.359 786.122 374.489 786.66 370.913 786.66V788.66C374.671 788.66 377.851 788.098 380.407 786.918L379.569 785.102ZM393.336 787H392.336V788H393.336V787ZM393.336 748.5V747.5H392.336V748.5H393.336ZM418.911 750.205L418.497 751.115L418.508 751.12L418.911 750.205ZM424.686 754.99L423.848 755.534L424.686 754.99ZM418.911 774.735L419.315 775.65L419.326 775.645L418.911 774.735ZM398.286 776.385L397.575 775.683L395.896 777.385H398.286V776.385ZM402.246 772.37H403.246V769.932L401.535 771.668L402.246 772.37ZM402.246 787V788H403.246V787H402.246ZM402.246 773.36L401.516 774.043L403.246 775.894V773.36H402.246ZM398.286 769.125V768.125H395.982L397.556 769.808L398.286 769.125ZM398.286 755.76L397.556 755.077L395.982 756.76H398.286V755.76ZM402.246 751.525H403.246V748.991L401.516 750.842L402.246 751.525ZM394.336 787V748.5H392.336V787H394.336ZM393.336 749.5H410.001V747.5H393.336V749.5ZM410.001 749.5C413.341 749.5 416.163 750.051 418.497 751.115L419.326 749.295C416.674 748.086 413.556 747.5 410.001 747.5V749.5ZM418.508 751.12C420.841 752.149 422.607 753.623 423.848 755.534L425.525 754.446C424.053 752.177 421.969 750.461 419.315 749.29L418.508 751.12ZM423.848 755.534C425.083 757.437 425.721 759.734 425.721 762.47H427.721C427.721 759.412 427.003 756.723 425.525 754.446L423.848 755.534ZM425.721 762.47C425.721 765.166 425.084 767.446 423.848 769.351L425.525 770.439C427.002 768.164 427.721 765.494 427.721 762.47H425.721ZM423.848 769.351C422.605 771.265 420.835 772.759 418.497 773.825L419.326 775.645C421.975 774.437 424.055 772.705 425.525 770.439L423.848 769.351ZM418.508 773.82C416.171 774.851 413.345 775.385 410.001 775.385V777.385C413.552 777.385 416.666 776.819 419.315 775.65L418.508 773.82ZM410.001 775.385H398.286V777.385H410.001V775.385ZM398.998 777.087L402.958 773.072L401.535 771.668L397.575 775.683L398.998 777.087ZM401.246 772.37V787H403.246V772.37H401.246ZM402.246 786H393.336V788H402.246V786ZM402.977 772.677L399.017 768.442L397.556 769.808L401.516 774.043L402.977 772.677ZM398.286 770.125H409.506V768.125H398.286V770.125ZM409.506 770.125C412.374 770.125 414.707 769.517 416.321 768.121L415.012 766.609C413.913 767.56 412.139 768.125 409.506 768.125V770.125ZM416.321 768.121C417.934 766.726 418.701 764.797 418.701 762.47H416.701C416.701 764.323 416.112 765.657 415.012 766.609L416.321 768.121ZM418.701 762.47C418.701 760.112 417.938 758.163 416.321 756.764L415.012 758.276C416.108 759.224 416.701 760.574 416.701 762.47H418.701ZM416.321 756.764C414.707 755.368 412.374 754.76 409.506 754.76V756.76C412.139 756.76 413.913 757.325 415.012 758.276L416.321 756.764ZM409.506 754.76H398.286V756.76H409.506V754.76ZM399.017 756.443L402.977 752.208L401.516 750.842L397.556 755.077L399.017 756.443ZM401.246 751.525V773.36H403.246V751.525H401.246ZM443.85 786.175L443.49 787.108L443.494 787.11L443.85 786.175ZM437.14 781.995L436.447 782.716L436.454 782.723L437.14 781.995ZM432.74 775.67L431.819 776.061L431.824 776.072L432.74 775.67ZM432.74 759.83L431.824 759.428L431.819 759.439L432.74 759.83ZM443.905 749.325L443.545 748.392V748.392L443.905 749.325ZM460.625 749.325L460.26 750.256L460.265 750.258L460.625 749.325ZM467.28 753.505L466.587 754.226L466.594 754.233L467.28 753.505ZM471.735 759.83L470.819 760.232L470.821 760.237L471.735 759.83ZM471.735 775.725L472.65 776.127L472.652 776.122L471.735 775.725ZM467.28 782.05L467.965 782.778L467.965 782.778L467.28 782.05ZM460.625 786.175L460.265 785.242L460.26 785.244L460.625 786.175ZM456.995 779.19L456.623 778.261L456.615 778.265L456.995 779.19ZM460.845 776.66L460.138 775.953H460.138L460.845 776.66ZM463.375 772.755L462.451 772.372L462.447 772.382L462.443 772.391L463.375 772.755ZM463.375 762.745L462.443 763.109L462.447 763.118L462.451 763.128L463.375 762.745ZM460.845 758.84L460.126 759.535L460.132 759.541L460.138 759.547L460.845 758.84ZM457.05 756.31L456.678 757.238L457.05 756.31ZM447.48 756.31L447.108 755.381L447.1 755.385L447.48 756.31ZM443.685 758.84L444.392 759.547L443.685 758.84ZM441.1 762.745L440.176 762.362L440.172 762.372L440.168 762.381L441.1 762.745ZM441.1 772.755L440.165 773.111L440.17 773.125L440.176 773.138L441.1 772.755ZM443.63 776.66L442.911 777.355L442.917 777.361L442.923 777.367L443.63 776.66ZM447.48 779.19L447.108 780.118L447.48 779.19ZM452.32 786.66C449.387 786.66 446.685 786.183 444.205 785.24L443.494 787.11C446.221 788.147 449.166 788.66 452.32 788.66V786.66ZM444.21 785.242C441.758 784.296 439.633 782.971 437.825 781.267L436.454 782.723C438.46 784.613 440.808 786.074 443.49 787.108L444.21 785.242ZM437.833 781.274C436.059 779.57 434.667 777.57 433.655 775.268L431.824 776.072C432.939 778.61 434.481 780.827 436.447 782.716L437.833 781.274ZM433.66 775.279C432.69 772.993 432.2 770.488 432.2 767.75H430.2C430.2 770.732 430.736 773.507 431.819 776.061L433.66 775.279ZM432.2 767.75C432.2 765.012 432.69 762.507 433.66 760.221L431.819 759.439C430.736 761.993 430.2 764.768 430.2 767.75H432.2ZM433.655 760.232C434.665 757.934 436.072 755.937 437.88 754.233L436.509 752.777C434.504 754.667 432.941 756.886 431.824 759.428L433.655 760.232ZM437.88 754.233C439.688 752.529 441.813 751.204 444.265 750.258L443.545 748.392C440.863 749.426 438.515 750.887 436.509 752.777L437.88 754.233ZM444.265 750.258C446.706 749.316 449.37 748.84 452.265 748.84V746.84C449.146 746.84 446.237 747.354 443.545 748.392L444.265 750.258ZM452.265 748.84C455.198 748.84 457.86 749.317 460.26 750.256L460.989 748.394C458.33 747.353 455.418 746.84 452.265 746.84V748.84ZM460.265 750.258C462.715 751.203 464.818 752.527 466.587 754.226L467.973 752.784C466.001 750.89 463.668 749.427 460.985 748.392L460.265 750.258ZM466.594 754.233C468.402 755.937 469.809 757.934 470.819 760.232L472.65 759.428C471.533 756.886 469.971 754.667 467.965 752.777L466.594 754.233ZM470.821 760.237C471.822 762.479 472.33 764.978 472.33 767.75H474.33C474.33 764.728 473.774 761.948 472.648 759.423L470.821 760.237ZM472.33 767.75C472.33 770.483 471.822 773.005 470.817 775.328L472.652 776.122C473.774 773.532 474.33 770.737 474.33 767.75H472.33ZM470.819 775.323C469.809 777.621 468.402 779.618 466.594 781.322L467.965 782.778C469.971 780.888 471.533 778.669 472.65 776.127L470.819 775.323ZM466.594 781.322C464.825 782.987 462.719 784.295 460.265 785.242L460.985 787.108C463.663 786.075 465.994 784.633 467.965 782.778L466.594 781.322ZM460.26 785.244C457.858 786.184 455.215 786.66 452.32 786.66V788.66C455.438 788.66 458.331 788.146 460.989 787.106L460.26 785.244ZM452.265 781.07C454.103 781.07 455.811 780.757 457.374 780.115L456.615 778.265C455.319 778.797 453.873 779.07 452.265 779.07V781.07ZM457.366 780.118C458.956 779.482 460.355 778.564 461.552 777.367L460.138 775.953C459.135 776.956 457.966 777.724 456.623 778.262L457.366 780.118ZM461.552 777.367C462.753 776.166 463.671 774.746 464.306 773.119L462.443 772.391C461.905 773.771 461.136 774.954 460.138 775.953L461.552 777.367ZM464.298 773.138C464.978 771.499 465.31 769.698 465.31 767.75H463.31C463.31 769.468 463.018 771.005 462.451 772.372L464.298 773.138ZM465.31 767.75C465.31 765.802 464.978 764.001 464.298 762.362L462.451 763.128C463.018 764.495 463.31 766.032 463.31 767.75H465.31ZM464.306 762.381C463.671 760.754 462.753 759.334 461.552 758.133L460.138 759.547C461.136 760.546 461.905 761.729 462.443 763.109L464.306 762.381ZM461.564 758.145C460.399 756.94 459.014 756.019 457.421 755.382L456.678 757.238C458.018 757.774 459.164 758.54 460.126 759.535L461.564 758.145ZM457.421 755.382C455.826 754.743 454.104 754.43 452.265 754.43V756.43C453.872 756.43 455.34 756.703 456.678 757.238L457.421 755.382ZM452.265 754.43C450.426 754.43 448.703 754.743 447.108 755.382L447.851 757.238C449.189 756.703 450.657 756.43 452.265 756.43V754.43ZM447.1 755.385C445.547 756.022 444.171 756.94 442.978 758.133L444.392 759.547C445.399 758.54 446.553 757.771 447.859 757.235L447.1 755.385ZM442.978 758.133C441.781 759.33 440.847 760.743 440.176 762.362L442.023 763.128C442.599 761.74 443.389 760.55 444.392 759.547L442.978 758.133ZM440.168 762.381C439.531 764.015 439.22 765.809 439.22 767.75H441.22C441.22 766.024 441.496 764.481 442.031 763.109L440.168 762.381ZM439.22 767.75C439.22 769.657 439.531 771.447 440.165 773.111L442.034 772.399C441.495 770.983 441.22 769.436 441.22 767.75H439.22ZM440.176 773.138C440.844 774.75 441.755 776.159 442.911 777.355L444.349 775.965C443.378 774.961 442.602 773.767 442.023 772.372L440.176 773.138ZM442.923 777.367C444.12 778.564 445.518 779.482 447.108 780.118L447.851 778.262C446.508 777.724 445.34 776.956 444.337 775.953L442.923 777.367ZM447.108 780.118C448.703 780.757 450.426 781.07 452.265 781.07V779.07C450.657 779.07 449.189 778.797 447.851 778.262L447.108 780.118ZM480.026 787H479.026V788H480.026V787ZM480.026 748.5V747.5H479.026V748.5H480.026ZM487.396 748.5L488.169 747.866L487.869 747.5H487.396V748.5ZM510.111 776.22V777.22H512.223L510.884 775.586L510.111 776.22ZM506.536 776.22H505.536V777.22H506.536V776.22ZM506.536 748.5V747.5H505.536V748.5H506.536ZM515.336 748.5H516.336V747.5H515.336V748.5ZM515.336 787V788H516.336V787H515.336ZM508.021 787L507.248 787.635L507.548 788H508.021V787ZM485.251 759.28V758.28H483.135L484.478 759.915L485.251 759.28ZM488.826 759.28H489.826V758.28H488.826V759.28ZM488.826 787V788H489.826V787H488.826ZM481.026 787V748.5H479.026V787H481.026ZM480.026 749.5H487.396V747.5H480.026V749.5ZM486.622 749.134L509.337 776.854L510.884 775.586L488.169 747.866L486.622 749.134ZM510.111 775.22H506.536V777.22H510.111V775.22ZM507.536 776.22V748.5H505.536V776.22H507.536ZM506.536 749.5H515.336V747.5H506.536V749.5ZM514.336 748.5V787H516.336V748.5H514.336ZM515.336 786H508.021V788H515.336V786ZM508.794 786.365L486.024 758.645L484.478 759.915L507.248 787.635L508.794 786.365ZM485.251 760.28H488.826V758.28H485.251V760.28ZM487.826 759.28V787H489.826V759.28H487.826ZM488.826 786H480.026V788H488.826V786ZM528.24 786.45L527.954 787.408L527.965 787.412L528.24 786.45ZM521.42 783.205L520.508 782.794L520.182 783.517L520.812 783.999L521.42 783.205ZM524.445 776.495L525.024 775.68L524.033 774.975L523.533 776.084L524.445 776.495ZM530.275 779.41L529.949 780.356L529.959 780.359L529.968 780.362L530.275 779.41ZM541.385 780.015L541.681 780.97L541.691 780.967L541.701 780.964L541.385 780.015ZM543.805 778.53L543.033 777.894L543.805 778.53ZM543.365 773.965L542.753 774.756L542.765 774.765L542.777 774.774L543.365 773.965ZM540.175 772.48L539.883 773.436L539.895 773.44L539.907 773.444L540.175 772.48ZM535.775 771.38L535.548 772.354L535.561 772.357L535.574 772.36L535.775 771.38ZM530.99 770.06L530.68 771.011L530.687 771.013L530.99 770.06ZM526.645 768.08L526.123 768.933L526.645 768.08ZM523.4 764.89L522.547 765.411L522.552 765.42L522.557 765.428L523.4 764.89ZM523.95 753.835L523.115 753.284L523.113 753.288L523.95 753.835ZM529.34 749.49L529.747 750.403L529.754 750.4L529.34 749.49ZM545.565 748.72L545.322 749.69L545.329 749.692L545.337 749.694L545.565 748.72ZM551.78 751.25L552.706 751.627L553.021 750.852L552.315 750.405L551.78 751.25ZM549.03 758.015L548.534 758.883L549.526 759.45L549.956 758.392L549.03 758.015ZM543.64 755.76L543.365 756.722L543.374 756.724L543.383 756.727L543.64 755.76ZM534.125 755.595L533.781 754.656L534.125 755.595ZM531.76 757.19L532.554 757.797L532.563 757.787L532.571 757.775L531.76 757.19ZM532.255 761.81L531.643 762.601L531.655 762.61L531.667 762.619L532.255 761.81ZM535.445 763.24L535.177 764.204L535.445 763.24ZM539.79 764.34L539.563 765.314L539.568 765.315L539.79 764.34ZM544.575 765.605L544.285 766.562L544.292 766.564L544.575 765.605ZM548.975 767.53L549.496 766.677L548.975 767.53ZM552.165 770.72L551.312 771.241L551.317 771.25L551.322 771.258L552.165 770.72ZM551.615 781.665L552.444 782.224L551.615 781.665ZM546.17 786.01L545.756 785.1L545.751 785.102L546.17 786.01ZM537.095 786.66C534.103 786.66 531.244 786.268 528.515 785.488L527.965 787.412C530.882 788.245 533.927 788.66 537.095 788.66V786.66ZM528.526 785.492C525.78 784.672 523.627 783.636 522.028 782.411L520.812 783.999C522.659 785.414 525.053 786.542 527.954 787.408L528.526 785.492ZM522.332 783.616L525.357 776.906L523.533 776.084L520.508 782.794L522.332 783.616ZM523.865 777.31C525.605 778.547 527.637 779.559 529.949 780.356L530.6 778.464C528.439 777.721 526.585 776.79 525.024 775.68L523.865 777.31ZM529.968 780.362C532.337 781.126 534.732 781.51 537.15 781.51V779.51C534.948 779.51 532.759 779.161 530.582 778.458L529.968 780.362ZM537.15 781.51C538.959 781.51 540.483 781.342 541.681 780.97L541.088 779.06C540.16 779.348 538.861 779.51 537.15 779.51V781.51ZM541.701 780.964C542.906 780.562 543.903 779.984 544.577 779.166L543.033 777.894C542.68 778.322 542.064 778.735 541.069 779.066L541.701 780.964ZM544.577 779.166C545.237 778.364 545.575 777.424 545.575 776.385H543.575C543.575 776.959 543.399 777.45 543.033 777.894L544.577 779.166ZM545.575 776.385C545.575 775.049 545.027 773.938 543.953 773.156L542.777 774.774C543.316 775.166 543.575 775.667 543.575 776.385H545.575ZM543.976 773.174C543.039 772.449 541.847 771.907 540.443 771.516L539.907 773.444C541.143 773.787 542.078 774.234 542.753 774.756L543.976 773.174ZM540.467 771.524C539.112 771.11 537.614 770.735 535.975 770.4L535.574 772.36C537.163 772.685 538.598 773.044 539.883 773.436L540.467 771.524ZM536.001 770.406C534.452 770.046 532.882 769.613 531.293 769.107L530.687 771.013C532.324 771.534 533.945 771.981 535.548 772.354L536.001 770.406ZM531.299 769.109C529.792 768.618 528.415 767.99 527.166 767.227L526.123 768.933C527.515 769.783 529.035 770.475 530.68 771.011L531.299 769.109ZM527.166 767.227C525.978 766.5 525.005 765.545 524.243 764.352L522.557 765.428C523.481 766.875 524.672 768.046 526.123 768.933L527.166 767.227ZM524.253 764.369C523.569 763.249 523.19 761.758 523.19 759.83H521.19C521.19 762.009 521.617 763.891 522.547 765.411L524.253 764.369ZM523.19 759.83C523.19 757.819 523.723 756.012 524.787 754.382L523.113 753.288C521.83 755.252 521.19 757.441 521.19 759.83H523.19ZM524.784 754.386C525.871 752.739 527.505 751.404 529.747 750.403L528.932 748.577C526.408 749.703 524.449 751.264 523.115 753.284L524.784 754.386ZM529.754 750.4C532.005 749.377 534.878 748.84 538.415 748.84V746.84C534.691 746.84 531.514 747.403 528.926 748.58L529.754 750.4ZM538.415 748.84C540.753 748.84 543.055 749.123 545.322 749.69L545.807 747.75C543.381 747.143 540.917 746.84 538.415 746.84V748.84ZM545.337 749.694C547.589 750.222 549.555 751.025 551.245 752.095L552.315 750.405C550.412 749.201 548.234 748.318 545.793 747.746L545.337 749.694ZM550.854 750.873L548.103 757.638L549.956 758.392L552.706 751.627L550.854 750.873ZM549.526 757.147C547.662 756.082 545.786 755.295 543.896 754.793L543.383 756.727C545.087 757.179 546.804 757.895 548.534 758.883L549.526 757.147ZM543.915 754.798C542.036 754.262 540.184 753.99 538.36 753.99V755.99C539.983 755.99 541.65 756.232 543.365 756.722L543.915 754.798ZM538.36 753.99C536.569 753.99 535.03 754.198 533.781 754.656L534.469 756.534C535.42 756.185 536.704 755.99 538.36 755.99V753.99ZM533.781 754.656C532.572 755.099 531.583 755.726 530.949 756.605L532.571 757.775C532.89 757.334 533.478 756.897 534.469 756.534L533.781 754.656ZM530.966 756.583C530.345 757.394 530.045 758.345 530.045 759.39H532.045C532.045 758.749 532.221 758.233 532.554 757.797L530.966 756.583ZM530.045 759.39C530.045 760.7 530.6 761.795 531.643 762.601L532.866 761.019C532.296 760.578 532.045 760.06 532.045 759.39H530.045ZM531.667 762.619C532.599 763.297 533.782 763.816 535.177 764.204L535.713 762.276C534.468 761.931 533.524 761.497 532.843 761.001L531.667 762.619ZM535.177 764.204C536.513 764.575 537.975 764.945 539.563 765.314L540.016 763.366C538.451 763.002 537.017 762.639 535.713 762.276L535.177 764.204ZM539.568 765.315C541.159 765.677 542.731 766.092 544.285 766.562L544.864 764.648C543.265 764.164 541.648 763.737 540.012 763.365L539.568 765.315ZM544.292 766.564C545.828 767.018 547.214 767.626 548.453 768.383L549.496 766.677C548.096 765.821 546.548 765.145 544.858 764.646L544.292 766.564ZM548.453 768.383C549.638 769.107 550.588 770.057 551.312 771.241L553.018 770.199C552.129 768.743 550.952 767.566 549.496 766.677L548.453 768.383ZM551.322 771.258C552.037 772.377 552.43 773.845 552.43 775.725H554.43C554.43 773.572 553.979 771.703 553.008 770.182L551.322 771.258ZM552.43 775.725C552.43 777.689 551.884 779.475 550.785 781.106L552.444 782.224C553.765 780.262 554.43 778.088 554.43 775.725H552.43ZM550.785 781.106C549.7 782.718 548.046 784.059 545.756 785.1L546.584 786.92C549.134 785.761 551.11 784.205 552.444 782.224L550.785 781.106ZM545.751 785.102C543.54 786.122 540.671 786.66 537.095 786.66V788.66C540.853 788.66 544.033 788.098 546.589 786.918L545.751 785.102ZM559.518 787H558.518V788H559.518V787ZM559.518 748.5V747.5H558.518V748.5H559.518ZM568.428 748.5H569.428V747.5H568.428V748.5ZM568.428 787V788H569.428V787H568.428ZM560.518 787V748.5H558.518V787H560.518ZM559.518 749.5H568.428V747.5H559.518V749.5ZM567.428 748.5V787H569.428V748.5H567.428ZM568.428 786H559.518V788H568.428V786Z" fill="#E359EB"/>
<path d="M283.919 782V743.5H300.584C304.031 743.5 307.001 744.068 309.494 745.205C311.988 746.305 313.913 747.9 315.269 749.99C316.626 752.08 317.304 754.573 317.304 757.47C317.304 760.33 316.626 762.805 315.269 764.895C313.913 766.948 311.988 768.525 309.494 769.625C307.001 770.725 304.031 771.275 300.584 771.275H288.869L292.829 767.37V782H283.919ZM308.394 782L298.769 768.03H308.284L318.019 782H308.394ZM292.829 768.36L288.869 764.18H300.089C302.839 764.18 304.893 763.593 306.249 762.42C307.606 761.21 308.284 759.56 308.284 757.47C308.284 755.343 307.606 753.693 306.249 752.52C304.893 751.347 302.839 750.76 300.089 750.76H288.869L292.829 746.525V768.36ZM332.559 759.01H351.094V765.94H332.559V759.01ZM333.219 774.85H354.174V782H324.364V743.5H353.459V750.65H333.219V774.85ZM373.913 782.66C370.833 782.66 367.882 782.257 365.058 781.45C362.235 780.607 359.962 779.525 358.238 778.205L361.263 771.495C362.913 772.668 364.857 773.64 367.093 774.41C369.367 775.143 371.658 775.51 373.968 775.51C375.728 775.51 377.14 775.345 378.203 775.015C379.303 774.648 380.11 774.153 380.623 773.53C381.137 772.907 381.393 772.192 381.393 771.385C381.393 770.358 380.99 769.552 380.183 768.965C379.377 768.342 378.313 767.847 376.993 767.48C375.673 767.077 374.207 766.71 372.593 766.38C371.017 766.013 369.422 765.573 367.808 765.06C366.232 764.547 364.783 763.887 363.463 763.08C362.143 762.273 361.062 761.21 360.218 759.89C359.412 758.57 359.008 756.883 359.008 754.83C359.008 752.63 359.595 750.632 360.768 748.835C361.978 747.002 363.775 745.553 366.158 744.49C368.578 743.39 371.603 742.84 375.233 742.84C377.653 742.84 380.037 743.133 382.383 743.72C384.73 744.27 386.802 745.113 388.598 746.25L385.848 753.015C384.052 751.988 382.255 751.237 380.458 750.76C378.662 750.247 376.902 749.99 375.178 749.99C373.455 749.99 372.043 750.192 370.943 750.595C369.843 750.998 369.055 751.53 368.578 752.19C368.102 752.813 367.863 753.547 367.863 754.39C367.863 755.38 368.267 756.187 369.073 756.81C369.88 757.397 370.943 757.873 372.263 758.24C373.583 758.607 375.032 758.973 376.608 759.34C378.222 759.707 379.817 760.128 381.393 760.605C383.007 761.082 384.473 761.723 385.793 762.53C387.113 763.337 388.177 764.4 388.983 765.72C389.827 767.04 390.248 768.708 390.248 770.725C390.248 772.888 389.643 774.868 388.433 776.665C387.223 778.462 385.408 779.91 382.988 781.01C380.605 782.11 377.58 782.66 373.913 782.66ZM396.336 782V743.5H413.001C416.448 743.5 419.418 744.068 421.911 745.205C424.405 746.305 426.33 747.9 427.686 749.99C429.043 752.08 429.721 754.573 429.721 757.47C429.721 760.33 429.043 762.805 427.686 764.895C426.33 766.985 424.405 768.598 421.911 769.735C419.418 770.835 416.448 771.385 413.001 771.385H401.286L405.246 767.37V782H396.336ZM405.246 768.36L401.286 764.125H412.506C415.256 764.125 417.31 763.538 418.666 762.365C420.023 761.192 420.701 759.56 420.701 757.47C420.701 755.343 420.023 753.693 418.666 752.52C417.31 751.347 415.256 750.76 412.506 750.76H401.286L405.246 746.525V768.36ZM455.32 782.66C452.276 782.66 449.453 782.165 446.85 781.175C444.283 780.185 442.046 778.792 440.14 776.995C438.27 775.198 436.803 773.09 435.74 770.67C434.713 768.25 434.2 765.61 434.2 762.75C434.2 759.89 434.713 757.25 435.74 754.83C436.803 752.41 438.288 750.302 440.195 748.505C442.101 746.708 444.338 745.315 446.905 744.325C449.471 743.335 452.258 742.84 455.265 742.84C458.308 742.84 461.095 743.335 463.625 744.325C466.191 745.315 468.41 746.708 470.28 748.505C472.186 750.302 473.671 752.41 474.735 754.83C475.798 757.213 476.33 759.853 476.33 762.75C476.33 765.61 475.798 768.268 474.735 770.725C473.671 773.145 472.186 775.253 470.28 777.05C468.41 778.81 466.191 780.185 463.625 781.175C461.095 782.165 458.326 782.66 455.32 782.66ZM455.265 775.07C456.988 775.07 458.565 774.777 459.995 774.19C461.461 773.603 462.745 772.76 463.845 771.66C464.945 770.56 465.788 769.258 466.375 767.755C466.998 766.252 467.31 764.583 467.31 762.75C467.31 760.917 466.998 759.248 466.375 757.745C465.788 756.242 464.945 754.94 463.845 753.84C462.781 752.74 461.516 751.897 460.05 751.31C458.583 750.723 456.988 750.43 455.265 750.43C453.541 750.43 451.946 750.723 450.48 751.31C449.05 751.897 447.785 752.74 446.685 753.84C445.585 754.94 444.723 756.242 444.1 757.745C443.513 759.248 443.22 760.917 443.22 762.75C443.22 764.547 443.513 766.215 444.1 767.755C444.723 769.258 445.566 770.56 446.63 771.66C447.73 772.76 449.013 773.603 450.48 774.19C451.946 774.777 453.541 775.07 455.265 775.07ZM483.026 782V743.5H490.396L513.111 771.22H509.536V743.5H518.336V782H511.021L488.251 754.28H491.826V782H483.026ZM540.095 782.66C537.015 782.66 534.063 782.257 531.24 781.45C528.417 780.607 526.143 779.525 524.42 778.205L527.445 771.495C529.095 772.668 531.038 773.64 533.275 774.41C535.548 775.143 537.84 775.51 540.15 775.51C541.91 775.51 543.322 775.345 544.385 775.015C545.485 774.648 546.292 774.153 546.805 773.53C547.318 772.907 547.575 772.192 547.575 771.385C547.575 770.358 547.172 769.552 546.365 768.965C545.558 768.342 544.495 767.847 543.175 767.48C541.855 767.077 540.388 766.71 538.775 766.38C537.198 766.013 535.603 765.573 533.99 765.06C532.413 764.547 530.965 763.887 529.645 763.08C528.325 762.273 527.243 761.21 526.4 759.89C525.593 758.57 525.19 756.883 525.19 754.83C525.19 752.63 525.777 750.632 526.95 748.835C528.16 747.002 529.957 745.553 532.34 744.49C534.76 743.39 537.785 742.84 541.415 742.84C543.835 742.84 546.218 743.133 548.565 743.72C550.912 744.27 552.983 745.113 554.78 746.25L552.03 753.015C550.233 751.988 548.437 751.237 546.64 750.76C544.843 750.247 543.083 749.99 541.36 749.99C539.637 749.99 538.225 750.192 537.125 750.595C536.025 750.998 535.237 751.53 534.76 752.19C534.283 752.813 534.045 753.547 534.045 754.39C534.045 755.38 534.448 756.187 535.255 756.81C536.062 757.397 537.125 757.873 538.445 758.24C539.765 758.607 541.213 758.973 542.79 759.34C544.403 759.707 545.998 760.128 547.575 760.605C549.188 761.082 550.655 761.723 551.975 762.53C553.295 763.337 554.358 764.4 555.165 765.72C556.008 767.04 556.43 768.708 556.43 770.725C556.43 772.888 555.825 774.868 554.615 776.665C553.405 778.462 551.59 779.91 549.17 781.01C546.787 782.11 543.762 782.66 540.095 782.66ZM562.518 782V743.5H571.428V782H562.518Z" fill="white"/>
<path d="M63.352 71.952H75.484V76.488H63.352V71.952ZM63.784 82.32H77.5V87H57.988V61.8H77.032V66.48H63.784V82.32ZM82.1403 87V61.8H93.5883C96.3243 61.8 98.7363 62.328 100.824 63.384C102.912 64.416 104.544 65.868 105.72 67.74C106.896 69.612 107.484 71.832 107.484 74.4C107.484 76.944 106.896 79.164 105.72 81.06C104.544 82.932 102.912 84.396 100.824 85.452C98.7363 86.484 96.3243 87 93.5883 87H82.1403ZM87.9723 82.212H93.3003C94.9803 82.212 96.4323 81.9 97.6563 81.276C98.9043 80.628 99.8643 79.716 100.536 78.54C101.232 77.364 101.58 75.984 101.58 74.4C101.58 72.792 101.232 71.412 100.536 70.26C99.8643 69.084 98.9043 68.184 97.6563 67.56C96.4323 66.912 94.9803 66.588 93.3003 66.588H87.9723V82.212ZM123.079 87.432C119.503 87.432 116.707 86.436 114.691 84.444C112.675 82.452 111.667 79.608 111.667 75.912V61.8H117.499V75.696C117.499 78.096 117.991 79.824 118.975 80.88C119.959 81.936 121.339 82.464 123.115 82.464C124.891 82.464 126.271 81.936 127.255 80.88C128.239 79.824 128.731 78.096 128.731 75.696V61.8H134.491V75.912C134.491 79.608 133.483 82.452 131.467 84.444C129.451 86.436 126.655 87.432 123.079 87.432ZM152.314 87.432C150.37 87.432 148.558 87.12 146.878 86.496C145.222 85.848 143.782 84.936 142.558 83.76C141.334 82.584 140.374 81.204 139.678 79.62C139.006 78.036 138.67 76.296 138.67 74.4C138.67 72.504 139.006 70.764 139.678 69.18C140.374 67.596 141.334 66.216 142.558 65.04C143.806 63.864 145.258 62.964 146.914 62.34C148.57 61.692 150.382 61.368 152.35 61.368C154.534 61.368 156.502 61.752 158.254 62.52C160.03 63.264 161.518 64.368 162.718 65.832L158.974 69.288C158.11 68.304 157.15 67.572 156.094 67.092C155.038 66.588 153.886 66.336 152.638 66.336C151.462 66.336 150.382 66.528 149.398 66.912C148.414 67.296 147.562 67.848 146.842 68.568C146.122 69.288 145.558 70.14 145.15 71.124C144.766 72.108 144.574 73.2 144.574 74.4C144.574 75.6 144.766 76.692 145.15 77.676C145.558 78.66 146.122 79.512 146.842 80.232C147.562 80.952 148.414 81.504 149.398 81.888C150.382 82.272 151.462 82.464 152.638 82.464C153.886 82.464 155.038 82.224 156.094 81.744C157.15 81.24 158.11 80.484 158.974 79.476L162.718 82.932C161.518 84.396 160.03 85.512 158.254 86.28C156.502 87.048 154.522 87.432 152.314 87.432ZM162.887 87L174.119 61.8H179.879L191.147 87H185.027L175.811 64.752H178.115L168.863 87H162.887ZM168.503 81.6L170.051 77.172H183.011L184.595 81.6H168.503ZM197.716 87V66.552H189.652V61.8H211.612V66.552H203.548V87H197.716ZM214.75 87V61.8H220.582V87H214.75ZM238.802 87.432C236.81 87.432 234.962 87.108 233.258 86.46C231.578 85.812 230.114 84.9 228.866 83.724C227.642 82.548 226.682 81.168 225.986 79.584C225.314 78 224.978 76.272 224.978 74.4C224.978 72.528 225.314 70.8 225.986 69.216C226.682 67.632 227.654 66.252 228.902 65.076C230.15 63.9 231.614 62.988 233.294 62.34C234.974 61.692 236.798 61.368 238.766 61.368C240.758 61.368 242.582 61.692 244.238 62.34C245.918 62.988 247.37 63.9 248.594 65.076C249.842 66.252 250.814 67.632 251.51 69.216C252.206 70.776 252.554 72.504 252.554 74.4C252.554 76.272 252.206 78.012 251.51 79.62C250.814 81.204 249.842 82.584 248.594 83.76C247.37 84.912 245.918 85.812 244.238 86.46C242.582 87.108 240.77 87.432 238.802 87.432ZM238.766 82.464C239.894 82.464 240.926 82.272 241.862 81.888C242.822 81.504 243.662 80.952 244.382 80.232C245.102 79.512 245.654 78.66 246.038 77.676C246.446 76.692 246.65 75.6 246.65 74.4C246.65 73.2 246.446 72.108 246.038 71.124C245.654 70.14 245.102 69.288 244.382 68.568C243.686 67.848 242.858 67.296 241.898 66.912C240.938 66.528 239.894 66.336 238.766 66.336C237.638 66.336 236.594 66.528 235.634 66.912C234.698 67.296 233.87 67.848 233.15 68.568C232.43 69.288 231.866 70.14 231.458 71.124C231.074 72.108 230.882 73.2 230.882 74.4C230.882 75.576 231.074 76.668 231.458 77.676C231.866 78.66 232.418 79.512 233.114 80.232C233.834 80.952 234.674 81.504 235.634 81.888C236.594 82.272 237.638 82.464 238.766 82.464ZM256.937 87V61.8H261.761L276.629 79.944H274.289V61.8H280.049V87H275.261L260.357 68.856H262.697V87H256.937Z" fill="white"/>
<path d="M737.121 358.344C734.103 381.067 731.659 383.244 706.152 385.933C706.21 385.939 706.26 385.946 706.31 385.952H706.317C731.666 388.634 734.11 390.85 737.121 413.522C740.139 390.806 742.591 388.622 768.09 385.933C742.591 383.244 740.139 381.067 737.121 358.344Z" fill="#8961CB"/>
<path d="M112.398 319.325C109.38 342.047 106.935 344.225 81.429 346.913C81.4863 346.92 81.5365 346.926 81.5867 346.932H81.5938C106.942 349.615 109.387 351.831 112.398 374.502C115.416 351.786 117.868 349.602 143.367 346.913C117.868 344.225 115.416 342.047 112.398 319.325Z" fill="#8961CB"/>
<path d="M205.26 220.079C204.216 227.764 203.37 228.501 194.548 229.41C194.568 229.412 194.585 229.414 194.602 229.417H194.605C203.373 230.324 204.218 231.073 205.26 238.741C206.304 231.058 207.152 230.319 215.972 229.41C207.152 228.501 206.304 227.764 205.26 220.079Z" fill="#8961CB"/>
<path d="M686.014 339.683C684.97 347.368 684.124 348.104 675.302 349.014C675.322 349.016 675.339 349.018 675.356 349.02H675.359C684.127 349.927 684.972 350.677 686.014 358.344C687.058 350.662 687.906 349.923 696.726 349.014C687.906 348.104 687.058 347.368 686.014 339.683Z" fill="#8961CB"/>
<path d="M723.355 275.884C726.095 286.129 720.012 298.509 705.802 312.275C691.663 325.972 669.781 340.739 641.763 355.681C585.741 385.557 505.401 416.016 414.025 439.955C322.649 463.895 237.604 476.764 173.987 478.233C142.169 478.967 115.772 476.848 96.6392 471.868C77.4101 466.863 65.9366 459.083 63.1972 448.838C60.4577 438.593 66.5408 426.214 80.7505 412.448C94.8889 398.751 116.771 383.983 144.789 369.041C200.811 339.166 281.152 308.706 372.528 284.767C463.904 260.828 548.948 247.958 612.566 246.49C644.383 245.755 670.781 247.874 689.913 252.855C709.142 257.86 720.616 265.64 723.355 275.884Z" stroke="#8961CB" stroke-width="2.11596"/>
<g filter="url(#filter0_d_618_283)">
<g filter="url(#filter1_ii_618_283)">
<rect x="170.553" y="270.126" width="454.559" height="278.226" rx="14.8117" fill="url(#paint1_linear_618_283)"/>
</g>
<rect x="168.437" y="268.01" width="458.791" height="282.458" rx="16.9277" stroke="#8961CB" stroke-opacity="0.7" stroke-width="4.23192"/>
<g opacity="0.7" filter="url(#filter2_ii_618_283)">
<rect x="182.621" y="282.072" width="430.423" height="254.335" rx="8.46384" fill="#CBE1F9"/>
</g>
<rect x="198.209" y="493.582" width="399.248" height="7.46581" rx="3.7329" fill="#A89EE1"/>
<rect x="198.209" y="493.582" width="158.392" height="7.46581" rx="3.7329" fill="url(#paint2_linear_618_283)"/>
<ellipse cx="354.589" cy="497.066" rx="7.54247" ry="7.46581" fill="#415CA9"/>
<path d="M200.54 316.1V298.983H205.875V301.134H203.326V313.942H205.875V316.1H200.54ZM207.52 314.463V300.613H210.449V306.328H216.393V300.613H219.315V314.463H216.393V308.742H210.449V314.463H207.52ZM224.657 300.613V314.463H221.729V300.613H224.657ZM227.066 300.613H230.678L234.492 309.918H234.654L238.468 300.613H242.079V314.463H239.239V305.448H239.124L235.54 314.395H233.606L230.022 305.415H229.907V314.463H227.066V300.613ZM243.964 303.027V300.613H255.339V303.027H251.099V314.463H248.205V303.027H243.964ZM260.141 300.613V314.463H257.212V300.613H260.141ZM266.957 314.463V300.613H272.422C273.468 300.613 274.36 300.8 275.1 301.174C275.844 301.544 276.409 302.069 276.797 302.75C277.189 303.426 277.386 304.222 277.386 305.137C277.386 306.057 277.187 306.848 276.79 307.511C276.394 308.169 275.819 308.674 275.066 309.026C274.318 309.377 273.411 309.553 272.347 309.553H268.689V307.2H271.874C272.433 307.2 272.897 307.123 273.267 306.97C273.637 306.817 273.912 306.587 274.092 306.28C274.277 305.974 274.369 305.593 274.369 305.137C274.369 304.677 274.277 304.29 274.092 303.974C273.912 303.659 273.634 303.42 273.26 303.257C272.891 303.09 272.424 303.007 271.86 303.007H269.886V314.463H266.957ZM274.437 308.16L277.879 314.463H274.647L271.279 308.16H274.437ZM279.455 314.463V300.613H288.787V303.027H282.383V306.328H288.307V308.742H282.383V312.049H288.814V314.463H279.455ZM298.629 304.596C298.575 304.051 298.342 303.627 297.932 303.325C297.522 303.023 296.965 302.872 296.262 302.872C295.784 302.872 295.38 302.939 295.051 303.075C294.722 303.205 294.47 303.388 294.294 303.622C294.123 303.857 294.037 304.123 294.037 304.42C294.028 304.668 294.08 304.885 294.192 305.07C294.31 305.254 294.47 305.415 294.673 305.55C294.875 305.681 295.11 305.796 295.376 305.895C295.642 305.989 295.926 306.071 296.228 306.138L297.472 306.436C298.076 306.571 298.631 306.751 299.136 306.977C299.641 307.202 300.078 307.479 300.448 307.809C300.818 308.138 301.104 308.525 301.307 308.972C301.514 309.418 301.62 309.93 301.625 310.507C301.62 311.354 301.404 312.089 300.975 312.711C300.552 313.329 299.938 313.809 299.136 314.152C298.338 314.49 297.375 314.659 296.248 314.659C295.13 314.659 294.156 314.488 293.327 314.145C292.502 313.802 291.857 313.295 291.393 312.624C290.933 311.947 290.692 311.111 290.669 310.115H293.503C293.534 310.579 293.667 310.967 293.902 311.278C294.141 311.584 294.458 311.817 294.855 311.974C295.256 312.128 295.709 312.204 296.214 312.204C296.71 312.204 297.141 312.132 297.506 311.988C297.876 311.844 298.162 311.643 298.365 311.386C298.568 311.129 298.669 310.834 298.669 310.5C298.669 310.189 298.577 309.927 298.392 309.716C298.212 309.504 297.946 309.323 297.594 309.175C297.247 309.026 296.821 308.891 296.316 308.769L294.808 308.39C293.64 308.106 292.718 307.662 292.042 307.058C291.366 306.454 291.03 305.64 291.034 304.617C291.03 303.778 291.253 303.045 291.704 302.419C292.159 301.792 292.784 301.303 293.577 300.951C294.37 300.6 295.272 300.424 296.282 300.424C297.31 300.424 298.207 300.6 298.974 300.951C299.745 301.303 300.344 301.792 300.772 302.419C301.201 303.045 301.422 303.771 301.435 304.596H298.629ZM303.594 314.463V300.613H309.058C310.109 300.613 311.004 300.814 311.743 301.215C312.483 301.612 313.046 302.164 313.434 302.872C313.826 303.575 314.022 304.387 314.022 305.306C314.022 306.226 313.824 307.038 313.427 307.741C313.03 308.444 312.456 308.992 311.703 309.384C310.954 309.776 310.048 309.973 308.984 309.973H305.501V307.626H308.511C309.074 307.626 309.539 307.529 309.904 307.335C310.273 307.137 310.548 306.864 310.729 306.517C310.914 306.165 311.006 305.762 311.006 305.306C311.006 304.846 310.914 304.445 310.729 304.103C310.548 303.755 310.273 303.487 309.904 303.298C309.534 303.104 309.065 303.007 308.497 303.007H306.522V314.463H303.594ZM328.652 307.538C328.652 309.048 328.365 310.333 327.793 311.393C327.225 312.452 326.449 313.261 325.466 313.821C324.488 314.375 323.388 314.652 322.166 314.652C320.935 314.652 319.831 314.373 318.852 313.814C317.874 313.255 317.101 312.445 316.533 311.386C315.965 310.326 315.681 309.044 315.681 307.538C315.681 306.028 315.965 304.743 316.533 303.683C317.101 302.624 317.874 301.817 318.852 301.262C319.831 300.703 320.935 300.424 322.166 300.424C323.388 300.424 324.488 300.703 325.466 301.262C326.449 301.817 327.225 302.624 327.793 303.683C328.365 304.743 328.652 306.028 328.652 307.538ZM325.683 307.538C325.683 306.56 325.536 305.735 325.243 305.063C324.955 304.391 324.547 303.882 324.019 303.535C323.492 303.187 322.874 303.014 322.166 303.014C321.458 303.014 320.841 303.187 320.313 303.535C319.786 303.882 319.375 304.391 319.082 305.063C318.794 305.735 318.65 306.56 318.65 307.538C318.65 308.516 318.794 309.341 319.082 310.013C319.375 310.685 319.786 311.194 320.313 311.542C320.841 311.889 321.458 312.062 322.166 312.062C322.874 312.062 323.492 311.889 324.019 311.542C324.547 311.194 324.955 310.685 325.243 310.013C325.536 309.341 325.683 308.516 325.683 307.538ZM342.405 300.613V314.463H339.876L333.85 305.746H333.749V314.463H330.821V300.613H333.39L339.369 309.323H339.49V300.613H342.405ZM352.338 304.596C352.284 304.051 352.051 303.627 351.641 303.325C351.231 303.023 350.674 302.872 349.971 302.872C349.493 302.872 349.089 302.939 348.76 303.075C348.431 303.205 348.179 303.388 348.003 303.622C347.832 303.857 347.746 304.123 347.746 304.42C347.737 304.668 347.789 304.885 347.901 305.07C348.019 305.254 348.179 305.415 348.382 305.55C348.584 305.681 348.819 305.796 349.085 305.895C349.351 305.989 349.635 306.071 349.937 306.138L351.181 306.436C351.785 306.571 352.34 306.751 352.845 306.977C353.35 307.202 353.787 307.479 354.157 307.809C354.527 308.138 354.813 308.525 355.016 308.972C355.223 309.418 355.329 309.93 355.334 310.507C355.329 311.354 355.113 312.089 354.684 312.711C354.261 313.329 353.647 313.809 352.845 314.152C352.047 314.49 351.084 314.659 349.957 314.659C348.839 314.659 347.865 314.488 347.036 314.145C346.211 313.802 345.566 313.295 345.102 312.624C344.642 311.947 344.401 311.111 344.378 310.115H347.212C347.243 310.579 347.376 310.967 347.611 311.278C347.85 311.584 348.167 311.817 348.564 311.974C348.965 312.128 349.419 312.204 349.923 312.204C350.419 312.204 350.85 312.132 351.215 311.988C351.585 311.844 351.871 311.643 352.074 311.386C352.277 311.129 352.378 310.834 352.378 310.5C352.378 310.189 352.286 309.927 352.101 309.716C351.921 309.504 351.655 309.323 351.303 309.175C350.956 309.026 350.53 308.891 350.025 308.769L348.517 308.39C347.349 308.106 346.427 307.662 345.751 307.058C345.075 306.454 344.739 305.64 344.743 304.617C344.739 303.778 344.962 303.045 345.413 302.419C345.868 301.792 346.493 301.303 347.286 300.951C348.079 300.6 348.981 300.424 349.991 300.424C351.019 300.424 351.916 300.6 352.683 300.951C353.454 301.303 354.053 301.792 354.481 302.419C354.91 303.045 355.131 303.771 355.144 304.596H352.338ZM360.231 300.613V314.463H357.303V300.613H360.231ZM367.212 298.983V316.1H361.876V313.942H364.426V301.134H361.876V298.983H367.212ZM374.84 314.463V300.613H380.305C381.351 300.613 382.243 300.8 382.983 301.174C383.727 301.544 384.292 302.069 384.68 302.75C385.072 303.426 385.268 304.222 385.268 305.137C385.268 306.057 385.07 306.848 384.673 307.511C384.277 308.169 383.702 308.674 382.949 309.026C382.2 309.377 381.294 309.553 380.23 309.553H376.572V307.2H379.757C380.316 307.2 380.78 307.123 381.15 306.97C381.52 306.817 381.795 306.587 381.975 306.28C382.16 305.974 382.252 305.593 382.252 305.137C382.252 304.677 382.16 304.29 381.975 303.974C381.795 303.659 381.517 303.42 381.143 303.257C380.774 303.09 380.307 303.007 379.743 303.007H377.769V314.463H374.84ZM382.32 308.16L385.762 314.463H382.53L379.162 308.16H382.32ZM391.85 314.666C390.782 314.666 389.862 314.449 389.091 314.017C388.325 313.579 387.734 312.962 387.319 312.164C386.904 311.361 386.697 310.412 386.697 309.317C386.697 308.248 386.904 307.31 387.319 306.503C387.734 305.696 388.318 305.067 389.071 304.617C389.828 304.166 390.716 303.94 391.735 303.94C392.421 303.94 393.058 304.051 393.649 304.272C394.244 304.488 394.763 304.815 395.204 305.252C395.651 305.69 395.998 306.24 396.246 306.902C396.494 307.561 396.618 308.332 396.618 309.215V310.006H387.847V308.221H393.906C393.906 307.806 393.816 307.439 393.636 307.119C393.455 306.799 393.205 306.548 392.885 306.368C392.569 306.183 392.202 306.091 391.783 306.091C391.345 306.091 390.958 306.192 390.619 306.395C390.286 306.594 390.024 306.862 389.835 307.2C389.646 307.534 389.549 307.905 389.544 308.316V310.013C389.544 310.527 389.639 310.971 389.828 311.345C390.022 311.72 390.295 312.008 390.646 312.211C390.998 312.414 391.415 312.515 391.898 312.515C392.218 312.515 392.511 312.47 392.777 312.38C393.043 312.29 393.27 312.155 393.46 311.974C393.649 311.794 393.793 311.573 393.893 311.312L396.557 311.487C396.422 312.128 396.145 312.687 395.725 313.165C395.31 313.638 394.774 314.008 394.116 314.274C393.462 314.535 392.707 314.666 391.85 314.666ZM407.141 307.038L404.503 307.2C404.458 306.974 404.361 306.772 404.212 306.591C404.064 306.406 403.867 306.26 403.624 306.152C403.385 306.039 403.099 305.983 402.765 305.983C402.319 305.983 401.942 306.077 401.636 306.267C401.329 306.451 401.176 306.699 401.176 307.011C401.176 307.258 401.275 307.468 401.473 307.639C401.672 307.811 402.012 307.948 402.495 308.052L404.375 308.431C405.385 308.638 406.137 308.972 406.633 309.432C407.129 309.891 407.377 310.496 407.377 311.244C407.377 311.925 407.177 312.522 406.775 313.036C406.379 313.55 405.833 313.951 405.139 314.24C404.449 314.524 403.653 314.666 402.752 314.666C401.377 314.666 400.281 314.38 399.465 313.807C398.653 313.23 398.178 312.445 398.038 311.454L400.872 311.305C400.957 311.724 401.165 312.044 401.494 312.265C401.823 312.482 402.244 312.59 402.758 312.59C403.263 312.59 403.669 312.493 403.976 312.299C404.287 312.101 404.445 311.846 404.449 311.535C404.445 311.273 404.334 311.059 404.118 310.892C403.901 310.721 403.568 310.59 403.117 310.5L401.318 310.142C400.304 309.939 399.548 309.587 399.052 309.087C398.561 308.586 398.315 307.948 398.315 307.173C398.315 306.506 398.496 305.931 398.856 305.448C399.222 304.966 399.733 304.594 400.391 304.333C401.054 304.071 401.83 303.94 402.718 303.94C404.03 303.94 405.062 304.218 405.815 304.772C406.573 305.327 407.014 306.082 407.141 307.038ZM409.191 318.358V304.076H412.032V305.82H412.16C412.286 305.541 412.469 305.257 412.708 304.968C412.951 304.675 413.267 304.432 413.655 304.238C414.047 304.039 414.534 303.94 415.115 303.94C415.873 303.94 416.572 304.139 417.212 304.535C417.852 304.928 418.364 305.52 418.747 306.314C419.13 307.103 419.322 308.093 419.322 309.283C419.322 310.441 419.135 311.42 418.761 312.218C418.391 313.011 417.886 313.613 417.246 314.023C416.61 314.429 415.898 314.632 415.109 314.632C414.55 314.632 414.074 314.54 413.682 314.355C413.294 314.17 412.976 313.938 412.728 313.658C412.48 313.374 412.291 313.088 412.16 312.799H412.072V318.358H409.191ZM412.011 309.269C412.011 309.887 412.097 310.426 412.268 310.886C412.44 311.345 412.688 311.704 413.012 311.961C413.337 312.213 413.731 312.34 414.196 312.34C414.665 312.34 415.061 312.211 415.386 311.954C415.711 311.693 415.956 311.332 416.123 310.872C416.294 310.408 416.38 309.873 416.38 309.269C416.38 308.67 416.297 308.142 416.13 307.687C415.963 307.231 415.717 306.875 415.393 306.618C415.068 306.361 414.669 306.233 414.196 306.233C413.727 306.233 413.33 306.357 413.006 306.605C412.685 306.853 412.44 307.204 412.268 307.66C412.097 308.115 412.011 308.652 412.011 309.269ZM425.936 314.666C424.885 314.666 423.977 314.443 423.21 313.996C422.448 313.546 421.86 312.919 421.445 312.116C421.031 311.309 420.823 310.374 420.823 309.31C420.823 308.237 421.031 307.299 421.445 306.497C421.86 305.69 422.448 305.063 423.21 304.617C423.977 304.166 424.885 303.94 425.936 303.94C426.986 303.94 427.892 304.166 428.654 304.617C429.421 305.063 430.011 305.69 430.426 306.497C430.841 307.299 431.048 308.237 431.048 309.31C431.048 310.374 430.841 311.309 430.426 312.116C430.011 312.919 429.421 313.546 428.654 313.996C427.892 314.443 426.986 314.666 425.936 314.666ZM425.949 312.434C426.427 312.434 426.826 312.299 427.146 312.028C427.466 311.753 427.708 311.379 427.87 310.906C428.037 310.432 428.12 309.894 428.12 309.29C428.12 308.685 428.037 308.147 427.87 307.673C427.708 307.2 427.466 306.826 427.146 306.551C426.826 306.276 426.427 306.138 425.949 306.138C425.467 306.138 425.061 306.276 424.732 306.551C424.407 306.826 424.162 307.2 423.995 307.673C423.833 308.147 423.751 308.685 423.751 309.29C423.751 309.894 423.833 310.432 423.995 310.906C424.162 311.379 424.407 311.753 424.732 312.028C425.061 312.299 425.467 312.434 425.949 312.434ZM435.802 308.458V314.463H432.922V304.076H435.667V305.908H435.789C436.019 305.304 436.404 304.826 436.945 304.475C437.486 304.118 438.142 303.94 438.913 303.94C439.635 303.94 440.264 304.098 440.8 304.414C441.337 304.729 441.754 305.18 442.051 305.766C442.349 306.348 442.497 307.042 442.497 307.849V314.463H439.617V308.363C439.621 307.727 439.459 307.231 439.13 306.875C438.801 306.515 438.347 306.334 437.77 306.334C437.383 306.334 437.04 306.418 436.742 306.584C436.449 306.751 436.219 306.995 436.053 307.315C435.89 307.63 435.807 308.011 435.802 308.458ZM453.411 307.038L450.773 307.2C450.728 306.974 450.631 306.772 450.482 306.591C450.334 306.406 450.138 306.26 449.894 306.152C449.655 306.039 449.369 305.983 449.035 305.983C448.589 305.983 448.212 306.077 447.906 306.267C447.599 306.451 447.446 306.699 447.446 307.011C447.446 307.258 447.545 307.468 447.744 307.639C447.942 307.811 448.282 307.948 448.765 308.052L450.645 308.431C451.655 308.638 452.408 308.972 452.903 309.432C453.399 309.891 453.647 310.496 453.647 311.244C453.647 311.925 453.447 312.522 453.046 313.036C452.649 313.55 452.103 313.951 451.409 314.24C450.719 314.524 449.923 314.666 449.022 314.666C447.647 314.666 446.551 314.38 445.735 313.807C444.924 313.23 444.448 312.445 444.308 311.454L447.142 311.305C447.227 311.724 447.435 312.044 447.764 312.265C448.093 312.482 448.515 312.59 449.028 312.59C449.533 312.59 449.939 312.493 450.246 312.299C450.557 312.101 450.715 311.846 450.719 311.535C450.715 311.273 450.604 311.059 450.388 310.892C450.171 310.721 449.838 310.59 449.387 310.5L447.588 310.142C446.574 309.939 445.818 309.587 445.323 309.087C444.831 308.586 444.585 307.948 444.585 307.173C444.585 306.506 444.766 305.931 445.126 305.448C445.492 304.966 446.003 304.594 446.662 304.333C447.324 304.071 448.1 303.94 448.988 303.94C450.3 303.94 451.332 304.218 452.085 304.772C452.843 305.327 453.284 306.082 453.411 307.038ZM455.461 314.463V304.076H458.342V314.463H455.461ZM456.909 302.737C456.48 302.737 456.113 302.595 455.806 302.31C455.504 302.022 455.353 301.677 455.353 301.276C455.353 300.879 455.504 300.539 455.806 300.255C456.113 299.966 456.48 299.822 456.909 299.822C457.337 299.822 457.702 299.966 458.004 300.255C458.311 300.539 458.464 300.879 458.464 301.276C458.464 301.677 458.311 302.022 458.004 302.31C457.702 302.595 457.337 302.737 456.909 302.737ZM472.625 304.596C472.571 304.051 472.339 303.627 471.929 303.325C471.518 303.023 470.961 302.872 470.258 302.872C469.78 302.872 469.377 302.939 469.048 303.075C468.719 303.205 468.466 303.388 468.29 303.622C468.119 303.857 468.033 304.123 468.033 304.42C468.024 304.668 468.076 304.885 468.189 305.07C468.306 305.254 468.466 305.415 468.669 305.55C468.872 305.681 469.106 305.796 469.372 305.895C469.638 305.989 469.922 306.071 470.224 306.138L471.469 306.436C472.073 306.571 472.627 306.751 473.132 306.977C473.637 307.202 474.075 307.479 474.444 307.809C474.814 308.138 475.1 308.525 475.303 308.972C475.51 309.418 475.616 309.93 475.621 310.507C475.616 311.354 475.4 312.089 474.972 312.711C474.548 313.329 473.935 313.809 473.132 314.152C472.334 314.49 471.372 314.659 470.245 314.659C469.127 314.659 468.153 314.488 467.323 314.145C466.498 313.802 465.853 313.295 465.389 312.624C464.929 311.947 464.688 311.111 464.665 310.115H467.499C467.531 310.579 467.664 310.967 467.898 311.278C468.137 311.584 468.455 311.817 468.852 311.974C469.253 312.128 469.706 312.204 470.211 312.204C470.707 312.204 471.137 312.132 471.502 311.988C471.872 311.844 472.158 311.643 472.361 311.386C472.564 311.129 472.666 310.834 472.666 310.5C472.666 310.189 472.573 309.927 472.388 309.716C472.208 309.504 471.942 309.323 471.59 309.175C471.243 309.026 470.817 308.891 470.312 308.769L468.804 308.39C467.636 308.106 466.715 307.662 466.038 307.058C465.362 306.454 465.026 305.64 465.031 304.617C465.026 303.778 465.249 303.045 465.7 302.419C466.155 301.792 466.78 301.303 467.573 300.951C468.367 300.6 469.269 300.424 470.278 300.424C471.306 300.424 472.204 300.6 472.97 300.951C473.741 301.303 474.341 301.792 474.769 302.419C475.197 303.045 475.418 303.771 475.432 304.596H472.625ZM490.318 307.538C490.318 309.048 490.032 310.333 489.459 311.393C488.891 312.452 488.116 313.261 487.133 313.821C486.154 314.375 485.054 314.652 483.832 314.652C482.602 314.652 481.497 314.373 480.519 313.814C479.54 313.255 478.767 312.445 478.199 311.386C477.631 310.326 477.347 309.044 477.347 307.538C477.347 306.028 477.631 304.743 478.199 303.683C478.767 302.624 479.54 301.817 480.519 301.262C481.497 300.703 482.602 300.424 483.832 300.424C485.054 300.424 486.154 300.703 487.133 301.262C488.116 301.817 488.891 302.624 489.459 303.683C490.032 304.743 490.318 306.028 490.318 307.538ZM487.349 307.538C487.349 306.56 487.203 305.735 486.91 305.063C486.621 304.391 486.213 303.882 485.685 303.535C485.158 303.187 484.54 303.014 483.832 303.014C483.125 303.014 482.507 303.187 481.98 303.535C481.452 303.882 481.042 304.391 480.749 305.063C480.46 305.735 480.316 306.56 480.316 307.538C480.316 308.516 480.46 309.341 480.749 310.013C481.042 310.685 481.452 311.194 481.98 311.542C482.507 311.889 483.125 312.062 483.832 312.062C484.54 312.062 485.158 311.889 485.685 311.542C486.213 311.194 486.621 310.685 486.91 310.013C487.203 309.341 487.349 308.516 487.349 307.538ZM504.707 305.462H501.745C501.691 305.079 501.581 304.738 501.414 304.441C501.247 304.139 501.033 303.882 500.771 303.67C500.51 303.458 500.208 303.296 499.865 303.183C499.527 303.07 499.159 303.014 498.763 303.014C498.046 303.014 497.421 303.192 496.889 303.548C496.357 303.9 495.945 304.414 495.652 305.09C495.359 305.762 495.212 306.578 495.212 307.538C495.212 308.525 495.359 309.355 495.652 310.027C495.949 310.698 496.364 311.206 496.896 311.548C497.428 311.891 498.044 312.062 498.742 312.062C499.135 312.062 499.498 312.01 499.831 311.907C500.169 311.803 500.469 311.652 500.731 311.454C500.992 311.251 501.209 311.005 501.38 310.716C501.556 310.428 501.677 310.099 501.745 309.729L504.707 309.743C504.63 310.378 504.439 310.991 504.132 311.582C503.83 312.168 503.422 312.693 502.908 313.158C502.399 313.618 501.79 313.983 501.082 314.253C500.379 314.519 499.583 314.652 498.695 314.652C497.46 314.652 496.355 314.373 495.381 313.814C494.412 313.255 493.646 312.445 493.082 311.386C492.523 310.326 492.244 309.044 492.244 307.538C492.244 306.028 492.528 304.743 493.096 303.683C493.664 302.624 494.435 301.817 495.408 301.262C496.382 300.703 497.478 300.424 498.695 300.424C499.498 300.424 500.241 300.536 500.927 300.762C501.617 300.987 502.227 301.316 502.759 301.749C503.291 302.177 503.724 302.703 504.058 303.325C504.396 303.947 504.612 304.659 504.707 305.462ZM514.32 304.596C514.266 304.051 514.034 303.627 513.624 303.325C513.213 303.023 512.657 302.872 511.953 302.872C511.475 302.872 511.072 302.939 510.743 303.075C510.414 303.205 510.161 303.388 509.985 303.622C509.814 303.857 509.728 304.123 509.728 304.42C509.719 304.668 509.771 304.885 509.884 305.07C510.001 305.254 510.161 305.415 510.364 305.55C510.567 305.681 510.801 305.796 511.067 305.895C511.333 305.989 511.617 306.071 511.92 306.138L513.164 306.436C513.768 306.571 514.322 306.751 514.827 306.977C515.332 307.202 515.77 307.479 516.139 307.809C516.509 308.138 516.795 308.525 516.998 308.972C517.206 309.418 517.312 309.93 517.316 310.507C517.312 311.354 517.095 312.089 516.667 312.711C516.243 313.329 515.63 313.809 514.827 314.152C514.029 314.49 513.067 314.659 511.94 314.659C510.822 314.659 509.848 314.488 509.018 314.145C508.193 313.802 507.549 313.295 507.084 312.624C506.624 311.947 506.383 311.111 506.361 310.115H509.194C509.226 310.579 509.359 310.967 509.593 311.278C509.832 311.584 510.15 311.817 510.547 311.974C510.948 312.128 511.401 312.204 511.906 312.204C512.402 312.204 512.832 312.132 513.198 311.988C513.567 311.844 513.854 311.643 514.057 311.386C514.259 311.129 514.361 310.834 514.361 310.5C514.361 310.189 514.268 309.927 514.084 309.716C513.903 309.504 513.637 309.323 513.286 309.175C512.938 309.026 512.512 308.891 512.007 308.769L510.499 308.39C509.332 308.106 508.41 307.662 507.733 307.058C507.057 306.454 506.721 305.64 506.726 304.617C506.721 303.778 506.944 303.045 507.395 302.419C507.851 301.792 508.475 301.303 509.269 300.951C510.062 300.6 510.964 300.424 511.974 300.424C513.002 300.424 513.899 300.6 514.665 300.951C515.436 301.303 516.036 301.792 516.464 302.419C516.892 303.045 517.113 303.771 517.127 304.596H514.32Z" fill="#415CA9"/>
<path d="M221.714 520.919L211.621 527.246L211.641 514.561L221.714 520.919Z" fill="#415CA9"/>
<path d="M239.832 520.517L230.291 526.498L230.31 514.506L239.832 520.517Z" fill="#415CA9"/>
<rect x="239.492" y="514.758" width="2.62948" height="11.2786" fill="#415CA9"/>
</g>
<rect opacity="0.7" x="197.843" y="351.795" width="155.068" height="6.46639" rx="3.2332" fill="#415CA9"/>
<rect opacity="0.7" x="369.42" y="351.795" width="69.5744" height="6.46639" rx="3.2332" fill="#D9D9D9"/>
<rect opacity="0.7" x="532.153" y="380.896" width="69.5744" height="6.46639" rx="3.2332" fill="#D9D9D9"/>
<g opacity="0.7">
<rect x="197.843" y="335.631" width="264.147" height="6.46639" rx="3.2332" fill="#415CA9"/>
<rect x="197.843" y="335.631" width="264.147" height="6.46639" rx="3.2332" fill="#415CA9"/>
<rect x="197.843" y="335.631" width="264.147" height="6.46639" rx="3.2332" fill="#415CA9"/>
<rect x="197.843" y="335.631" width="264.147" height="6.46639" rx="3.2332" fill="#415CA9"/>
</g>
<g opacity="0.7">
<rect x="478.498" y="335.631" width="113.206" height="6.46639" rx="3.2332" fill="#415CA9"/>
<rect x="478.498" y="335.631" width="113.206" height="6.46639" rx="3.2332" fill="#415CA9"/>
<rect x="478.498" y="335.631" width="113.206" height="6.46639" rx="3.2332" fill="#415CA9"/>
<rect x="478.498" y="335.631" width="113.206" height="6.46639" rx="3.2332" fill="#415CA9"/>
</g>
<g opacity="0.7">
<rect x="197.843" y="367.964" width="54.2444" height="6.46639" rx="3.2332" fill="#415CA9"/>
<rect x="197.843" y="367.964" width="54.2444" height="6.46639" rx="3.2332" fill="#415CA9"/>
<rect x="197.843" y="367.964" width="54.2444" height="6.46639" rx="3.2332" fill="#415CA9"/>
<rect x="197.843" y="367.964" width="54.2444" height="6.46639" rx="3.2332" fill="#D9D9D9"/>
</g>
<g opacity="0.7">
<rect x="266.238" y="367.964" width="114.975" height="6.46639" rx="3.2332" fill="#415CA9"/>
<rect x="266.238" y="367.964" width="114.975" height="6.46639" rx="3.2332" fill="#415CA9"/>
<rect x="266.238" y="367.964" width="114.975" height="6.46639" rx="3.2332" fill="#415CA9"/>
<rect x="266.238" y="367.964" width="114.975" height="6.46639" rx="3.2332" fill="#415CA9"/>
</g>
<g opacity="0.7">
<rect x="197.843" y="384.129" width="54.2444" height="6.46639" rx="3.2332" fill="#415CA9"/>
<rect x="197.843" y="384.129" width="54.2444" height="6.46639" rx="3.2332" fill="#415CA9"/>
<rect x="197.843" y="384.129" width="54.2444" height="6.46639" rx="3.2332" fill="#415CA9"/>
<rect x="197.843" y="384.129" width="54.2444" height="6.46639" rx="3.2332" fill="#7888B7"/>
</g>
<g opacity="0.7">
<rect x="266.238" y="384.129" width="199.289" height="6.46639" rx="3.2332" fill="#415CA9"/>
<rect x="266.238" y="384.129" width="199.289" height="6.46639" rx="3.2332" fill="#415CA9"/>
<rect x="266.238" y="384.129" width="199.289" height="6.46639" rx="3.2332" fill="#415CA9"/>
<rect x="266.238" y="384.129" width="199.289" height="6.46639" rx="3.2332" fill="#415CA9"/>
</g>
<g opacity="0.7">
<rect x="197.843" y="400.294" width="54.2444" height="6.46639" rx="3.2332" fill="#415CA9"/>
<rect x="197.843" y="400.294" width="54.2444" height="6.46639" rx="3.2332" fill="#415CA9"/>
<rect x="197.843" y="400.294" width="54.2444" height="6.46639" rx="3.2332" fill="#415CA9"/>
<rect x="197.843" y="400.294" width="54.2444" height="6.46639" rx="3.2332" fill="#7888B7"/>
</g>
<g opacity="0.7">
<rect x="266.238" y="400.294" width="74.8809" height="6.46639" rx="3.2332" fill="#415CA9"/>
<rect x="266.238" y="400.294" width="74.8809" height="6.46639" rx="3.2332" fill="#415CA9"/>
<rect x="266.238" y="400.294" width="74.8809" height="6.46639" rx="3.2332" fill="#415CA9"/>
<rect x="266.238" y="400.294" width="74.8809" height="6.46639" rx="3.2332" fill="#415CA9"/>
</g>
<g opacity="0.7">
<rect x="266.828" y="448.794" width="54.2444" height="6.46639" rx="3.2332" fill="#415CA9"/>
<rect x="266.828" y="448.794" width="54.2444" height="6.46639" rx="3.2332" fill="#415CA9"/>
<rect x="266.828" y="448.794" width="54.2444" height="6.46639" rx="3.2332" fill="#415CA9"/>
<rect x="266.828" y="448.794" width="54.2444" height="6.46639" rx="3.2332" fill="#7888B7"/>
</g>
<g opacity="0.7">
<rect x="335.222" y="448.794" width="163.323" height="6.46639" rx="3.2332" fill="#415CA9"/>
<rect x="335.222" y="448.794" width="163.323" height="6.46639" rx="3.2332" fill="#415CA9"/>
<rect x="335.222" y="448.794" width="163.323" height="6.46639" rx="3.2332" fill="#415CA9"/>
<rect x="335.222" y="448.794" width="163.323" height="6.46639" rx="3.2332" fill="#415CA9"/>
</g>
<g opacity="0.7">
<rect x="335.222" y="464.959" width="163.323" height="6.46639" rx="3.2332" fill="#415CA9"/>
<rect x="335.222" y="464.959" width="163.323" height="6.46639" rx="3.2332" fill="#415CA9"/>
<rect x="335.222" y="464.959" width="163.323" height="6.46639" rx="3.2332" fill="#415CA9"/>
<rect x="335.222" y="464.959" width="163.323" height="6.46639" rx="3.2332" fill="#415CA9"/>
</g>
<g opacity="0.7">
<rect x="450.197" y="464.959" width="48.3483" height="6.46639" rx="3.2332" fill="#415CA9"/>
<rect x="450.197" y="464.959" width="48.3483" height="6.46639" rx="3.2332" fill="#415CA9"/>
<rect x="450.197" y="464.959" width="48.3483" height="6.46639" rx="3.2332" fill="#415CA9"/>
<rect x="450.197" y="464.959" width="48.3483" height="6.46639" rx="3.2332" fill="#415CA9"/>
</g>
<g opacity="0.7">
<rect x="266.238" y="416.461" width="172.757" height="6.46639" rx="3.2332" fill="#415CA9"/>
<rect x="266.238" y="416.461" width="172.757" height="6.46639" rx="3.2332" fill="#415CA9"/>
<rect x="266.238" y="416.461" width="172.757" height="6.46639" rx="3.2332" fill="#415CA9"/>
<rect x="266.238" y="416.461" width="172.757" height="6.46639" rx="3.2332" fill="#415CA9"/>
</g>
<g opacity="0.7">
<rect x="428.971" y="400.294" width="172.757" height="6.46639" rx="3.2332" fill="#415CA9"/>
<rect x="428.971" y="400.294" width="172.757" height="6.46639" rx="3.2332" fill="#415CA9"/>
<rect x="428.971" y="400.294" width="172.757" height="6.46639" rx="3.2332" fill="#415CA9"/>
<rect x="428.971" y="400.294" width="172.757" height="6.46639" rx="3.2332" fill="#D9D9D9"/>
</g>
<g opacity="0.7">
<rect x="197.843" y="432.626" width="359.664" height="6.46639" rx="3.2332" fill="#415CA9"/>
<rect x="197.843" y="432.626" width="359.664" height="6.46639" rx="3.2332" fill="#415CA9"/>
<rect x="197.843" y="432.626" width="359.664" height="6.46639" rx="3.2332" fill="#415CA9"/>
<rect x="197.843" y="432.626" width="359.664" height="6.46639" rx="3.2332" fill="#415CA9"/>
</g>
<g opacity="0.7">
<rect x="197.843" y="432.626" width="359.664" height="6.46639" rx="3.2332" fill="#415CA9"/>
<rect x="197.843" y="432.626" width="359.664" height="6.46639" rx="3.2332" fill="#415CA9"/>
<rect x="197.843" y="432.626" width="359.664" height="6.46639" rx="3.2332" fill="#415CA9"/>
<rect x="197.843" y="432.626" width="359.664" height="6.46639" rx="3.2332" fill="#415CA9"/>
</g>
<g opacity="0.7">
<rect x="452.555" y="416.461" width="45.9898" height="6.46639" rx="3.2332" fill="#415CA9"/>
<rect x="452.555" y="416.461" width="45.9898" height="6.46639" rx="3.2332" fill="#415CA9"/>
<rect x="452.555" y="416.461" width="45.9898" height="6.46639" rx="3.2332" fill="#415CA9"/>
<rect x="452.555" y="416.461" width="45.9898" height="6.46639" rx="3.2332" fill="#415CA9"/>
</g>
<g opacity="0.7">
<rect x="394.774" y="367.964" width="44.221" height="6.46639" rx="3.2332" fill="#415CA9"/>
<rect x="394.774" y="367.964" width="44.221" height="6.46639" rx="3.2332" fill="#415CA9"/>
<rect x="394.774" y="367.964" width="44.221" height="6.46639" rx="3.2332" fill="#415CA9"/>
<rect x="394.774" y="367.964" width="44.221" height="6.46639" rx="3.2332" fill="#415CA9"/>
</g>
<mask id="mask1_618_283" style="mask-type:alpha" maskUnits="userSpaceOnUse" x="167" y="365" width="463" height="140">
<rect x="167.125" y="365.13" width="461.901" height="139.113" fill="#D9D9D9"/>
</mask>
<g mask="url(#mask1_618_283)">
<path d="M745.347 270.123C746.712 275.229 745.82 280.885 742.71 287.041C739.596 293.204 734.288 299.806 726.94 306.729C712.244 320.576 689.555 335.556 660.541 350.76C602.527 381.159 519.435 412.339 425.02 437.075C330.606 461.81 242.81 475.4 177.2 477.389C144.386 478.384 117.18 476.475 97.4891 471.638C87.6427 469.219 79.7302 466.081 73.9437 462.25C68.1645 458.423 64.5625 453.944 63.1971 448.838C61.8318 443.732 62.7238 438.076 65.8337 431.92C68.9475 425.757 74.2558 419.155 81.604 412.232C96.2996 398.385 118.988 383.405 148.003 368.201C206.017 337.802 289.109 306.622 383.524 281.886C477.938 257.151 565.733 243.561 631.344 241.572C664.158 240.577 691.363 242.486 711.055 247.323C720.901 249.742 728.814 252.88 734.6 256.711C740.379 260.538 743.981 265.017 745.347 270.123Z" stroke="#8961CB" stroke-width="2.11596"/>
</g>
<rect x="403.255" y="552.063" width="333.453" height="71.1605" rx="10.5798" fill="url(#paint3_linear_618_283)"/>
<rect x="497.581" y="562.662" width="226.891" height="49.4591" rx="10.5798" fill="url(#paint4_linear_618_283)"/>
<rect x="422.12" y="562.662" width="17.3355" height="49.4591" rx="5.2899" fill="white"/>
<rect x="447.614" y="562.662" width="6.62827" height="49.4591" rx="3.31413" fill="white"/>
<rect x="429.259" y="480.903" width="333.453" height="71.1605" rx="10.5798" fill="url(#paint5_linear_618_283)"/>
<rect x="485.345" y="491.501" width="265.131" height="49.4591" rx="10.5798" fill="url(#paint6_linear_618_283)" fill-opacity="0.75"/>
<rect x="444.555" y="491.501" width="6.62827" height="49.4591" rx="3.31413" fill="white"/>
<rect x="456.792" y="491.501" width="6.62827" height="49.4591" rx="3.31413" fill="white"/>
<rect x="403.255" y="455.163" width="300.311" height="19.6827" rx="5.2899" fill="#F4F4F4"/>
<rect x="397.647" y="474.846" width="305.92" height="6.05621" rx="3.02811" fill="#CA74E8"/>
<rect x="397.647" y="449.107" width="305.92" height="6.05621" rx="3.02811" fill="#CA74E8"/>
<path d="M405.36 461.726C405.067 461.726 404.831 461.963 404.831 462.255C404.831 462.547 405.067 462.784 405.36 462.784V461.726ZM405.36 462.784H699.297V461.726H405.36V462.784Z" fill="#DBDBDB"/>
<path d="M405.36 467.664C405.067 467.664 404.831 467.9 404.831 468.193C404.831 468.485 405.067 468.722 405.36 468.722V467.664ZM405.36 468.722H699.297V467.664H405.36V468.722Z" fill="#DBDBDB"/>
<path d="M76.9866 492.636C73.7323 476.938 73.0488 455.002 90.0182 436.326C94.0044 431.942 98.6452 428.183 103.541 424.832C120.357 413.34 141.946 406.025 161.336 412.54C167.696 414.678 173.509 418.209 178.877 422.229C190.293 430.792 200.031 441.908 205.352 455.076C210.668 468.241 211.242 483.55 205.338 496.443C198.924 510.448 185.385 521.133 182.407 536.242C179.564 550.673 187.212 565.282 186.44 579.972C186.366 581.258 186.211 582.604 185.454 583.649C184.518 584.922 182.903 585.468 181.381 585.939C176.18 587.55 170.99 589.159 165.79 590.77C133.187 600.863 134.494 571.633 122.749 550.665C109.339 526.706 82.7725 520.562 76.9866 492.636Z" fill="url(#paint7_linear_618_283)"/>
<path d="M76.9866 492.636C73.7323 476.938 73.0488 455.002 90.0182 436.326C94.0044 431.942 98.6452 428.183 103.541 424.832C120.357 413.34 141.946 406.025 161.336 412.54C167.696 414.678 173.509 418.209 178.877 422.229C190.293 430.792 200.031 441.908 205.352 455.076C210.668 468.241 211.242 483.55 205.338 496.443C198.924 510.448 185.385 521.133 182.407 536.242C179.564 550.673 187.212 565.282 186.44 579.972C186.366 581.258 186.211 582.604 185.454 583.649C184.518 584.922 182.903 585.468 181.381 585.939C176.18 587.55 170.99 589.159 165.79 590.77C133.187 600.863 134.494 571.633 122.749 550.665C109.339 526.706 82.7725 520.562 76.9866 492.636Z" fill="url(#paint8_linear_618_283)"/>
<path d="M182.862 543.593C183.751 543.325 184.814 543.073 185.558 543.64C186.058 544.024 186.259 544.676 186.419 545.283C188.906 554.304 191.379 563.316 193.862 572.337C194.678 575.279 195.492 578.323 195.096 581.351C194.017 589.64 184.445 594.908 183.438 603.196C183.083 606.157 183.576 604.924 182.685 607.765C181.378 611.962 176.916 614.25 172.801 615.884C168.368 617.642 163.636 619.208 158.897 618.579C157.037 618.332 155.065 617.636 154.086 616.042C153.148 614.506 153.384 612.543 152.911 610.816C152.103 607.812 149.599 610.083 146.748 608.791C143.896 607.499 140.798 606.669 138.24 604.874C132.287 600.689 130.94 592.699 128.59 585.855C125.638 577.286 118.658 562.738 129.486 556.361C132.67 554.482 136.912 554.816 140.464 554.342C146.851 553.483 153.167 551.68 159.398 550.104C167.27 548.108 175.09 545.936 182.862 543.593Z" fill="#CADFDF"/>
<path d="M146.48 550.411C143.503 535.483 133.807 522.881 124.603 510.692C122.652 508.104 120.782 504.195 123.191 502.024C124.555 500.793 126.754 500.91 128.373 501.806C129.985 502.704 131.144 504.209 132.261 505.663C133.31 507.034 134.861 508.571 136.504 508.031C137.267 507.779 137.816 507.132 138.308 506.482C140.308 503.846 141.993 500.983 143.313 497.955C145.337 499.565 147.432 501.217 149.934 501.902C152.436 502.588 155.458 502.075 156.965 499.987C157.761 498.892 158.111 497.423 159.247 496.681C161.003 495.531 163.536 497.004 164.218 498.993C164.902 500.986 164.304 503.144 163.708 505.146C159.668 518.729 155.547 533.569 160.957 546.694" stroke="#144778" stroke-width="7.25689" stroke-miterlimit="10" stroke-linecap="round" stroke-linejoin="round"/>
<mask id="mask2_618_283" style="mask-type:luminance" maskUnits="userSpaceOnUse" x="42" y="416" width="31" height="33">
<path d="M42.1194 422.232L66.3499 416.761L72.5205 443.33L48.29 448.801L42.1194 422.232Z" fill="white"/>
</mask>
<g mask="url(#mask2_618_283)">
<path d="M68.8495 441.187C67.2365 438.99 64.9586 437.369 62.7073 435.813C56.9734 431.853 51.1464 428.016 45.2447 424.317C45.8318 424.094 46.5135 424.098 47.1008 424.335" stroke="#144778" stroke-width="7.25689" stroke-miterlimit="10" stroke-linecap="round" stroke-linejoin="round"/>
</g>
<path d="M95.4911 411.885C95.8337 411.559 95.6223 410.993 95.3892 410.579C90.8088 402.679 83.9598 395.932 81.1933 387.245" stroke="#144778" stroke-width="7.25689" stroke-miterlimit="10" stroke-linecap="round" stroke-linejoin="round"/>
<mask id="mask3_618_283" style="mask-type:luminance" maskUnits="userSpaceOnUse" x="119" y="369" width="18" height="33">
<path d="M119.265 372.143L129.44 369.846L136.222 399.049L126.048 401.347L119.265 372.143Z" fill="white"/>
</mask>
<g mask="url(#mask3_618_283)">
<path d="M128.398 398.012C126.107 390.096 125.681 381.665 127.153 373.578" stroke="#144778" stroke-width="7.25689" stroke-miterlimit="10" stroke-linecap="round" stroke-linejoin="round"/>
</g>
<path d="M168.792 401.641C170.957 393.378 173.412 385.201 176.145 377.107C176.853 377.651 177.246 378.576 177.149 379.449" stroke="#144778" stroke-width="7.25689" stroke-miterlimit="10" stroke-linecap="round" stroke-linejoin="round"/>
<path d="M197.517 416.958C197.461 417.321 198.084 417.206 198.335 416.943C203.916 411.106 209.186 404.982 214.133 398.611" stroke="#144778" stroke-width="7.25689" stroke-miterlimit="10" stroke-linecap="round" stroke-linejoin="round"/>
<path d="M134.625 596.03C141.23 595.917 148.087 595.739 154.011 592.854" stroke="#144778" stroke-width="7.25689" stroke-miterlimit="10" stroke-linecap="round" stroke-linejoin="round"/>
<path d="M132.27 584.131C135.656 583.792 139.047 583.445 142.433 583.106" stroke="#144778" stroke-width="7.25689" stroke-miterlimit="10" stroke-linecap="round" stroke-linejoin="round"/>
<path d="M171.385 576.677C173.753 575.984 176.133 575.278 178.504 574.584C182.223 573.484 186.074 572.317 188.933 569.728" stroke="#144778" stroke-width="7.25689" stroke-miterlimit="10" stroke-linecap="round" stroke-linejoin="round"/>
<path d="M176.829 590.262C179.669 587.885 182.961 586.03 186.475 584.819" stroke="#144778" stroke-width="7.25689" stroke-miterlimit="10" stroke-linecap="round" stroke-linejoin="round"/>
<path d="M89.3463 458.217C89.5068 457.324 89.8821 456.47 90.2394 455.64C91.6229 452.424 93.2687 449.458 95.3471 446.631C97.5962 443.572 100.123 440.767 102.852 438.128" stroke="#EECFFD" stroke-width="7.40586" stroke-linecap="round"/>
<path d="M102.348 453.968C102.403 453.665 102.53 453.374 102.652 453.092C103.122 451.999 103.682 450.99 104.389 450.029C105.153 448.989 106.012 448.035 106.94 447.138" stroke="#EECFFD" stroke-width="4.23192" stroke-linecap="round"/>
<mask id="mask4_618_283" style="mask-type:luminance" maskUnits="userSpaceOnUse" x="250" y="514" width="15" height="14">
<path d="M250.25 514.422H264.951V527.934H250.25V514.422Z" fill="white"/>
</mask>
<g mask="url(#mask4_618_283)">
<path d="M250.263 518.851V523.471H253.524L257.599 527.32V515.001L253.524 518.851H250.263ZM261.267 521.161C261.267 519.802 260.436 518.628 259.229 518.062V524.264C260.436 523.694 261.267 522.52 261.267 521.161ZM259.229 514.408V515.998C261.585 516.66 263.304 518.72 263.304 521.161C263.304 523.601 261.585 525.661 259.229 526.323V527.913C262.493 527.212 264.935 524.46 264.935 521.161C264.935 517.862 262.493 515.109 259.229 514.408Z" fill="#415CA9"/>
</g>
<path d="M652.163 286.667C652.163 304.703 637.392 319.325 619.171 319.325C600.949 319.325 586.178 304.703 586.178 286.667C586.178 268.631 600.949 254.01 619.171 254.01C637.392 254.01 652.163 268.631 652.163 286.667Z" fill="url(#paint9_linear_618_283)"/>
<path d="M583.972 315.248L588.504 296.23C588.718 295.333 589.898 295.12 590.412 295.887L601.535 312.476C601.966 313.119 601.583 313.992 600.818 314.111L585.164 316.539C584.421 316.654 583.798 315.979 583.972 315.248Z" fill="#AA6AEA"/>
<path d="M598.743 289.328V286.154L611.439 280.564V284.216L602.747 287.705L602.864 287.516V287.967L602.747 287.778L611.439 291.267V294.919L598.743 289.328ZM623.296 275.794L617.345 297.903H614.036L619.987 275.794H623.296ZM638.591 289.328L625.895 294.919V291.267L634.587 287.778L634.47 287.967V287.516L634.587 287.705L625.895 284.216V280.564L638.591 286.154V289.328Z" fill="#FBFAFF"/>
<defs>
<filter id="filter0_d_618_283" x="162.089" y="265.894" width="471.487" height="295.153" filterUnits="userSpaceOnUse" color-interpolation-filters="sRGB">
<feFlood flood-opacity="0" result="BackgroundImageFix"/>
<feColorMatrix in="SourceAlpha" type="matrix" values="0 0 0 0 0 0 0 0 0 0 0 0 0 0 0 0 0 0 127 0" result="hardAlpha"/>
<feOffset dy="4.23192"/>
<feGaussianBlur stdDeviation="2.11596"/>
<feComposite in2="hardAlpha" operator="out"/>
<feColorMatrix type="matrix" values="0 0 0 0 0 0 0 0 0 0 0 0 0 0 0 0 0 0 0.25 0"/>
<feBlend mode="normal" in2="BackgroundImageFix" result="effect1_dropShadow_618_283"/>
<feBlend mode="normal" in="SourceGraphic" in2="effect1_dropShadow_618_283" result="shape"/>
</filter>
<filter id="filter1_ii_618_283" x="162.089" y="261.662" width="471.487" height="295.153" filterUnits="userSpaceOnUse" color-interpolation-filters="sRGB">
<feFlood flood-opacity="0" result="BackgroundImageFix"/>
<feBlend mode="normal" in="SourceGraphic" in2="BackgroundImageFix" result="shape"/>
<feColorMatrix in="SourceAlpha" type="matrix" values="0 0 0 0 0 0 0 0 0 0 0 0 0 0 0 0 0 0 127 0" result="hardAlpha"/>
<feOffset dx="11.6378" dy="-6.34788"/>
<feGaussianBlur stdDeviation="2.11596"/>
<feComposite in2="hardAlpha" operator="arithmetic" k2="-1" k3="1"/>
<feColorMatrix type="matrix" values="0 0 0 0 0 0 0 0 0 0 0 0 0 0 0 0 0 0 0.1 0"/>
<feBlend mode="normal" in2="shape" result="effect1_innerShadow_618_283"/>
<feColorMatrix in="SourceAlpha" type="matrix" values="0 0 0 0 0 0 0 0 0 0 0 0 0 0 0 0 0 0 127 0" result="hardAlpha"/>
<feOffset dx="-9.52182" dy="11.6378"/>
<feGaussianBlur stdDeviation="2.11596"/>
<feComposite in2="hardAlpha" operator="arithmetic" k2="-1" k3="1"/>
<feColorMatrix type="matrix" values="0 0 0 0 0 0 0 0 0 0 0 0 0 0 0 0 0 0 0.1 0"/>
<feBlend mode="normal" in2="effect1_innerShadow_618_283" result="effect2_innerShadow_618_283"/>
</filter>
<filter id="filter2_ii_618_283" x="180.505" y="282.072" width="434.655" height="256.451" filterUnits="userSpaceOnUse" color-interpolation-filters="sRGB">
<feFlood flood-opacity="0" result="BackgroundImageFix"/>
<feBlend mode="normal" in="SourceGraphic" in2="BackgroundImageFix" result="shape"/>
<feColorMatrix in="SourceAlpha" type="matrix" values="0 0 0 0 0 0 0 0 0 0 0 0 0 0 0 0 0 0 127 0" result="hardAlpha"/>
<feOffset dx="5.2899" dy="4.23192"/>
<feGaussianBlur stdDeviation="1.05798"/>
<feComposite in2="hardAlpha" operator="arithmetic" k2="-1" k3="1"/>
<feColorMatrix type="matrix" values="0 0 0 0 0 0 0 0 0 0 0 0 0 0 0 0 0 0 0.25 0"/>
<feBlend mode="normal" in2="shape" result="effect1_innerShadow_618_283"/>
<feColorMatrix in="SourceAlpha" type="matrix" values="0 0 0 0 0 0 0 0 0 0 0 0 0 0 0 0 0 0 127 0" result="hardAlpha"/>
<feOffset dx="-4.23192" dy="4.23192"/>
<feGaussianBlur stdDeviation="1.05798"/>
<feComposite in2="hardAlpha" operator="arithmetic" k2="-1" k3="1"/>
<feColorMatrix type="matrix" values="0 0 0 0 0 0 0 0 0 0 0 0 0 0 0 0 0 0 0.25 0"/>
<feBlend mode="normal" in2="effect1_innerShadow_618_283" result="effect2_innerShadow_618_283"/>
</filter>
<linearGradient id="paint0_linear_618_283" x1="396.221" y1="286.702" x2="405.557" y2="321.543" gradientUnits="userSpaceOnUse">
<stop stop-color="#415CA9"/>
<stop offset="1" stop-color="#5B4187"/>
</linearGradient>
<linearGradient id="paint1_linear_618_283" x1="397.832" y1="270.126" x2="397.832" y2="583.939" gradientUnits="userSpaceOnUse">
<stop offset="0.140625" stop-color="#415CA9"/>
<stop offset="0.603841" stop-color="#A89EE1"/>
<stop offset="1" stop-color="#8F69CE"/>
</linearGradient>
<linearGradient id="paint2_linear_618_283" x1="277.405" y1="493.582" x2="277.405" y2="502.292" gradientUnits="userSpaceOnUse">
<stop stop-color="#415CA9"/>
<stop offset="0.9999" stop-color="#94A6E4"/>
<stop offset="1" stop-color="#9538CE"/>
</linearGradient>
<linearGradient id="paint3_linear_618_283" x1="569.982" y1="552.063" x2="584.603" y2="623.058" gradientUnits="userSpaceOnUse">
<stop stop-color="#CB74E9"/>
<stop offset="0.914108" stop-color="#A49BD6"/>
</linearGradient>
<linearGradient id="paint4_linear_618_283" x1="593.033" y1="558.107" x2="695.881" y2="609.412" gradientUnits="userSpaceOnUse">
<stop stop-color="#E1E1E1"/>
<stop offset="0.475695" stop-color="white"/>
<stop offset="1" stop-color="#DBDBDB"/>
</linearGradient>
<linearGradient id="paint5_linear_618_283" x1="536.474" y1="408.815" x2="427.032" y2="692.886" gradientUnits="userSpaceOnUse">
<stop stop-color="#B048DE"/>
<stop offset="1" stop-color="#603EB7"/>
</linearGradient>
<linearGradient id="paint6_linear_618_283" x1="617.91" y1="491.501" x2="595.59" y2="558.669" gradientUnits="userSpaceOnUse">
<stop stop-color="#A2B9E1"/>
<stop offset="0.611111" stop-color="#CBDAFF"/>
<stop offset="1" stop-color="#C0CCF1"/>
</linearGradient>
<linearGradient id="paint7_linear_618_283" x1="127.355" y1="412.849" x2="167.483" y2="590.568" gradientUnits="userSpaceOnUse">
<stop stop-color="#B048DE"/>
<stop offset="0.423611" stop-color="#A877EF"/>
<stop offset="1" stop-color="#415CA9"/>
</linearGradient>
<linearGradient id="paint8_linear_618_283" x1="112.595" y1="433.315" x2="197.993" y2="373.624" gradientUnits="userSpaceOnUse">
<stop stop-color="#8DBCD6" stop-opacity="0"/>
<stop offset="0.641087" stop-color="#98CBDD"/>
</linearGradient>
<linearGradient id="paint9_linear_618_283" x1="598.604" y1="321.021" x2="659.616" y2="289.555" gradientUnits="userSpaceOnUse">
<stop offset="0.149631" stop-color="#AA6AEA"/>
<stop offset="0.496699" stop-color="#D4B0F9"/>
<stop offset="1" stop-color="#D3A6FF"/>
</linearGradient>
</defs>
</svg>
